<?xml version="1.0" encoding="utf-8"?>
<!-- Generator: Adobe Illustrator 15.0.0, SVG Export Plug-In . SVG Version: 6.00 Build 0)  -->
<!DOCTYPE svg PUBLIC "-//W3C//DTD SVG 1.1//EN" "http://www.w3.org/Graphics/SVG/1.1/DTD/svg11.dtd">
<svg version="1.1" id="Layer_1" xmlns="http://www.w3.org/2000/svg" xmlns:xlink="http://www.w3.org/1999/xlink" x="0px" y="0px"
	 width="64px" height="64px" viewBox="0 0 64 64" enable-background="new 0 0 64 64" xml:space="preserve">
<path fill="#233A74" d="M45.076,2.342h-28.38c-3.941,0-7.151,3.207-7.151,7.153V54.33c0,3.938,3.21,7.152,7.151,7.152h28.38
	c3.943,0,7.153-3.214,7.153-7.152V9.495C52.229,5.549,49.02,2.342,45.076,2.342z M22.182,50.514c0,1.054-0.856,1.905-1.909,1.905
	h-2.146c-1.052,0-1.909-0.852-1.909-1.905v-1.909c0-1.053,0.857-1.911,1.909-1.911h2.146c1.053,0,1.909,0.855,1.909,1.911V50.514z
	 M22.182,40.497c0,1.052-0.856,1.911-1.909,1.911h-2.146c-1.052,0-1.909-0.854-1.909-1.911v-1.909c0-1.053,0.857-1.906,1.909-1.906
	h2.146c1.053,0,1.909,0.854,1.909,1.906V40.497z M22.182,30.48c0,1.052-0.856,1.905-1.909,1.905h-2.146
	c-1.052,0-1.909-0.853-1.909-1.905v-1.911c0-1.052,0.857-1.907,1.909-1.907h2.146c1.053,0,1.909,0.855,1.909,1.907V30.48z
	 M33.864,50.514c0,1.054-0.854,1.905-1.906,1.905h-2.147c-1.052,0-1.91-0.852-1.91-1.905v-1.909c0-1.053,0.857-1.911,1.91-1.911
	h2.147c1.052,0,1.906,0.855,1.906,1.911V50.514z M33.864,40.497c0,1.052-0.854,1.911-1.906,1.911h-2.147
	c-1.052,0-1.91-0.854-1.91-1.911v-1.909c0-1.053,0.857-1.906,1.91-1.906h2.147c1.052,0,1.906,0.854,1.906,1.906V40.497z
	 M33.864,30.48c0,1.052-0.854,1.905-1.906,1.905h-2.147c-1.052,0-1.91-0.853-1.91-1.905v-1.911c0-1.052,0.857-1.907,1.91-1.907
	h2.147c1.052,0,1.906,0.855,1.906,1.907V30.48z M45.552,50.514c0,1.054-0.854,1.905-1.906,1.905h-2.146
	c-1.057,0-1.911-0.852-1.911-1.905v-1.909c0-1.053,0.854-1.911,1.911-1.911h2.146c1.052,0,1.906,0.855,1.906,1.911V50.514z
	 M45.552,40.497c0,1.052-0.854,1.911-1.906,1.911h-2.146c-1.057,0-1.911-0.854-1.911-1.911v-1.909c0-1.053,0.854-1.906,1.911-1.906
	h2.146c1.052,0,1.906,0.854,1.906,1.906V40.497z M45.552,30.48c0,1.052-0.854,1.905-1.906,1.905h-2.146
	c-1.057,0-1.911-0.853-1.911-1.905v-1.911c0-1.052,0.854-1.907,1.911-1.907h2.146c1.052,0,1.906,0.855,1.906,1.907V30.48z
	 M46.271,18.319c0,1.579-1.286,2.86-2.863,2.86H18.367c-1.576,0-2.863-1.281-2.863-2.86v-6.441c0-1.579,1.287-2.86,2.863-2.86
	h25.041c1.577,0,2.863,1.285,2.863,2.86V18.319z"/>
</svg>
