<?xml version="1.0" encoding="utf-8"?>
<!-- Generator: Adobe Illustrator 15.0.0, SVG Export Plug-In . SVG Version: 6.00 Build 0)  -->
<!DOCTYPE svg PUBLIC "-//W3C//DTD SVG 1.1//EN" "http://www.w3.org/Graphics/SVG/1.1/DTD/svg11.dtd">
<svg version="1.1" id="Layer_1" xmlns="http://www.w3.org/2000/svg" xmlns:xlink="http://www.w3.org/1999/xlink" x="0px" y="0px"
	 width="48px" height="48px" viewBox="0 0 48 48" enable-background="new 0 0 48 48" xml:space="preserve">
<circle fill="#FFFFFF" cx="37.25" cy="36.25" r="8.25"/>
<path fill="#FFFFFF" stroke="#010101" stroke-miterlimit="10" d="M36.857,12.742l-9.998-9.998C26.703,2.587,26.492,2.5,26.27,2.5
	H7.941c-0.459,0-0.833,0.373-0.833,0.833v38.325c0,0.461,0.374,0.833,0.833,0.833h28.327c0.459,0,0.833-0.372,0.833-0.833V13.331
	C37.102,13.109,37.013,12.898,36.857,12.742z"/>
<g>
	<polygon fill="#FFFFFF" points="41.386,16.458 32.277,18.774 23.172,21.091 25.718,12.046 28.266,3 34.826,9.729 	"/>
	<path fill="#FFFFFF" stroke="#010101" stroke-miterlimit="10" d="M43.071,14.738L32.282,3.949
		c-0.168-0.168-0.396-0.263-0.635-0.263h-19.78c-0.495,0-0.899,0.402-0.899,0.899v41.357c0,0.497,0.404,0.898,0.899,0.898h30.568
		c0.496,0,0.899-0.401,0.899-0.898V15.374C43.335,15.135,43.24,14.906,43.071,14.738z M30.748,16.272V5.483l10.789,10.789H30.748z"
		/>
</g>
<polygon fill="#FFFFFF" points="-307,133.5 -307.534,134.308 -308.067,135.116 -308.5,134.25 -308.933,133.384 -307.966,133.442 "/>
<line fill="none" stroke="#010101" stroke-miterlimit="10" x1="14.152" y1="21.091" x2="37.102" y2="21.091"/>
<line fill="none" stroke="#010101" stroke-miterlimit="10" x1="14.152" y1="36.25" x2="37.102" y2="36.25"/>
<line fill="none" stroke="#010101" stroke-miterlimit="10" x1="14.152" y1="28.67" x2="37.102" y2="28.67"/>
</svg>
