<?xml version="1.0" encoding="utf-8"?>
<!-- Generator: Adobe Illustrator 15.0.0, SVG Export Plug-In . SVG Version: 6.00 Build 0)  -->
<!DOCTYPE svg PUBLIC "-//W3C//DTD SVG 1.1//EN" "http://www.w3.org/Graphics/SVG/1.1/DTD/svg11.dtd">
<svg version="1.1" id="Layer_1" xmlns="http://www.w3.org/2000/svg" xmlns:xlink="http://www.w3.org/1999/xlink" x="0px" y="0px"
	 width="48px" height="48px" viewBox="0 0 48 48" enable-background="new 0 0 48 48" xml:space="preserve">
<rect x="1.171" y="1.625" fill="#EDEEEF" stroke="#010101" stroke-miterlimit="10" width="45.864" height="35.582"/>
<path fill="#233A74" stroke="#233A74" stroke-miterlimit="10" d="M2.261,42.646l4.263,4.263c0.121,0.121,0.316,0.121,0.437,0
	l6.414-6.413l3.097,3.098c0.089,0.088,0.222,0.114,0.337,0.066s0.19-0.16,0.19-0.285V32.481c0-0.171-0.138-0.309-0.309-0.309H5.795
	c-0.124,0-0.238,0.074-0.285,0.19c-0.048,0.115-0.021,0.248,0.066,0.337l3.097,3.097l-6.413,6.412
	C2.141,42.33,2.141,42.525,2.261,42.646z"/>
<line fill="none" stroke="#000000" stroke-miterlimit="10" x1="3.974" y1="15.667" x2="23.739" y2="15.667"/>
<line fill="none" stroke="#000000" stroke-miterlimit="10" x1="3.974" y1="24.917" x2="23.738" y2="24.917"/>
<line fill="none" stroke="#000000" stroke-miterlimit="10" x1="3.974" y1="20.333" x2="23.738" y2="20.333"/>
<path fill="#52B2E4" stroke="#233A74" stroke-miterlimit="10" d="M43.695,21.94c0,2.058-0.922,3.726-2.058,3.726H29.858
	c-1.137,0-2.058-1.668-2.058-3.726v-3.048c0-2.058,0.921-3.726,2.058-3.726h11.779c1.136,0,2.058,1.668,2.058,3.726V21.94z"/>
<g>
	<circle fill="#010101" cx="31.815" cy="6.747" r="1.667"/>
	<circle fill="#010101" cx="42.694" cy="6.746" r="1.667"/>
	<circle fill="#010101" cx="37.333" cy="6.746" r="1.667"/>
</g>
<line fill="none" stroke="#000000" stroke-miterlimit="10" x1="1" y1="9.859" x2="47.516" y2="9.859"/>
</svg>
