<?xml version="1.0" encoding="utf-8"?>
<!-- Generator: Adobe Illustrator 15.0.0, SVG Export Plug-In . SVG Version: 6.00 Build 0)  -->
<!DOCTYPE svg PUBLIC "-//W3C//DTD SVG 1.1//EN" "http://www.w3.org/Graphics/SVG/1.1/DTD/svg11.dtd">
<svg version="1.1" id="Layer_1" xmlns="http://www.w3.org/2000/svg" xmlns:xlink="http://www.w3.org/1999/xlink" x="0px" y="0px"
	 width="48px" height="48px" viewBox="0 0 48 48" enable-background="new 0 0 48 48" xml:space="preserve">
<rect x="4" y="10" fill="#FFFFFF" width="29" height="35.667"/>
<g>
	<g>
		<path fill="#A37F4B" stroke="#000000" stroke-miterlimit="10" d="M36.354,9.478c0-0.495-0.4-0.896-0.896-0.896h-4.479v3.583h0.896
			c0.495,0,0.896,0.4,0.896,0.896v22.396l-0.602,8.622c-0.496,0-8.356,0.338-8.356,0.338H6.791c-0.495,0-0.896-0.4-0.896-0.896
			v-30.46c0-0.496,0.4-0.896,0.896-0.896h0.896V8.583H3.208c-0.496,0-0.896,0.4-0.896,0.896v37.627C2.312,47.6,2.712,48,3.208,48
			h32.25c0.496,0,0.896-0.4,0.896-0.895V9.478z"/>
		<path fill="#999999" stroke="#010101" stroke-miterlimit="10" d="M28.292,8.583h-4.569c-0.416-2.042-2.227-3.583-4.389-3.583
			c-2.163,0-3.974,1.542-4.39,3.583h-4.569c-0.496,0-0.896,0.4-0.896,0.896v5.375c0,0.496,0.4,0.896,0.896,0.896h17.917
			c0.495,0,0.896-0.401,0.896-0.896V9.478C29.188,8.983,28.787,8.583,28.292,8.583z"/>
	</g>
</g>
<g>
	<g>
		<path fill="#DFD021" stroke="#A49A34" stroke-miterlimit="10" d="M48.903,25.229c0.185,0.215,0.097,0.596-0.196,0.841
			l-1.853,1.558c-0.294,0.247-0.679,0.267-0.865,0.048L36.565,16.46c-0.185-0.22-0.096-0.597,0.197-0.842l1.854-1.558
			c0.291-0.247,0.678-0.268,0.862-0.049L48.903,25.229z"/>
		<circle fill="#DFD021" stroke="#A49A34" stroke-miterlimit="10" cx="33.45" cy="10.244" r="9.135"/>
	</g>
	<circle fill="#FFFFFF" stroke="#DFD021" stroke-miterlimit="10" cx="33.45" cy="10.243" r="4.568"/>
</g>
<g>
	<path fill="#010101" d="M24.538,34.146l-8.234,6.994c-0.531,0.453-1.405,0.455-1.94,0l-4.117-3.497
		c-0.537-0.455-0.537-1.192,0-1.648c0.536-0.454,1.404-0.454,1.939,0l3.147,2.672l7.264-6.169c0.536-0.454,1.405-0.454,1.94,0
		C25.074,32.954,25.074,33.693,24.538,34.146z M24.538,21.329l-8.234,6.992c-0.531,0.454-1.405,0.455-1.94,0l-4.117-3.497
		c-0.537-0.454-0.537-1.193,0-1.648c0.536-0.455,1.404-0.455,1.939,0l3.147,2.673l7.264-6.168c0.536-0.455,1.405-0.455,1.94,0
		C25.074,20.136,25.074,20.874,24.538,21.329z"/>
</g>
</svg>
