<?xml version="1.0" encoding="utf-8"?>
<!-- Generator: Adobe Illustrator 15.0.0, SVG Export Plug-In . SVG Version: 6.00 Build 0)  -->
<!DOCTYPE svg PUBLIC "-//W3C//DTD SVG 1.1//EN" "http://www.w3.org/Graphics/SVG/1.1/DTD/svg11.dtd">
<svg version="1.1" id="Layer_1" xmlns="http://www.w3.org/2000/svg" xmlns:xlink="http://www.w3.org/1999/xlink" x="0px" y="0px"
	 width="64px" height="64px" viewBox="0 0 64 64" enable-background="new 0 0 64 64" xml:space="preserve">
<g>
	<path fill="#233A74" d="M55.408,22.587L51.06,11.476c-0.833-2.149-2.635-3.987-6.029-3.987h-6.243H28.153h-6.31
		c-3.397,0-5.2,1.838-6.031,3.987l-4.349,11.111H6.497v15.449h0.047v5.193h4.294v4.584c0,5.649,8.073,5.579,8.073,0v-4.584h14.52
		h0.011h14.524v4.584c0,5.579,8.067,5.649,8.067,0v-4.584h4.296v-5.193v-9.165v-6.284H55.408z M15.006,34.453
		c-2.059,0-3.728-1.705-3.728-3.804c0-2.1,1.668-3.806,3.728-3.806s3.731,1.706,3.731,3.806
		C18.737,32.749,17.067,34.453,15.006,34.453 M33.442,22.493h-0.009h-0.011H15.97l3.327-8.729c0.421-1.247,1.039-2.146,2.494-2.162
		h11.634h0.01h0.009h11.642c1.451,0.013,2.074,0.915,2.491,2.162l3.333,8.729H33.442z M51.866,34.453
		c-2.059,0-3.728-1.705-3.728-3.804c0-2.1,1.669-3.806,3.728-3.806c2.062,0,3.729,1.706,3.729,3.806
		C55.596,32.749,53.928,34.453,51.866,34.453"/>
</g>
</svg>
