<?xml version="1.0" encoding="utf-8"?>
<!-- Generator: Adobe Illustrator 15.0.0, SVG Export Plug-In . SVG Version: 6.00 Build 0)  -->
<!DOCTYPE svg PUBLIC "-//W3C//DTD SVG 1.1//EN" "http://www.w3.org/Graphics/SVG/1.1/DTD/svg11.dtd">
<svg version="1.1" id="Layer_1" xmlns="http://www.w3.org/2000/svg" xmlns:xlink="http://www.w3.org/1999/xlink" x="0px" y="0px"
	 width="256px" height="256px" viewBox="0 0 256 256" enable-background="new 0 0 256 256" xml:space="preserve">
<rect x="7.501" y="8" fill="#FFFFFF" stroke="#231F20" stroke-width="5.1095" width="200.974" height="214.846"/>
<polygon fill="#FFFFFF" stroke="#231F20" stroke-width="5.1095" points="249.475,78 249.475,248.846 48.501,248.846 48.501,34 
	190,34 "/>
<path fill="#B24119" d="M81.821,189.48"/>
<path fill="#B24119" d="M81.815,189.428"/>
<g>
	<path fill="#005596" d="M96.343,113.473c-4.507-9.724-5.398-16.81-2.391-19.818c2.94-2.941,9.904-2.014,19.197,2.202
		c2.766-2.675,5.548-5.288,8.349-7.781c-21.374-10.92-38.716-12.733-47.173-4.289c-3.571,3.568-5.383,8.665-5.383,15.143
		c0,9.71,4.019,21.877,11.179,35.081C85.069,127.024,90.533,120.13,96.343,113.473z"/>
	
		<radialGradient id="SVGID_1_" cx="147.3984" cy="137.5381" r="78.4795" gradientTransform="matrix(0.9961 0 0 0.9961 0.2834 0.2697)" gradientUnits="userSpaceOnUse">
		<stop  offset="0" style="stop-color:#FFFFFF"/>
		<stop  offset="1" style="stop-color:#5E9732"/>
	</radialGradient>
	<path fill="url(#SVGID_1_)" d="M113.14,198.056c-9.283,4.215-16.247,5.154-19.187,2.213c-7.294-7.288,8.227-38.442,42.964-73.184
		c26.313-26.312,54.257-44.689,67.944-44.689c2.344,0,4.107,0.588,5.252,1.724c4.662,4.665-0.396,19.413-12.869,37.572l-0.819,1.178
		l7.838,7.841l1.17-1.739c19.616-29.132,25.182-53.841,14.536-64.484c-3.56-3.564-8.649-5.378-15.128-5.378
		c-21.585-0.005-55.225,19.698-85.715,50.181c-40.834,40.839-60.521,85.143-44.8,100.847c8.457,8.453,25.799,6.62,47.167-4.29
		C118.692,203.345,115.91,200.732,113.14,198.056z"/>
	<path fill="#005596" d="M204.263,163.216l-7.824,7.844l0.813,1.181c12.475,18.167,17.523,32.923,12.861,37.561
		c-1.145,1.146-2.908,1.724-5.252,1.724c-13.68,0.006-41.625-18.37-67.938-44.678c-3.15-3.152-6.149-6.279-8.975-9.361
		c-6.596,8.106-11.415,15.16-14.826,20.946c1.952,2.078,3.952,4.148,6.004,6.202c30.49,30.494,64.13,50.187,85.715,50.187
		c6.479,0,11.568-1.813,15.128-5.384c10.654-10.631,5.08-35.34-14.536-64.477L204.263,163.216z"/>
</g>
<polyline fill="#EAEAEA" stroke="#231F20" stroke-width="5.1095" points="190,34 195,80 249.475,78 "/>
</svg>
