<?xml version="1.0" encoding="utf-8"?>
<!-- Generator: Adobe Illustrator 15.0.0, SVG Export Plug-In . SVG Version: 6.00 Build 0)  -->
<!DOCTYPE svg PUBLIC "-//W3C//DTD SVG 1.1//EN" "http://www.w3.org/Graphics/SVG/1.1/DTD/svg11.dtd">
<svg version="1.1" id="Layer_1" xmlns="http://www.w3.org/2000/svg" xmlns:xlink="http://www.w3.org/1999/xlink" x="0px" y="0px"
	 width="256px" height="256px" viewBox="0 0 256 256" enable-background="new 0 0 256 256" xml:space="preserve">
<path fill="#BBBDBF" d="M251.425,213.194c0,20.969-17,37.967-37.969,37.967H43.23c-20.969,0-37.969-16.998-37.969-37.967V42.968
	C5.262,22,22.262,5,43.23,5h170.226c20.969,0,37.969,17,37.969,37.968V213.194z"/>
<path fill="#FFFFFF" d="M246.1,209.512c0,20.063-16.264,36.325-36.326,36.325H46.913c-20.062,0-36.326-16.263-36.326-36.325V46.651
	c0-20.062,16.264-36.326,36.326-36.326h162.861c20.063,0,36.326,16.264,36.326,36.326V209.512z"/>
<g>
	<path fill="#005596" d="M67.53,87.959c-5.398-11.648-6.468-20.137-2.863-23.74c3.521-3.524,11.863-2.414,22.996,2.637
		c3.313-3.205,6.647-6.334,10.001-9.321c-25.604-13.082-46.378-15.253-56.51-5.138c-4.277,4.274-6.448,10.381-6.448,18.139
		c0,11.633,4.815,26.208,13.392,42.025C54.023,104.193,60.569,95.935,67.53,87.959z"/>
	
		<radialGradient id="SVGID_1_" cx="128.5591" cy="116.6538" r="94.0127" gradientTransform="matrix(0.9961 0 0 0.9961 0.2834 0.2697)" gradientUnits="userSpaceOnUse">
		<stop  offset="0" style="stop-color:#FFFFFF"/>
		<stop  offset="1" style="stop-color:#5E9732"/>
	</radialGradient>
	<path fill="url(#SVGID_1_)" d="M87.651,189.284c-11.121,5.049-19.463,6.174-22.984,2.652c-8.739-8.732,9.854-46.052,51.467-87.671
		c31.522-31.52,64.996-53.535,81.392-53.535c2.808,0,4.922,0.705,6.292,2.065c5.584,5.589-0.473,23.255-15.416,45.009l-0.981,1.41
		l9.389,9.392l1.401-2.082c23.501-34.899,30.167-64.499,17.413-77.248c-4.264-4.271-10.361-6.442-18.122-6.442
		c-25.856-0.007-66.156,23.597-102.681,60.113c-48.916,48.922-72.499,101.994-53.668,120.808c10.132,10.126,30.907,7.93,56.503-5.14
		C94.303,195.62,90.969,192.491,87.651,189.284z"/>
	<path fill="#005596" d="M196.81,147.548l-9.373,9.396l0.975,1.414c14.944,21.764,20.991,39.439,15.407,44.996
		c-1.37,1.371-3.484,2.063-6.292,2.063c-16.387,0.009-49.863-22.006-81.384-53.521c-3.775-3.775-7.367-7.521-10.752-11.213
		c-7.902,9.709-13.675,18.16-17.761,25.09c2.338,2.491,4.735,4.972,7.192,7.432c36.524,36.529,76.824,60.119,102.681,60.119
		c7.761,0,13.858-2.172,18.122-6.448c12.764-12.736,6.088-42.335-17.413-77.238L196.81,147.548z"/>
</g>
</svg>
