<?xml version="1.0" encoding="utf-8"?>
<!-- Generator: Adobe Illustrator 15.0.0, SVG Export Plug-In . SVG Version: 6.00 Build 0)  -->
<!DOCTYPE svg PUBLIC "-//W3C//DTD SVG 1.1//EN" "http://www.w3.org/Graphics/SVG/1.1/DTD/svg11.dtd">
<svg version="1.1" id="Layer_1" xmlns="http://www.w3.org/2000/svg" xmlns:xlink="http://www.w3.org/1999/xlink" x="0px" y="0px"
	 width="48px" height="48px" viewBox="0 0 48 48" enable-background="new 0 0 48 48" xml:space="preserve">
<g>
	<ellipse fill="#FFFFFF" cx="24" cy="24" rx="19.167" ry="17.5"/>
	<radialGradient id="SVGID_1_" cx="24.4185" cy="23.9995" r="22.9995" gradientUnits="userSpaceOnUse">
		<stop  offset="0" style="stop-color:#FFFFFF"/>
		<stop  offset="0.2121" style="stop-color:#CCECFA"/>
		<stop  offset="0.4814" style="stop-color:#93D7F3"/>
		<stop  offset="0.7121" style="stop-color:#68C7EF"/>
		<stop  offset="0.8924" style="stop-color:#4FBEEC"/>
		<stop  offset="1" style="stop-color:#45BAEB"/>
	</radialGradient>
	<path fill="url(#SVGID_1_)" stroke="#000000" stroke-width="0.5" stroke-miterlimit="10" d="M24.419,1c-12.684,0-23,10.319-23,23
		c0,12.682,10.316,23,23,23c12.682,0,22.999-10.317,22.999-23C47.418,11.319,37.101,1,24.419,1z M39.738,28.791
		c0,0.253-0.101,0.498-0.281,0.678c-0.18,0.18-0.423,0.28-0.677,0.28H24.419v8.613c0,0.387-0.232,0.738-0.592,0.884
		c-0.119,0.051-0.244,0.075-0.367,0.075c-0.247,0-0.494-0.097-0.676-0.28L8.423,24.677c-0.375-0.375-0.375-0.981,0-1.355
		L22.784,8.96c0.273-0.275,0.685-0.355,1.043-0.208c0.359,0.15,0.592,0.498,0.592,0.885v8.618l14.361,0.005
		c0.529,0,0.958,0.429,0.958,0.958V28.791z"/>
</g>
</svg>
