<?xml version="1.0" encoding="utf-8"?>
<!-- Generator: Adobe Illustrator 15.0.0, SVG Export Plug-In . SVG Version: 6.00 Build 0)  -->
<!DOCTYPE svg PUBLIC "-//W3C//DTD SVG 1.1//EN" "http://www.w3.org/Graphics/SVG/1.1/DTD/svg11.dtd">
<svg version="1.1" id="Layer_1" xmlns="http://www.w3.org/2000/svg" xmlns:xlink="http://www.w3.org/1999/xlink" x="0px" y="0px"
	 width="64px" height="64px" viewBox="0 0 64 64" enable-background="new 0 0 64 64" xml:space="preserve">
<g>
	<rect x="32.859" y="41.239" fill="#233A74" width="9.38" height="7.035"/>
	<rect x="21.134" y="41.239" fill="#233A74" width="9.38" height="7.035"/>
	<rect x="32.859" y="31.859" fill="#233A74" width="9.38" height="7.035"/>
	<rect x="21.134" y="31.859" fill="#233A74" width="9.38" height="7.035"/>
	<path fill="#233A74" d="M4.719,58.827C4.719,59.476,5.245,60,5.891,60h53.936C60.474,60,61,59.476,61,58.827V22.479H4.719V58.827z
		 M10.582,41.239c-0.646,0-1.173-0.524-1.173-1.172c0-0.648,0.527-1.173,1.173-1.173h8.208v-7.035h-8.208
		c-0.646,0-1.173-0.524-1.173-1.172c0-0.649,0.527-1.173,1.173-1.173h8.208v-3.518c0-0.648,0.526-1.172,1.172-1.172
		s1.173,0.524,1.173,1.172v3.518h9.38v-3.518c0-0.648,0.527-1.172,1.173-1.172s1.172,0.524,1.172,1.172v3.518h9.38v-3.518
		c0-0.648,0.526-1.172,1.173-1.172s1.173,0.524,1.173,1.172v3.518h10.553c0.646,0,1.172,0.524,1.172,1.173
		c0,0.648-0.526,1.172-1.172,1.172H44.585v7.035h10.553c0.646,0,1.172,0.524,1.172,1.173c0,0.647-0.526,1.172-1.172,1.172H44.585
		v7.035h10.553c0.646,0,1.172,0.524,1.172,1.173s-0.526,1.173-1.172,1.173H44.585v3.518c0,0.647-0.526,1.172-1.173,1.172
		s-1.173-0.524-1.173-1.172V50.62h-9.38v3.518c0,0.647-0.526,1.172-1.172,1.172s-1.173-0.524-1.173-1.172V50.62h-9.38v3.518
		c0,0.647-0.527,1.172-1.173,1.172s-1.172-0.524-1.172-1.172V50.62h-8.208c-0.646,0-1.173-0.524-1.173-1.173
		s0.527-1.173,1.173-1.173h8.208v-7.035H10.582z"/>
	<path fill="#233A74" d="M59.827,8.409H51.62V4.891c0-0.648-0.526-1.172-1.173-1.172h-7.035c-0.646,0-1.173,0.524-1.173,1.172v3.518
		h-18.76V4.891c0-0.648-0.526-1.172-1.172-1.172h-7.035c-0.646,0-1.172,0.524-1.172,1.172v3.518H5.891
		c-0.646,0-1.172,0.524-1.172,1.173v10.553H61V9.582C61,8.933,60.474,8.409,59.827,8.409z M21.134,13.099h-4.69V6.064h4.69V13.099z
		 M49.274,13.099h-4.689V6.064h4.689V13.099z"/>
</g>
</svg>
