<?xml version="1.0" encoding="utf-8"?>
<!-- Generator: Adobe Illustrator 15.0.0, SVG Export Plug-In . SVG Version: 6.00 Build 0)  -->
<!DOCTYPE svg PUBLIC "-//W3C//DTD SVG 1.1//EN" "http://www.w3.org/Graphics/SVG/1.1/DTD/svg11.dtd">
<svg version="1.1" id="Layer_1" xmlns="http://www.w3.org/2000/svg" xmlns:xlink="http://www.w3.org/1999/xlink" x="0px" y="0px"
	 width="30px" height="30px" viewBox="0 0 30 30" enable-background="new 0 0 30 30" xml:space="preserve">
<path fill="#3E5172" d="M28.749,8.112h-8.063c0.373-0.252,0.628-0.711,0.628-1.241V3.325c0-0.799-0.572-1.448-1.277-1.448H9.961
	c-0.705,0-1.275,0.649-1.275,1.448v3.547c0,0.53,0.254,0.988,0.628,1.241H1.25C0.56,8.112,0,8.607,0,9.218v17.33
	c0,0.609,0.56,1.105,1.25,1.105h27.5c0.691,0,1.25-0.496,1.25-1.105V9.217C29.999,8.607,29.441,8.112,28.749,8.112z M10.048,3.689
	h9.813v4.423h-9.813V3.689z"/>
</svg>
