<?xml version="1.0" encoding="utf-8"?>
<!-- Generator: Adobe Illustrator 15.0.0, SVG Export Plug-In . SVG Version: 6.00 Build 0)  -->
<!DOCTYPE svg PUBLIC "-//W3C//DTD SVG 1.1//EN" "http://www.w3.org/Graphics/SVG/1.1/DTD/svg11.dtd">
<svg version="1.1" id="Layer_1" xmlns="http://www.w3.org/2000/svg" xmlns:xlink="http://www.w3.org/1999/xlink" x="0px" y="0px"
	 width="48px" height="48px" viewBox="0 0 48 48" enable-background="new 0 0 48 48" xml:space="preserve">
<rect x="12.125" y="18" fill="#FFFFFF" stroke="#FFFFFF" stroke-width="0.75" stroke-miterlimit="10" width="23.75" height="26.5"/>
<path fill="#FFFFFF" d="M35.402,40.834c0,2.024-1.533,3.666-3.423,3.666H12.818c-1.891,0-3.423-1.642-3.423-3.666V22.667
	c0-2.025,1.533-3.667,3.423-3.667h19.161c1.89,0,3.423,1.642,3.423,3.667V40.834z"/>
<rect x="9.395" y="3.927" fill="#FFFFFF" width="27.855" height="13.073"/>
<linearGradient id="SVGID_1_" gradientUnits="userSpaceOnUse" x1="-25.4658" y1="-2.9395" x2="61.8677" y2="45.0605">
	<stop  offset="0.0242" style="stop-color:#FFFFFF"/>
	<stop  offset="0.1021" style="stop-color:#E6F1EB"/>
	<stop  offset="0.3538" style="stop-color:#99C6AD"/>
	<stop  offset="0.5784" style="stop-color:#5CA37D"/>
	<stop  offset="0.7675" style="stop-color:#308B5A"/>
	<stop  offset="0.914" style="stop-color:#157C44"/>
	<stop  offset="1" style="stop-color:#0B763C"/>
</linearGradient>
<path fill="url(#SVGID_1_)" stroke="#FFFFFF" stroke-width="0.75" stroke-miterlimit="10" d="M36.33,1.008H10.783
	c-1.509,0-2.737,1.288-2.737,2.875v40.242c0,1.586,1.228,2.875,2.737,2.875H36.33c1.509,0,2.736-1.289,2.736-2.875V3.883
	C39.066,2.296,37.839,1.008,36.33,1.008z M16.256,41.252h-1.824c-0.504,0-0.913-0.431-0.913-0.958c0-0.531,0.409-0.958,0.913-0.958
	h1.824c0.505,0,0.913,0.427,0.913,0.958C17.169,40.821,16.761,41.252,16.256,41.252z M16.256,35.503h-1.824
	c-0.504,0-0.913-0.432-0.913-0.958c0-0.531,0.409-0.959,0.913-0.959h1.824c0.505,0,0.913,0.428,0.913,0.959
	C17.169,35.071,16.761,35.503,16.256,35.503z M16.256,29.753h-1.824c-0.504,0-0.913-0.43-0.913-0.958
	c0-0.529,0.409-0.959,0.913-0.959h1.824c0.505,0,0.913,0.43,0.913,0.959C17.169,29.323,16.761,29.753,16.256,29.753z M16.256,24.004
	h-1.824c-0.504,0-0.913-0.431-0.913-0.958c0-0.529,0.409-0.958,0.913-0.958h1.824c0.505,0,0.913,0.429,0.913,0.958
	C17.169,23.573,16.761,24.004,16.256,24.004z M21.731,41.252h-1.824c-0.504,0-0.912-0.431-0.912-0.958
	c0-0.531,0.408-0.958,0.912-0.958h1.824c0.504,0,0.913,0.427,0.913,0.958C22.644,40.821,22.235,41.252,21.731,41.252z
	 M21.731,35.503h-1.824c-0.504,0-0.912-0.432-0.912-0.958c0-0.531,0.408-0.959,0.912-0.959h1.824c0.504,0,0.913,0.428,0.913,0.959
	C22.644,35.071,22.235,35.503,21.731,35.503z M21.731,29.753h-1.824c-0.504,0-0.912-0.43-0.912-0.958
	c0-0.529,0.408-0.959,0.912-0.959h1.824c0.504,0,0.913,0.43,0.913,0.959C22.644,29.323,22.235,29.753,21.731,29.753z M21.731,24.004
	h-1.824c-0.504,0-0.912-0.431-0.912-0.958c0-0.529,0.408-0.958,0.912-0.958h1.824c0.504,0,0.913,0.429,0.913,0.958
	C22.644,23.573,22.235,24.004,21.731,24.004z M32.679,41.252H25.38c-0.503,0-0.911-0.431-0.911-0.958
	c0-0.531,0.408-0.958,0.911-0.958h7.299c0.506,0,0.912,0.427,0.912,0.958C33.591,40.821,33.185,41.252,32.679,41.252z M25.38,27.836
	h1.826c0.504,0,0.913,0.43,0.913,0.959c0,0.528-0.409,0.958-0.913,0.958H25.38c-0.503,0-0.911-0.43-0.911-0.958
	C24.469,28.266,24.876,27.836,25.38,27.836z M24.469,23.046c0-0.529,0.408-0.958,0.911-0.958h1.826c0.504,0,0.913,0.429,0.913,0.958
	c0,0.527-0.409,0.958-0.913,0.958H25.38C24.876,24.004,24.469,23.573,24.469,23.046z M25.38,33.586h1.826
	c0.504,0,0.913,0.428,0.913,0.959c0,0.526-0.409,0.958-0.913,0.958H25.38c-0.503,0-0.911-0.432-0.911-0.958
	C24.469,34.014,24.876,33.586,25.38,33.586z M32.679,35.503h-1.824c-0.503,0-0.912-0.432-0.912-0.958
	c0-0.531,0.409-0.959,0.912-0.959h1.824c0.506,0,0.912,0.428,0.912,0.959C33.591,35.071,33.185,35.503,32.679,35.503z
	 M32.679,29.753h-1.824c-0.503,0-0.912-0.43-0.912-0.958c0-0.529,0.409-0.959,0.912-0.959h1.824c0.506,0,0.912,0.43,0.912,0.959
	C33.591,29.323,33.185,29.753,32.679,29.753z M32.679,24.004h-1.824c-0.503,0-0.912-0.431-0.912-0.958
	c0-0.529,0.409-0.958,0.912-0.958h1.824c0.506,0,0.912,0.429,0.912,0.958C33.591,23.573,33.185,24.004,32.679,24.004z M35.415,15.38
	c0,0.528-0.406,0.958-0.911,0.958H12.607c-0.504,0-0.912-0.43-0.912-0.958V5.799c0-0.53,0.408-0.958,0.912-0.958h21.896
	c0.505,0,0.911,0.428,0.911,0.958V15.38z"/>
<text transform="matrix(1 0 0 1 29 12.4438)" font-family="'MyriadPro-Regular'" font-size="9">0</text>
</svg>
