<?xml version="1.0" encoding="utf-8"?>
<!-- Generator: Adobe Illustrator 15.0.0, SVG Export Plug-In . SVG Version: 6.00 Build 0)  -->
<!DOCTYPE svg PUBLIC "-//W3C//DTD SVG 1.1//EN" "http://www.w3.org/Graphics/SVG/1.1/DTD/svg11.dtd">
<svg version="1.1" id="Layer_1" xmlns="http://www.w3.org/2000/svg" xmlns:xlink="http://www.w3.org/1999/xlink" x="0px" y="0px"
	 width="48px" height="48px" viewBox="0 0 48 48" enable-background="new 0 0 48 48" xml:space="preserve">
<rect x="2" y="17.355" fill="#FFFEF5" width="44" height="28.645"/>
<rect x="32.334" y="3.878" fill="#999999" width="5.199" height="7.077"/>
<rect x="9.634" y="3" fill="#999999" width="5.2" height="7.078"/>
<polygon fill="#FFFFFF" points="-307,133.5 -307.534,134.308 -308.067,135.116 -308.5,134.25 -308.933,133.384 -307.966,133.442 "/>
<g>
	<rect x="24" y="31.333" fill="#494949" width="7.334" height="5.5"/>
	<rect x="14.833" y="31.333" fill="none" stroke="#010101" stroke-miterlimit="10" width="7.333" height="5.5"/>
	<rect x="24" y="24" fill="none" stroke="#010101" stroke-miterlimit="10" width="7.334" height="5.5"/>
	<rect x="14.833" y="24" fill="none" stroke="#010101" stroke-miterlimit="10" width="7.333" height="5.5"/>
	<path fill="none" stroke="#010101" stroke-miterlimit="10" d="M2,45.083C2,45.59,2.411,46,2.917,46h42.167
		C45.589,46,46,45.59,46,45.083V16.666H2V45.083z M6.583,31.333c-0.506,0-0.917-0.41-0.917-0.917c0-0.506,0.411-0.916,0.917-0.916
		H13V24H6.583c-0.506,0-0.917-0.41-0.917-0.917s0.411-0.917,0.917-0.917H13v-2.75c0-0.506,0.411-0.916,0.917-0.916
		c0.505,0,0.917,0.41,0.917,0.916v2.75h7.333v-2.75c0-0.506,0.411-0.916,0.917-0.916c0.505,0,0.916,0.41,0.916,0.916v2.75h7.334
		v-2.75c0-0.506,0.411-0.916,0.916-0.916s0.917,0.41,0.917,0.916v2.75h8.25c0.505,0,0.917,0.41,0.917,0.917S41.922,24,41.417,24
		h-8.25v5.5h8.25c0.505,0,0.917,0.41,0.917,0.916c0,0.507-0.412,0.917-0.917,0.917h-8.25v5.5h8.25c0.505,0,0.917,0.41,0.917,0.917
		s-0.412,0.917-0.917,0.917h-8.25v2.75c0,0.506-0.412,0.916-0.917,0.916s-0.916-0.41-0.916-0.916v-2.75H24v2.75
		c0,0.506-0.411,0.916-0.916,0.916c-0.506,0-0.917-0.41-0.917-0.916v-2.75h-7.333v2.75c0,0.506-0.411,0.916-0.917,0.916
		c-0.506,0-0.917-0.41-0.917-0.916v-2.75H6.583c-0.506,0-0.917-0.41-0.917-0.917s0.411-0.917,0.917-0.917H13v-5.5H6.583z"/>
	<path fill="#494949" d="M45.084,5.666h-6.417v-2.75C38.667,2.41,38.255,2,37.75,2h-5.5c-0.505,0-0.916,0.41-0.916,0.917v2.75
		H16.667v-2.75C16.667,2.41,16.256,2,15.75,2h-5.5C9.744,2,9.333,2.41,9.333,2.916v2.75H2.917C2.411,5.666,2,6.076,2,6.583v8.25h44
		v-8.25C46,6.076,45.589,5.666,45.084,5.666z M14.833,9.333h-3.667v-5.5h3.667V9.333z M36.834,9.333h-3.667v-5.5h3.667V9.333z"/>
</g>
<rect x="-315.4" y="-113.4" fill="#999999" width="0.8" height="0.4"/>
</svg>
