<?xml version="1.0" encoding="utf-8"?>
<!-- Generator: Adobe Illustrator 15.0.0, SVG Export Plug-In . SVG Version: 6.00 Build 0)  -->
<!DOCTYPE svg PUBLIC "-//W3C//DTD SVG 1.1//EN" "http://www.w3.org/Graphics/SVG/1.1/DTD/svg11.dtd">
<svg version="1.1" id="Layer_1" xmlns="http://www.w3.org/2000/svg" xmlns:xlink="http://www.w3.org/1999/xlink" x="0px" y="0px"
	 width="64px" height="64px" viewBox="0 0 64 64" enable-background="new 0 0 64 64" xml:space="preserve">
<g>
	<path fill="#233A74" d="M50.96,23.183v8.958c-5.261,3.019-8.811,7.63-8.811,14.068v7.147v2.178h12.139
		c1.156,0,2.093-0.932,2.093-2.092v-0.086V23.183H50.96z"/>
	<path fill="#233A74" d="M47.992,31.146v-7.963h-9.601v-3.629h9.121c2.094,0,3.792-1.697,3.792-3.792V9.014
		c0-2.091-1.698-3.796-3.792-3.796H23.808c-2.093,0-3.796,1.705-3.796,3.796v6.749c0,2.094,1.703,3.792,3.796,3.792h9.12v3.629
		H15.177v7.963c-5.261,3.021-8.811,8.628-8.811,15.063v7.147v0.086c0,1.159,0.937,2.092,2.093,2.092h30.719v-2.178v-7.147
		C39.181,39.771,42.729,34.168,47.992,31.146z M25.382,15.832c-0.324,0-0.586-0.262-0.586-0.587V9.533
		c0-0.324,0.265-0.586,0.586-0.586h20.556c0.326,0,0.587,0.266,0.587,0.586v5.712c0,0.328-0.263,0.587-0.587,0.587H25.382z
		 M15.654,51.672c-1.352,0-2.45-1.104-2.45-2.453c0-1.357,1.099-2.453,2.45-2.453c1.355,0,2.453,1.096,2.453,2.453
		C18.107,50.571,17.012,51.672,15.654,51.672z M15.654,44.799c-1.352,0-2.45-1.098-2.45-2.447c0-1.354,1.099-2.453,2.45-2.453
		c1.355,0,2.453,1.099,2.453,2.453C18.107,43.703,17.012,44.799,15.654,44.799z M18.509,38.453c-1.355,0-2.453-1.098-2.453-2.453
		c0-1.351,1.098-2.447,2.453-2.447c1.353,0,2.451,1.097,2.451,2.447C20.96,37.358,19.862,38.453,18.509,38.453z M23.175,51.672
		c-1.355,0-2.45-1.104-2.45-2.453c0-1.357,1.095-2.453,2.45-2.453c1.354,0,2.453,1.096,2.453,2.453
		C25.628,50.571,24.529,51.672,23.175,51.672z M23.175,44.799c-1.355,0-2.45-1.098-2.45-2.447c0-1.354,1.095-2.453,2.45-2.453
		c1.354,0,2.453,1.099,2.453,2.453C25.628,43.703,24.529,44.799,23.175,44.799z M26.027,38.453c-1.354,0-2.453-1.098-2.453-2.453
		c0-1.351,1.1-2.447,2.453-2.447c1.354,0,2.453,1.097,2.453,2.447C28.48,37.358,27.385,38.453,26.027,38.453z M30.695,51.672
		c-1.354,0-2.453-1.104-2.453-2.453c0-1.357,1.1-2.453,2.453-2.453c1.357,0,2.452,1.096,2.452,2.453
		C33.147,50.571,32.053,51.672,30.695,51.672z M30.695,44.799c-1.354,0-2.453-1.098-2.453-2.447c0-1.354,1.1-2.453,2.453-2.453
		c1.357,0,2.452,1.099,2.452,2.453C33.147,43.703,32.053,44.799,30.695,44.799z M33.549,38.453c-1.354,0-2.452-1.098-2.452-2.453
		c0-1.351,1.099-2.447,2.452-2.447C34.901,33.553,36,34.649,36,36C36,37.358,34.902,38.453,33.549,38.453z"/>
</g>
</svg>
