<?xml version="1.0" encoding="utf-8"?>
<!-- Generator: Adobe Illustrator 15.0.0, SVG Export Plug-In . SVG Version: 6.00 Build 0)  -->
<!DOCTYPE svg PUBLIC "-//W3C//DTD SVG 1.1//EN" "http://www.w3.org/Graphics/SVG/1.1/DTD/svg11.dtd">
<svg version="1.1" id="Layer_1" xmlns="http://www.w3.org/2000/svg" xmlns:xlink="http://www.w3.org/1999/xlink" x="0px" y="0px"
	 width="48px" height="48px" viewBox="0 0 48 48" enable-background="new 0 0 48 48" xml:space="preserve">
<g>
	<path fill="#010101" d="M9.593,24.258c0.19,3.081,1.747,4.531,2.593,5.096v3.247c-0.737,0.273-1.492,0.543-2.24,0.813
		c-4.487,1.605-8.362,2.992-9.077,5.152C0.009,41.157,0,46.889,0,47.13C0,47.611,0.391,48,0.87,48h31.335
		c0.479,0,0.869-0.389,0.869-0.87c0-0.241-0.009-5.973-0.867-8.564c-0.72-2.159-4.315-3.448-8.87-5.079
		c-0.796-0.284-1.618-0.578-2.447-0.886v-3.246c0.846-0.565,2.403-2.016,2.592-5.096c0.637-0.4,1.038-1.265,1.038-2.37
		c0-0.971-0.309-1.756-0.819-2.204c0.425-1.106,1.122-3.043,0.644-4.968c-0.577-2.324-3.863-3.149-6.501-3.149
		c-2.336,0-5.181,0.648-6.203,2.409c-1.218-0.069-1.895,0.453-2.222,0.89c-0.904,1.201-0.483,3.085,0.003,4.778
		c-0.573,0.434-0.924,1.256-0.924,2.275C8.496,23.039,8.92,23.864,9.593,24.258z"/>
</g>
<g>
	<g>
		<path fill="#DFD021" stroke="#A49A34" stroke-miterlimit="10" d="M47.885,29.635c0.22,0.256,0.115,0.707-0.232,0.998l-2.199,1.85
			c-0.349,0.293-0.807,0.316-1.026,0.057L33.239,19.226c-0.219-0.26-0.113-0.708,0.234-1l2.2-1.849
			c0.347-0.293,0.805-0.318,1.024-0.058L47.885,29.635z"/>
		<circle fill="#DFD021" stroke="#A49A34" stroke-miterlimit="10" cx="29.54" cy="11.846" r="10.845"/>
	</g>
	<path fill="#FFFFFF" stroke="#DFD021" stroke-miterlimit="10" d="M34.841,10.701c0.631,2.93-1.231,5.815-4.156,6.444
		c-2.929,0.631-5.812-1.228-6.445-4.155c-0.63-2.927,1.231-5.813,4.157-6.443C31.326,5.915,34.21,7.776,34.841,10.701z"/>
</g>
</svg>
