<?xml version="1.0" encoding="utf-8"?>
<!-- Generator: Adobe Illustrator 15.0.0, SVG Export Plug-In . SVG Version: 6.00 Build 0)  -->
<!DOCTYPE svg PUBLIC "-//W3C//DTD SVG 1.1//EN" "http://www.w3.org/Graphics/SVG/1.1/DTD/svg11.dtd">
<svg version="1.1" id="Layer_1" xmlns="http://www.w3.org/2000/svg" xmlns:xlink="http://www.w3.org/1999/xlink" x="0px" y="0px"
	 width="64px" height="64px" viewBox="0 0 64 64" enable-background="new 0 0 64 64" xml:space="preserve">
<g>
	<path fill="#233A74" d="M6.833,56.237h36.082c2.613,0,4.729-2.12,4.729-4.734V39.549l-7.884,5.249v3.551H9.987V18.583h29.772v7.824
		l7.884-5.48v-5.508c0-2.615-2.115-4.734-4.729-4.734H6.833c-2.61,0-4.729,2.12-4.729,4.734v36.074
		C2.104,54.117,4.222,56.237,6.833,56.237z"/>
	<path fill="#233A74" d="M27.883,32.951l-3.927-4.837c-0.49-0.451-1.087-0.715-1.725-0.8c-0.191-0.023-0.382-0.033-0.576-0.019
		c-0.854,0.044-1.626,0.412-2.202,1.044c-0.874,0.957-1.065,2.38-0.479,3.546c0.165,0.354,0.422,0.677,0.702,0.947l4.753,5.667
		l4.135,4.94l0.062,0.087c0.509,0.677,1.299,1.144,2.157,1.257c0.308,0.043,0.609,0.034,0.946-0.03
		c0.368-0.054,0.771-0.186,1.133-0.401L61.2,22.84c1.57-0.775,2.212-2.678,1.429-4.253c-0.475-0.957-1.391-1.614-2.456-1.742
		c-0.618-0.078-1.247,0.025-1.81,0.309L31.039,36.855L27.883,32.951z"/>
</g>
</svg>
