<?xml version="1.0" encoding="utf-8"?>
<!-- Generator: Adobe Illustrator 15.0.0, SVG Export Plug-In . SVG Version: 6.00 Build 0)  -->
<!DOCTYPE svg PUBLIC "-//W3C//DTD SVG 1.1//EN" "http://www.w3.org/Graphics/SVG/1.1/DTD/svg11.dtd">
<svg version="1.1" id="Layer_1" xmlns="http://www.w3.org/2000/svg" xmlns:xlink="http://www.w3.org/1999/xlink" x="0px" y="0px"
	 width="48px" height="48px" viewBox="0 0 48 48" enable-background="new 0 0 48 48" xml:space="preserve">
<polygon fill="#FFFFFF" points="-307,133.5 -307.534,134.308 -308.067,135.116 -308.5,134.25 -308.933,133.384 -307.966,133.442 "/>
<rect x="-315.4" y="-113.4" fill="#999999" width="0.8" height="0.4"/>
<g>
	<g>
		<linearGradient id="SVGID_1_" gradientUnits="userSpaceOnUse" x1="19.0415" y1="5.6392" x2="28.8276" y2="15.4848">
			<stop  offset="0" style="stop-color:#FFFFFF"/>
			<stop  offset="0.3757" style="stop-color:#FDFEFE"/>
			<stop  offset="0.5223" style="stop-color:#F6F9FC"/>
			<stop  offset="0.6289" style="stop-color:#EAF1F9"/>
			<stop  offset="0.7161" style="stop-color:#D9E6F3"/>
			<stop  offset="0.7914" style="stop-color:#C2D8ED"/>
			<stop  offset="0.8586" style="stop-color:#A6C6E4"/>
			<stop  offset="0.9196" style="stop-color:#85B0DA"/>
			<stop  offset="0.9743" style="stop-color:#6098CF"/>
			<stop  offset="1" style="stop-color:#4C8BC9"/>
		</linearGradient>
		<polygon fill="url(#SVGID_1_)" points="32.251,12.082 25.472,15.121 21.392,14.85 19.45,10.769 21.756,2.941 26.229,7.73 		"/>
		<linearGradient id="SVGID_2_" gradientUnits="userSpaceOnUse" x1="-28.3979" y1="-22.667" x2="53.8997" y2="60.1318">
			<stop  offset="0" style="stop-color:#FFFFFF"/>
			<stop  offset="0.3757" style="stop-color:#FDFEFE"/>
			<stop  offset="0.5223" style="stop-color:#F6F9FC"/>
			<stop  offset="0.6289" style="stop-color:#EAF1F9"/>
			<stop  offset="0.7161" style="stop-color:#D9E6F3"/>
			<stop  offset="0.7914" style="stop-color:#C2D8ED"/>
			<stop  offset="0.8586" style="stop-color:#A6C6E4"/>
			<stop  offset="0.9196" style="stop-color:#85B0DA"/>
			<stop  offset="0.9743" style="stop-color:#6098CF"/>
			<stop  offset="1" style="stop-color:#4C8BC9"/>
		</linearGradient>
		<path fill="url(#SVGID_2_)" stroke="#233A74" stroke-miterlimit="10" d="M32.258,11.144l-9.194-9.193
			c-0.144-0.144-0.338-0.224-0.542-0.224H5.668c-0.423,0-0.766,0.343-0.766,0.766v35.241c0,0.423,0.343,0.767,0.766,0.767h26.048
			c0.424,0,0.766-0.344,0.766-0.767V11.686C32.481,11.482,32.401,11.288,32.258,11.144z M22.522,12.452
			c-0.424,0-0.766-0.342-0.766-0.766c0-0.919,0-7.83,0-8.745l9.51,9.51C29.439,12.452,24.311,12.452,22.522,12.452z"/>
	</g>
	<line fill="none" stroke="#2777BD" stroke-width="2" stroke-miterlimit="10" x1="9.44" y1="15.434" x2="27.444" y2="15.434"/>
	<line fill="none" stroke="#2777BD" stroke-width="2" stroke-miterlimit="10" x1="9.44" y1="31.022" x2="27.444" y2="31.022"/>
	<line fill="none" stroke="#2777BD" stroke-width="2" stroke-miterlimit="10" x1="9.44" y1="25.826" x2="27.444" y2="25.826"/>
	<line fill="none" stroke="#2777BD" stroke-width="2" stroke-miterlimit="10" x1="9.44" y1="20.63" x2="27.444" y2="20.63"/>
</g>
<g>
	<g>
		<linearGradient id="SVGID_3_" gradientUnits="userSpaceOnUse" x1="34.5605" y1="14.1392" x2="44.3466" y2="23.9848">
			<stop  offset="0" style="stop-color:#FFFFFF"/>
			<stop  offset="0.3757" style="stop-color:#FDFEFE"/>
			<stop  offset="0.5223" style="stop-color:#F6F9FC"/>
			<stop  offset="0.6289" style="stop-color:#EAF1F9"/>
			<stop  offset="0.7161" style="stop-color:#D9E6F3"/>
			<stop  offset="0.7914" style="stop-color:#C2D8ED"/>
			<stop  offset="0.8586" style="stop-color:#A6C6E4"/>
			<stop  offset="0.9196" style="stop-color:#85B0DA"/>
			<stop  offset="0.9743" style="stop-color:#6098CF"/>
			<stop  offset="1" style="stop-color:#4C8BC9"/>
		</linearGradient>
		<polygon fill="url(#SVGID_3_)" points="47.77,20.582 40.99,23.621 36.91,23.35 34.969,19.27 37.274,11.441 41.748,16.23 		"/>
		<linearGradient id="SVGID_4_" gradientUnits="userSpaceOnUse" x1="-12.8794" y1="-14.1665" x2="69.4183" y2="68.6323">
			<stop  offset="0" style="stop-color:#FFFFFF"/>
			<stop  offset="0.3757" style="stop-color:#FDFEFE"/>
			<stop  offset="0.5223" style="stop-color:#F6F9FC"/>
			<stop  offset="0.6289" style="stop-color:#EAF1F9"/>
			<stop  offset="0.7161" style="stop-color:#D9E6F3"/>
			<stop  offset="0.7914" style="stop-color:#C2D8ED"/>
			<stop  offset="0.8586" style="stop-color:#A6C6E4"/>
			<stop  offset="0.9196" style="stop-color:#85B0DA"/>
			<stop  offset="0.9743" style="stop-color:#6098CF"/>
			<stop  offset="1" style="stop-color:#4C8BC9"/>
		</linearGradient>
		<path fill="url(#SVGID_4_)" stroke="#233A74" stroke-miterlimit="10" d="M47.776,19.645l-9.193-9.193
			c-0.145-0.145-0.339-0.225-0.542-0.225H21.187c-0.423,0-0.766,0.343-0.766,0.766v35.241c0,0.423,0.343,0.767,0.766,0.767h26.048
			C47.658,47,48,46.656,48,46.233V20.186C48,19.982,47.92,19.788,47.776,19.645z M38.041,20.951c-0.424,0-0.767-0.342-0.767-0.766
			c0-0.918,0-7.829,0-8.744l9.511,9.51C44.958,20.951,39.829,20.951,38.041,20.951z"/>
	</g>
	<line fill="none" stroke="#2777BD" stroke-width="2" stroke-miterlimit="10" x1="24.959" y1="23.934" x2="42.963" y2="23.934"/>
	<line fill="none" stroke="#2777BD" stroke-width="2" stroke-miterlimit="10" x1="24.959" y1="39.522" x2="42.963" y2="39.522"/>
	<line fill="none" stroke="#2777BD" stroke-width="2" stroke-miterlimit="10" x1="24.959" y1="34.326" x2="42.963" y2="34.326"/>
	<line fill="none" stroke="#2777BD" stroke-width="2" stroke-miterlimit="10" x1="24.959" y1="29.13" x2="42.963" y2="29.13"/>
</g>
</svg>
