<?xml version="1.0" encoding="utf-8"?>
<!-- Generator: Adobe Illustrator 15.0.0, SVG Export Plug-In . SVG Version: 6.00 Build 0)  -->
<!DOCTYPE svg PUBLIC "-//W3C//DTD SVG 1.1//EN" "http://www.w3.org/Graphics/SVG/1.1/DTD/svg11.dtd">
<svg version="1.1" id="Layer_1" xmlns="http://www.w3.org/2000/svg" xmlns:xlink="http://www.w3.org/1999/xlink" x="0px" y="0px"
	 width="64px" height="64px" viewBox="0 0 64 64" enable-background="new 0 0 64 64" xml:space="preserve">
<g>
	<path fill="#233A74" d="M13.112,21.754V5.712c0-0.742-0.598-1.337-1.337-1.337H3.754c-0.739,0-1.337,0.595-1.337,1.337v16.042
		c0,0.737,0.598,1.337,1.337,1.337h8.021C12.515,23.091,13.112,22.491,13.112,21.754z M10.438,11.059
		c0,0.737-0.598,1.337-1.337,1.337c-0.739,0-1.337-0.601-1.337-1.337c0-0.741,0.598-1.337,1.337-1.337
		C9.84,9.722,10.438,10.318,10.438,11.059z"/>
	<path fill="#233A74" d="M38.513,15.07c-0.13,0-2.158,0-2.158,0s-4.978,5.347-11.21,5.347h-8.021c-0.738,0-1.336-0.6-1.336-1.337
		V8.386c0-0.742,0.598-1.337,1.336-1.337h41.444c0.739,0,1.336,0.595,1.336,1.337C59.902,12.882,52.906,15.07,38.513,15.07z"/>
</g>
<g>
	<path fill="#233A74" d="M62.081,53.476H19.833c-0.507,0-0.918,0.413-0.918,0.918c0,0.51,0.411,0.919,0.918,0.919h1.457l3.404,3.405
		c0.172,0.176,0.406,0.27,0.65,0.258h31.227c0.243,0.012,0.477-0.082,0.649-0.258l3.405-3.405h1.455
		c0.508,0,0.919-0.409,0.919-0.919C63,53.889,62.589,53.476,62.081,53.476z"/>
	<path fill="#233A74" d="M24.426,51.629h33.063c0.008,0.003,0.015,0.003,0.019,0c0.508,0,0.918-0.41,0.918-0.919
		c0-7.811-6.225-13.908-14.47-15.33c0.422-0.598,0.675-1.322,0.675-2.11c0-2.023-1.648-3.673-3.673-3.673
		c-2.027,0-3.674,1.65-3.674,3.673c0,0.788,0.253,1.513,0.674,2.114c-8.086,1.393-14.451,7.333-14.451,15.326
		C23.507,51.219,23.918,51.629,24.426,51.629z M40.958,31.433c1.011,0,1.836,0.825,1.836,1.836c0,1.014-0.825,1.838-1.836,1.838
		c-1.015,0-1.837-0.824-1.837-1.838C39.121,32.258,39.943,31.433,40.958,31.433z M30.121,45.638
		c2.377-3.72,6.429-5.938,10.837-5.938c0.507,0,0.918,0.412,0.918,0.918c0,0.51-0.411,0.919-0.918,0.919
		c-3.778,0-7.251,1.904-9.289,5.09c-0.176,0.272-0.471,0.421-0.775,0.421c-0.17,0-0.341-0.048-0.495-0.144
		C29.972,46.632,29.848,46.06,30.121,45.638z"/>
</g>
<line fill="none" stroke="#233A74" stroke-width="2" stroke-miterlimit="10" x1="40.5" y1="23.5" x2="40.5" y2="30.596"/>
<line fill="none" stroke="#233A74" stroke-width="2" stroke-miterlimit="10" x1="36.156" y1="23.5" x2="45.344" y2="23.5"/>
</svg>
