<?xml version="1.0" encoding="utf-8"?>
<!-- Generator: Adobe Illustrator 15.0.0, SVG Export Plug-In . SVG Version: 6.00 Build 0)  -->
<!DOCTYPE svg PUBLIC "-//W3C//DTD SVG 1.1//EN" "http://www.w3.org/Graphics/SVG/1.1/DTD/svg11.dtd">
<svg version="1.1" id="Layer_1" xmlns="http://www.w3.org/2000/svg" xmlns:xlink="http://www.w3.org/1999/xlink" x="0px" y="0px"
	 width="48px" height="48px" viewBox="0 0 48 48" enable-background="new 0 0 48 48" xml:space="preserve">
<polygon fill="#FFFFFF" points="-307,133.5 -307.534,134.308 -308.067,135.116 -308.5,134.25 -308.933,133.384 -307.966,133.442 "/>
<rect x="-315.4" y="-113.4" fill="#999999" width="0.8" height="0.4"/>
<linearGradient id="SVGID_1_" gradientUnits="userSpaceOnUse" x1="-11.104" y1="4.3091" x2="73.9392" y2="57.3162">
	<stop  offset="0" style="stop-color:#FFFFFF"/>
	<stop  offset="0.171" style="stop-color:#CFE7F5"/>
	<stop  offset="0.3695" style="stop-color:#9FCEEC"/>
	<stop  offset="0.5581" style="stop-color:#79BBE4"/>
	<stop  offset="0.7314" style="stop-color:#5DADDF"/>
	<stop  offset="0.8842" style="stop-color:#4DA5DB"/>
	<stop  offset="1" style="stop-color:#47A2DA"/>
</linearGradient>
<rect x="3.896" y="9" fill="url(#SVGID_1_)" stroke="#233A74" stroke-width="0.5" stroke-miterlimit="10" width="40.282" height="34.426"/>
<linearGradient id="SVGID_2_" gradientUnits="userSpaceOnUse" x1="1.353" y1="25.6602" x2="47" y2="25.6602">
	<stop  offset="0.0667" style="stop-color:#D9D9D9"/>
	<stop  offset="0.1559" style="stop-color:#D0D3D6"/>
	<stop  offset="0.3015" style="stop-color:#B8C5CD"/>
	<stop  offset="0.4853" style="stop-color:#90ACBF"/>
	<stop  offset="0.7002" style="stop-color:#598AAB"/>
	<stop  offset="0.9387" style="stop-color:#136092"/>
	<stop  offset="1" style="stop-color:#00548B"/>
</linearGradient>
<path fill="url(#SVGID_2_)" stroke="#233A74" stroke-width="2" stroke-miterlimit="10" d="M44.147,5.667H4.206
	c-1.574,0-2.853,1.774-2.853,3.956v31.643c0,2.102,1.168,4.028,2.662,4.389h40.321C45.829,45.294,47,43.367,47,41.266V9.623
	C47,7.441,45.72,5.667,44.147,5.667z M43.196,39.95H5.157V10.938h38.04V39.95z"/>
</svg>
