<?xml version="1.0" encoding="utf-8"?>
<!-- Generator: Adobe Illustrator 15.0.0, SVG Export Plug-In . SVG Version: 6.00 Build 0)  -->
<!DOCTYPE svg PUBLIC "-//W3C//DTD SVG 1.1//EN" "http://www.w3.org/Graphics/SVG/1.1/DTD/svg11.dtd">
<svg version="1.1" id="Layer_1" xmlns="http://www.w3.org/2000/svg" xmlns:xlink="http://www.w3.org/1999/xlink" x="0px" y="0px"
	 width="48px" height="48px" viewBox="0 0 48 48" enable-background="new 0 0 48 48" xml:space="preserve">
<g>
	<rect x="17.374" y="11.047" fill="#FFFFFF" width="17.159" height="11.144"/>
	<g>
		<g>
			<path fill="#4E2874" stroke="#010101" stroke-miterlimit="10" d="M11.699,1.334H8.287c-1.881,0-3.412,1.53-3.412,3.412v38.665
				c0,1.882,1.53,3.412,3.412,3.412h3.412V1.334z"/>
			<path fill="#C4B4D8" stroke="#010101" stroke-miterlimit="10" d="M40.128,1.334H13.973v45.489h26.155
				c0.629,0,1.139-0.51,1.139-1.139V2.471C41.267,1.843,40.757,1.334,40.128,1.334z M34.444,20.666c0,0.629-0.51,1.139-1.137,1.139
				H19.659c-0.628,0-1.137-0.51-1.137-1.139v-6.822c0-0.629,0.508-1.138,1.137-1.138h13.648c0.627,0,1.137,0.509,1.137,1.138V20.666
				z"/>
		</g>
	</g>
</g>
</svg>
