<?xml version="1.0" encoding="utf-8"?>
<!-- Generator: Adobe Illustrator 15.0.0, SVG Export Plug-In . SVG Version: 6.00 Build 0)  -->
<!DOCTYPE svg PUBLIC "-//W3C//DTD SVG 1.1//EN" "http://www.w3.org/Graphics/SVG/1.1/DTD/svg11.dtd">
<svg version="1.1" id="Layer_1" xmlns="http://www.w3.org/2000/svg" xmlns:xlink="http://www.w3.org/1999/xlink" x="0px" y="0px"
	 width="48px" height="48px" viewBox="0 0 48 48" enable-background="new 0 0 48 48" xml:space="preserve">
<g>
	<rect x="1.317" y="13.768" fill="#6ECCDD" stroke="#000000" stroke-miterlimit="10" width="15.228" height="7.613"/>
	<path fill="#F3D810" stroke="#000000" stroke-miterlimit="10" d="M35.597,3.068c-1.078-1.083-2.51-1.673-4.034-1.673
		c-1.526,0-2.962,0.591-4.039,1.673c-1.25,1.246-2.527,5.046-3.366,7.941c-0.838-2.895-2.116-6.695-3.363-7.941
		c-1.08-1.083-2.514-1.673-4.04-1.673c-1.526,0-2.958,0.591-4.04,1.673c-2.225,2.228-2.225,5.849,0,8.075
		c0.889,0.887,5.564,2.745,5.732,2.806v7.433h11.419v-7.433c0.17-0.061,4.843-1.918,5.734-2.806
		C37.824,8.917,37.824,5.292,35.597,3.068z M14.06,9.796c-1.481-1.483-1.481-3.897,0-5.382c0.722-0.719,1.677-1.117,2.694-1.117
		c1.016,0,1.972,0.397,2.692,1.117c1.042,1.042,2.48,5.525,3.384,8.94C19.49,12.375,15.109,10.844,14.06,9.796z M34.252,9.796
		c-1.046,1.048-5.427,2.579-8.771,3.559c0.906-3.415,2.345-7.898,3.387-8.94c0.717-0.719,1.676-1.117,2.695-1.117
		c1.013,0,1.973,0.397,2.689,1.117C35.734,5.899,35.734,8.313,34.252,9.796z"/>
	<rect x="31.772" y="13.768" fill="#6ECCDD" stroke="#000000" stroke-miterlimit="10" width="15.228" height="7.613"/>
	<rect x="31.772" y="23.284" fill="#6ECCDD" stroke="#000000" stroke-miterlimit="10" width="13.324" height="22.84"/>
	<rect x="3.22" y="23.284" fill="#6ECCDD" stroke="#000000" stroke-miterlimit="10" width="13.325" height="22.84"/>
	<rect x="18.447" y="23.284" fill="#F3D810" stroke="#000000" stroke-miterlimit="10" width="11.419" height="22.84"/>
</g>
</svg>
