<?xml version="1.0" encoding="utf-8"?>
<!-- Generator: Adobe Illustrator 15.0.0, SVG Export Plug-In . SVG Version: 6.00 Build 0)  -->
<!DOCTYPE svg PUBLIC "-//W3C//DTD SVG 1.1//EN" "http://www.w3.org/Graphics/SVG/1.1/DTD/svg11.dtd">
<svg version="1.1" id="Layer_1" xmlns="http://www.w3.org/2000/svg" xmlns:xlink="http://www.w3.org/1999/xlink" x="0px" y="0px"
	 width="64px" height="64px" viewBox="0 0 64 64" enable-background="new 0 0 64 64" xml:space="preserve">
<g>
	<path fill="#233A74" d="M32.593,25.203h-3.534V12.246c0-0.654-0.527-1.179-1.178-1.179h-8.246V5.178
		C19.635,4.524,19.108,4,18.458,4c-0.651,0-1.178,0.524-1.178,1.178v5.889h-5.89c-0.651,0-1.178,0.525-1.178,1.179v12.957H6.678
		c-0.651,0-1.178,0.524-1.178,1.178v32.981c0,0.652,0.527,1.179,1.178,1.179h8.246v-5.89c0-0.653,0.527-1.178,1.178-1.178h4.711
		c0.651,0,1.178,0.524,1.178,1.178v5.89h10.602c0.651,0,1.178-0.526,1.178-1.179V26.381C33.771,25.728,33.244,25.203,32.593,25.203z
		 M16.102,15.78h7.067c0.651,0,1.178,0.524,1.178,1.177c0,0.651-0.527,1.178-1.178,1.178h-7.067c-0.651,0-1.178-0.527-1.178-1.178
		C14.924,16.304,15.451,15.78,16.102,15.78z M16.102,20.491h7.067c0.651,0,1.178,0.524,1.178,1.178c0,0.652-0.527,1.178-1.178,1.178
		h-7.067c-0.651,0-1.178-0.526-1.178-1.178C14.924,21.015,15.451,20.491,16.102,20.491z M27.881,48.762H11.39
		c-0.651,0-1.178-0.527-1.178-1.178c0-0.653,0.527-1.178,1.178-1.178h16.491c0.651,0,1.178,0.524,1.178,1.178
		C29.059,48.234,28.532,48.762,27.881,48.762z M27.881,41.693H11.39c-0.651,0-1.178-0.526-1.178-1.177
		c0-0.654,0.527-1.179,1.178-1.179h16.491c0.651,0,1.178,0.524,1.178,1.179C29.059,41.167,28.532,41.693,27.881,41.693z
		 M27.881,34.626H11.39c-0.651,0-1.178-0.526-1.178-1.177c0-0.654,0.527-1.179,1.178-1.179h16.491c0.651,0,1.178,0.524,1.178,1.179
		C29.059,34.1,28.532,34.626,27.881,34.626z"/>
	<path fill="#233A74" d="M60.864,15.78H39.661c-0.651,0-1.18,0.524-1.18,1.177v42.405c0,0.652,0.528,1.179,1.18,1.179h8.245v-5.89
		c0-0.653,0.526-1.178,1.177-1.178h4.713c0.65,0,1.178,0.524,1.178,1.178v5.89h5.891c0.65,0,1.177-0.526,1.177-1.179V16.957
		C62.041,16.304,61.515,15.78,60.864,15.78z M56.15,51.118H44.372c-0.651,0-1.178-0.527-1.178-1.179
		c0-0.653,0.526-1.178,1.178-1.178H56.15c0.651,0,1.18,0.524,1.18,1.178C57.33,50.591,56.802,51.118,56.15,51.118z M56.15,46.406
		H44.372c-0.651,0-1.178-0.527-1.178-1.179c0-0.652,0.526-1.178,1.178-1.178H56.15c0.651,0,1.18,0.525,1.18,1.178
		C57.33,45.879,56.802,46.406,56.15,46.406z M56.15,41.693H44.372c-0.651,0-1.178-0.526-1.178-1.177
		c0-0.654,0.526-1.179,1.178-1.179H56.15c0.651,0,1.18,0.524,1.18,1.179C57.33,41.167,56.802,41.693,56.15,41.693z M56.15,36.982
		H44.372c-0.651,0-1.178-0.526-1.178-1.178c0-0.654,0.526-1.179,1.178-1.179H56.15c0.651,0,1.18,0.524,1.18,1.179
		C57.33,36.456,56.802,36.982,56.15,36.982z M56.15,32.271H44.372c-0.651,0-1.178-0.527-1.178-1.178
		c0-0.653,0.526-1.177,1.178-1.177H56.15c0.651,0,1.18,0.524,1.18,1.177C57.33,31.744,56.802,32.271,56.15,32.271z M56.15,27.559
		H44.372c-0.651,0-1.178-0.527-1.178-1.177c0-0.654,0.526-1.178,1.178-1.178H56.15c0.651,0,1.18,0.524,1.18,1.178
		C57.33,27.032,56.802,27.559,56.15,27.559z M56.15,22.847H44.372c-0.651,0-1.178-0.526-1.178-1.178
		c0-0.654,0.526-1.178,1.178-1.178H56.15c0.651,0,1.18,0.524,1.18,1.178C57.33,22.321,56.802,22.847,56.15,22.847z"/>
</g>
</svg>
