<?xml version="1.0" encoding="utf-8"?>
<!-- Generator: Adobe Illustrator 15.0.0, SVG Export Plug-In . SVG Version: 6.00 Build 0)  -->
<!DOCTYPE svg PUBLIC "-//W3C//DTD SVG 1.1//EN" "http://www.w3.org/Graphics/SVG/1.1/DTD/svg11.dtd">
<svg version="1.1" id="Layer_1" xmlns="http://www.w3.org/2000/svg" xmlns:xlink="http://www.w3.org/1999/xlink" x="0px" y="0px"
	 width="48px" height="48px" viewBox="0 0 48 48" enable-background="new 0 0 48 48" xml:space="preserve">
<polygon fill="#FFFFFF" points="-307,133.5 -307.534,134.308 -308.067,135.116 -308.5,134.25 -308.933,133.384 -307.966,133.442 "/>
<rect x="-315.4" y="-113.4" fill="#999999" width="0.8" height="0.4"/>
<g>
	<rect x="3.272" y="18.698" width="40.141" height="23.43"/>
	<linearGradient id="SVGID_1_" gradientUnits="userSpaceOnUse" x1="53.7207" y1="47.9209" x2="-1.3294" y2="13.3507">
		<stop  offset="0.0667" style="stop-color:#FED415"/>
		<stop  offset="0.3183" style="stop-color:#FBD726"/>
		<stop  offset="0.7274" style="stop-color:#F5E148"/>
		<stop  offset="1" style="stop-color:#EFEB60"/>
	</linearGradient>
	<path fill="url(#SVGID_1_)" stroke="#000000" stroke-miterlimit="10" d="M44.073,13.826H4.806c-2.165,0-3.927,1.762-3.927,3.927
		v23.56c0,2.164,1.762,3.927,3.927,3.927h39.268c2.167,0,3.927-1.763,3.927-3.927v-23.56C48,15.588,46.24,13.826,44.073,13.826z
		 M15.109,34.312l-6.872,3.927c-0.472,0.272-1.07,0.104-1.338-0.367c-0.27-0.469-0.107-1.069,0.364-1.34l6.872-3.923
		c0.469-0.272,1.069-0.107,1.338,0.364C15.744,33.444,15.581,34.045,15.109,34.312z M23.906,34.284L7.218,23.486
		c-0.457-0.295-0.587-0.901-0.292-1.357c0.295-0.453,0.903-0.585,1.357-0.29l16.155,10.452l16.156-10.452
		c0.456-0.295,1.063-0.165,1.357,0.29c0.296,0.456,0.165,1.063-0.291,1.357l-16.69,10.798C24.648,34.493,24.23,34.493,23.906,34.284
		z M41.979,37.871c-0.27,0.471-0.867,0.64-1.34,0.367l-6.87-3.927c-0.472-0.267-0.635-0.867-0.364-1.339
		c0.269-0.472,0.868-0.637,1.337-0.364l6.872,3.923C42.086,36.802,42.25,37.402,41.979,37.871z"/>
</g>
</svg>
