<?xml version="1.0" encoding="utf-8"?>
<!-- Generator: Adobe Illustrator 15.0.0, SVG Export Plug-In . SVG Version: 6.00 Build 0)  -->
<!DOCTYPE svg PUBLIC "-//W3C//DTD SVG 1.1//EN" "http://www.w3.org/Graphics/SVG/1.1/DTD/svg11.dtd">
<svg version="1.1" id="Layer_1" xmlns="http://www.w3.org/2000/svg" xmlns:xlink="http://www.w3.org/1999/xlink" x="0px" y="0px"
	 width="48px" height="48px" viewBox="0 0 48 48" enable-background="new 0 0 48 48" xml:space="preserve">
<g>
	<path d="M10.738,38.388c-2.65,0-4.807,2.155-4.807,4.805c0,2.652,2.157,4.808,4.807,4.808c2.648,0,4.808-2.155,4.808-4.808
		C15.546,40.543,13.386,38.388,10.738,38.388z"/>
	<path d="M37.652,38.388c-2.649,0-4.806,2.155-4.806,4.805c0,2.652,2.156,4.808,4.806,4.808s4.808-2.155,4.808-4.808
		C42.46,40.543,40.302,38.388,37.652,38.388z"/>
	<path fill="#706E6E" d="M16.791,40.311c0.673,1.402,0.766,2.577,0.578,3.846h13.654c-0.188-1.266-0.095-2.44,0.579-3.846H16.791z"
		/>
	<path fill="#706E6E" d="M43.706,40.311c0.671,1.402,0.767,2.577,0.578,3.846h2.021c0.53,0,0.962-0.433,0.962-0.964v-2.882H43.706z"
		/>
	<path fill="#CD202D" stroke="#000000" stroke-miterlimit="10" d="M42.347,38.388h4.917v-4.806c0-0.531-0.429-0.961-0.961-0.961
		H22.273v5.767h10.688C35.58,35.823,39.726,35.826,42.347,38.388z"/>
	<path fill="#706E6E" d="M41.497,8.123V20.23c-2.163,0.482-3.846,2.548-3.846,4.94c0,2.736,2.203,5.046,4.807,5.046
		c2.831,0,4.806-1.778,4.806-4.325c0-0.53-0.429-0.961-0.961-0.961s-0.962,0.431-0.962,0.961c0,1.773-1.552,2.402-2.883,2.402
		c-1.535,0-2.884-1.461-2.884-3.123c0-1.665,1.349-3.124,2.884-3.124c0.531,0,0.96-0.43,0.96-0.961V2.821l0,0
		c0-0.909-1.15-1.302-1.729-0.577l-19.416,25.89v2.563h10.76L41.497,8.123z"/>
	<path fill="#CD202D" stroke="#000000" stroke-miterlimit="10" d="M15.434,38.388h4.917V20.124c0-0.532-0.429-0.962-0.96-0.962
		h-8.652c-0.35,0-0.67,0.19-0.842,0.494l-4.741,8.535l-3.747,3.75c-0.182,0.18-0.283,0.423-0.283,0.68v5.767h4.92
		C8.666,35.823,12.812,35.826,15.434,38.388z M8.917,28.347l2.885-5.768c0.163-0.326,0.494-0.532,0.86-0.532h2.885
		c0.53,0,0.96,0.43,0.96,0.961v5.766c0,0.532-0.43,0.962-0.96,0.962h-5.77C9.063,29.736,8.596,28.983,8.917,28.347z"/>
	<path fill="#706E6E" d="M1.125,40.311v2.882c0,0.531,0.43,0.964,0.961,0.964h2.02c-0.187-1.266-0.094-2.44,0.577-3.846H1.125z"/>
</g>
</svg>
