<?xml version="1.0" encoding="utf-8"?>
<!-- Generator: Adobe Illustrator 15.0.0, SVG Export Plug-In . SVG Version: 6.00 Build 0)  -->
<!DOCTYPE svg PUBLIC "-//W3C//DTD SVG 1.1//EN" "http://www.w3.org/Graphics/SVG/1.1/DTD/svg11.dtd">
<svg version="1.1" id="Layer_1" xmlns="http://www.w3.org/2000/svg" xmlns:xlink="http://www.w3.org/1999/xlink" x="0px" y="0px"
	 width="48px" height="48px" viewBox="0 0 48 48" enable-background="new 0 0 48 48" xml:space="preserve">
<polygon fill="#FFFFFF" points="-307,133.5 -307.534,134.308 -308.067,135.116 -308.5,134.25 -308.933,133.384 -307.966,133.442 "/>
<rect x="-315.4" y="-113.4" fill="#999999" width="0.8" height="0.4"/>
<g>
	<rect x="16.22" y="9.554" width="14.945" height="33.655"/>
	<g>
		<g>
			<g opacity="0.57">
				<path d="M24.535,4.941c-10.252,0-25.679,26.663-20.501,35.509c5.177,8.848,34.842,8.196,41.005,0
					C51.199,32.264,34.788,4.941,24.535,4.941z M24.692,41.997c-1.413,0-2.552-1.142-2.552-2.557c0-1.413,1.142-2.552,2.552-2.552
					c1.415,0,2.552,1.142,2.552,2.552C27.246,40.856,26.107,41.997,24.692,41.997z M26.654,28.642c0,0-0.063,2.169-0.992,3.099
					c0,0-1.112,0.98-2.35-0.312c0,0-0.315-0.897-0.748-3.359l-0.68-9.825v-2.667c0,0,0.075-2.475,2.854-2.911
					c0,0,2.599-0.124,2.72,2.603C27.459,15.27,27.768,18.245,26.654,28.642z"/>
				<path fill="none" stroke="#000000" stroke-miterlimit="10" d="M24.535,4.941c-10.252,0-25.679,26.663-20.501,35.509
					c5.177,8.848,34.842,8.196,41.005,0C51.199,32.264,34.788,4.941,24.535,4.941z M24.692,41.997c-1.413,0-2.552-1.142-2.552-2.557
					c0-1.413,1.142-2.552,2.552-2.552c1.415,0,2.552,1.142,2.552,2.552C27.246,40.856,26.107,41.997,24.692,41.997z M26.654,28.642
					c0,0-0.063,2.169-0.992,3.099c0,0-1.112,0.98-2.35-0.312c0,0-0.315-0.897-0.748-3.359l-0.68-9.825v-2.667
					c0,0,0.075-2.475,2.854-2.911c0,0,2.599-0.124,2.72,2.603C27.459,15.27,27.768,18.245,26.654,28.642z"/>
			</g>
			<g>
				<path fill="#F5EB28" d="M23.535,3.941c-10.252,0-25.679,26.663-20.501,35.509c5.177,8.848,34.842,8.196,41.005,0
					C50.199,31.264,33.788,3.941,23.535,3.941z M23.692,40.997c-1.413,0-2.552-1.142-2.552-2.557c0-1.413,1.142-2.552,2.552-2.552
					c1.415,0,2.552,1.142,2.552,2.552C26.246,39.856,25.107,40.997,23.692,40.997z M25.654,27.642c0,0-0.063,2.169-0.992,3.099
					c0,0-1.112,0.98-2.35-0.312c0,0-0.315-0.897-0.748-3.359l-0.68-9.825v-2.667c0,0,0.075-2.475,2.854-2.911
					c0,0,2.599-0.124,2.72,2.603C26.459,14.27,26.768,17.245,25.654,27.642z"/>
				<path fill="none" stroke="#000000" stroke-miterlimit="10" d="M23.535,3.941c-10.252,0-25.679,26.663-20.501,35.509
					c5.177,8.848,34.842,8.196,41.005,0C50.199,31.264,33.788,3.941,23.535,3.941z M23.692,40.997c-1.413,0-2.552-1.142-2.552-2.557
					c0-1.413,1.142-2.552,2.552-2.552c1.415,0,2.552,1.142,2.552,2.552C26.246,39.856,25.107,40.997,23.692,40.997z M25.654,27.642
					c0,0-0.063,2.169-0.992,3.099c0,0-1.112,0.98-2.35-0.312c0,0-0.315-0.897-0.748-3.359l-0.68-9.825v-2.667
					c0,0,0.075-2.475,2.854-2.911c0,0,2.599-0.124,2.72,2.603C26.459,14.27,26.768,17.245,25.654,27.642z"/>
			</g>
		</g>
	</g>
</g>
</svg>
