<?xml version="1.0" encoding="utf-8"?>
<!-- Generator: Adobe Illustrator 15.0.0, SVG Export Plug-In . SVG Version: 6.00 Build 0)  -->
<!DOCTYPE svg PUBLIC "-//W3C//DTD SVG 1.1//EN" "http://www.w3.org/Graphics/SVG/1.1/DTD/svg11.dtd">
<svg version="1.1" id="Layer_1" xmlns="http://www.w3.org/2000/svg" xmlns:xlink="http://www.w3.org/1999/xlink" x="0px" y="0px"
	 width="48px" height="48px" viewBox="0 0 48 48" enable-background="new 0 0 48 48" xml:space="preserve">
<g>
	
		<rect x="3.057" y="2.116" fill="#A1C5CE" stroke="#010101" stroke-linecap="round" stroke-linejoin="round" stroke-miterlimit="10" width="25.63" height="35.884"/>
	
		<rect x="11.601" y="8.951" fill="#FFFFFF" stroke="#010101" stroke-linecap="round" stroke-linejoin="round" stroke-miterlimit="10" width="10.253" height="6.835"/>
	
		<line fill="none" stroke="#010101" stroke-linecap="round" stroke-linejoin="round" stroke-miterlimit="10" x1="1.348" y1="7.242" x2="4.766" y2="7.242"/>
	
		<line fill="none" stroke="#010101" stroke-linecap="round" stroke-linejoin="round" stroke-miterlimit="10" x1="1.348" y1="12.368" x2="4.766" y2="12.368"/>
	
		<line fill="none" stroke="#010101" stroke-linecap="round" stroke-linejoin="round" stroke-miterlimit="10" x1="1.348" y1="17.494" x2="4.766" y2="17.494"/>
	
		<line fill="none" stroke="#010101" stroke-linecap="round" stroke-linejoin="round" stroke-miterlimit="10" x1="1.348" y1="22.62" x2="4.766" y2="22.62"/>
	
		<line fill="none" stroke="#010101" stroke-linecap="round" stroke-linejoin="round" stroke-miterlimit="10" x1="1.348" y1="27.748" x2="4.766" y2="27.748"/>
	
		<line fill="none" stroke="#010101" stroke-linecap="round" stroke-linejoin="round" stroke-miterlimit="10" x1="1.348" y1="32.873" x2="4.766" y2="32.873"/>
	
		<rect x="28.688" y="5.533" fill="#D8D4D7" stroke="#010101" stroke-linecap="round" stroke-linejoin="round" stroke-miterlimit="10" width="5.127" height="6.835"/>
	<rect x="28.688" y="12.368" fill="#7F7E7F" stroke="#010101" stroke-miterlimit="10" width="5.127" height="6.835"/>
	
		<rect x="28.688" y="19.203" fill="#3A383A" stroke="#010101" stroke-linecap="round" stroke-linejoin="round" stroke-miterlimit="10" width="5.127" height="6.836"/>
	
		<rect x="28.688" y="26.039" fill="#F4F4F4" stroke="#010101" stroke-linecap="round" stroke-linejoin="round" stroke-miterlimit="10" width="5.127" height="6.834"/>
</g>
<g>
	<path fill="#C4C5C5" stroke="#010101" stroke-linejoin="round" stroke-miterlimit="10" d="M33.386,33.195l-5.96,5.964
		c0.978,2.316,0.529,5.093-1.359,6.982c-1.889,1.886-4.666,2.334-6.983,1.355l3.235-3.355v-3.184h-3.18l-3.427,3.164
		c-0.98-2.315-0.529-5.093,1.358-6.98c1.888-1.89,4.666-2.339,6.982-1.357l5.956-5.962"/>
	<path fill="#C4C5C5" stroke="#010101" stroke-linejoin="round" stroke-miterlimit="10" d="M28.826,30.896l5.957-5.954
		c-0.98-2.317-0.531-5.097,1.358-6.984c1.887-1.885,4.545-2.336,6.862-1.357l-3.218,3.354v3.288h3.427l3.283-3.15
		c0.981,2.319,0.53,5.036-1.356,6.922c-1.889,1.89-4.668,2.309-6.981,1.326l-5.96,5.948"/>
</g>
</svg>
