<?xml version="1.0" encoding="utf-8"?>
<!-- Generator: Adobe Illustrator 15.0.0, SVG Export Plug-In . SVG Version: 6.00 Build 0)  -->
<!DOCTYPE svg PUBLIC "-//W3C//DTD SVG 1.1//EN" "http://www.w3.org/Graphics/SVG/1.1/DTD/svg11.dtd">
<svg version="1.1" id="Layer_1" xmlns="http://www.w3.org/2000/svg" xmlns:xlink="http://www.w3.org/1999/xlink" x="0px" y="0px"
	 width="64px" height="64px" viewBox="0 0 64 64" enable-background="new 0 0 64 64" xml:space="preserve">
<path fill="#233A74" d="M59.638,17.3h-5.813v-3.487c0-0.643-0.522-1.163-1.163-1.163H23.6V9.163C23.6,8.52,23.078,8,22.438,8H6.163
	C5.522,8,5,8.52,5,9.163v38.363c0,3.846,3.128,6.975,6.975,6.975h40.687c4.487,0,8.138-3.651,8.138-8.138v-27.9
	C60.8,17.82,60.277,17.3,59.638,17.3z M51.5,17.3H17.788c-0.64,0-1.163,0.52-1.163,1.163v29.063c0,2.563-2.084,4.649-4.65,4.649
	c-2.564,0-4.65-2.086-4.65-4.649v-37.2h13.95v3.487c0,0.643,0.522,1.163,1.163,1.163H51.5V17.3z"/>
</svg>
