<?xml version="1.0" encoding="utf-8"?>
<!-- Generator: Adobe Illustrator 15.0.0, SVG Export Plug-In . SVG Version: 6.00 Build 0)  -->
<!DOCTYPE svg PUBLIC "-//W3C//DTD SVG 1.1//EN" "http://www.w3.org/Graphics/SVG/1.1/DTD/svg11.dtd">
<svg version="1.1" id="Layer_1" xmlns="http://www.w3.org/2000/svg" xmlns:xlink="http://www.w3.org/1999/xlink" x="0px" y="0px"
	 width="48px" height="48px" viewBox="0 0 48 48" enable-background="new 0 0 48 48" xml:space="preserve">
<rect x="11.933" y="9.521" fill="#D8B628" width="32.016" height="32.153"/>
<g>
	
		<linearGradient id="SVGID_1_" gradientUnits="userSpaceOnUse" x1="1.626" y1="25.5977" x2="46.375" y2="25.5977" gradientTransform="matrix(-1 0 0 1 48 0)">
		<stop  offset="0" style="stop-color:#FFFFFF"/>
		<stop  offset="0.0915" style="stop-color:#FFF9D5"/>
		<stop  offset="0.216" style="stop-color:#FFF2A3"/>
		<stop  offset="0.3434" style="stop-color:#FFEC78"/>
		<stop  offset="0.4714" style="stop-color:#FFE755"/>
		<stop  offset="0.6003" style="stop-color:#FFE33A"/>
		<stop  offset="0.7305" style="stop-color:#FFE026"/>
		<stop  offset="0.8626" style="stop-color:#FFDF1B"/>
		<stop  offset="1" style="stop-color:#FFDE17"/>
	</linearGradient>
	<path fill="url(#SVGID_1_)" stroke="#7E5321" stroke-miterlimit="10" d="M1.686,18.678l4.971,22.375C6.908,42.19,7.918,43,9.082,43
		h4.973h24.861h4.972c1.374,0,2.486-1.113,2.486-2.486V10.681c0-1.373-1.112-2.486-2.486-2.486H14.055
		c-1.373,0-2.486,1.113-2.486,2.486v2.486H9.082c-1.373,0-2.484,1.113-2.484,2.486H4.111c-0.754,0-1.469,0.343-1.939,0.931
		C1.699,17.171,1.52,17.942,1.686,18.678z M43.888,10.681v29.833H41.4c0-0.179-5.03-22.914-5.03-22.914
		c-0.253-1.138-1.261-1.947-2.427-1.947H19.027c0-1.373-1.113-2.486-2.486-2.486h-2.486v-2.486H43.888L43.888,10.681z"/>
</g>
</svg>
