<?xml version="1.0" encoding="utf-8"?>
<!-- Generator: Adobe Illustrator 15.0.0, SVG Export Plug-In . SVG Version: 6.00 Build 0)  -->
<!DOCTYPE svg PUBLIC "-//W3C//DTD SVG 1.1//EN" "http://www.w3.org/Graphics/SVG/1.1/DTD/svg11.dtd">
<svg version="1.1" id="Layer_1" xmlns="http://www.w3.org/2000/svg" xmlns:xlink="http://www.w3.org/1999/xlink" x="0px" y="0px"
	 width="35px" height="35px" viewBox="0 0 35 35" enable-background="new 0 0 35 35" xml:space="preserve">
<path fill="#3D5272" stroke="#3D5272" stroke-miterlimit="10" d="M28.932,11.253l-0.004-0.043l-7.695-8.086h0.024l2.057,2.171
	l-2.155-2.282h-0.033l-0.066-0.073h-0.01l-2.634-2.782H5.924c-2.049,0-3.709,1.662-3.709,3.708v27.758
	c0,2.05,1.66,3.709,3.709,3.709h20.766c2.05,0,3.709-1.659,3.709-3.709V12.802L28.932,11.253z M27.433,31.624
	c0,0.411-0.332,0.743-0.743,0.743H5.924c-0.408,0-0.742-0.332-0.742-0.743V3.866c0-0.409,0.334-0.742,0.742-0.742h12.297l0.199,6.47
	c0,0,0.259,4.277,4.972,3.762l4.041-0.11V31.624L27.433,31.624z"/>
</svg>
