<?xml version="1.0" encoding="utf-8"?>
<!-- Generator: Adobe Illustrator 15.0.0, SVG Export Plug-In . SVG Version: 6.00 Build 0)  -->
<!DOCTYPE svg PUBLIC "-//W3C//DTD SVG 1.1//EN" "http://www.w3.org/Graphics/SVG/1.1/DTD/svg11.dtd">
<svg version="1.1" id="Layer_1" xmlns="http://www.w3.org/2000/svg" xmlns:xlink="http://www.w3.org/1999/xlink" x="0px" y="0px"
	 width="48px" height="48px" viewBox="0 0 48 48" enable-background="new 0 0 48 48" xml:space="preserve">
<polygon fill="#FFFFFF" points="-307,133.5 -307.534,134.308 -308.067,135.116 -308.5,134.25 -308.933,133.384 -307.966,133.442 "/>
<rect x="-315.4" y="-113.4" fill="#999999" width="0.8" height="0.4"/>
<g>
	<circle fill="#FFFFFF" cx="23.999" cy="24.364" r="17.74"/>
	<path fill="#BE2026" stroke="#000000" stroke-miterlimit="10" d="M24,1.201c-12.662,0-22.964,10.302-22.964,22.964
		c0,12.661,10.302,22.963,22.964,22.963s22.965-10.303,22.965-22.963C46.965,11.503,36.662,1.201,24,1.201z M37.412,30.519
		c0.391,0.391,0.391,1.022,0,1.413l-5.646,5.649c-0.375,0.374-1.039,0.374-1.412,0L24,31.225l-6.353,6.356
		c-0.375,0.374-1.038,0.374-1.413,0l-5.647-5.649c-0.391-0.391-0.391-1.022,0-1.413l6.353-6.353l-6.353-6.354
		c-0.391-0.391-0.391-1.022,0-1.412l5.647-5.649c0.375-0.375,1.038-0.375,1.413,0L24,17.106l6.354-6.355
		c0.373-0.375,1.037-0.375,1.412,0l5.646,5.649c0.391,0.39,0.391,1.021,0,1.412l-6.354,6.354L37.412,30.519z"/>
</g>
</svg>
