<?xml version="1.0" encoding="utf-8"?>
<!-- Generator: Adobe Illustrator 15.0.0, SVG Export Plug-In . SVG Version: 6.00 Build 0)  -->
<!DOCTYPE svg PUBLIC "-//W3C//DTD SVG 1.1//EN" "http://www.w3.org/Graphics/SVG/1.1/DTD/svg11.dtd">
<svg version="1.1" id="Layer_1" xmlns="http://www.w3.org/2000/svg" xmlns:xlink="http://www.w3.org/1999/xlink" x="0px" y="0px"
	 width="256px" height="256px" viewBox="0 0 256 256" enable-background="new 0 0 256 256" xml:space="preserve">
<g id="XMLID_1_">
	<g>
		<path d="M230.855,211.85c0.24,1.311,0.37,1.271,0.37,3.57c-0.11,1.22-0.29,2.37-0.53,3.48c0.15-1.08,0.15-2.21,0.261-3.4
			c0-3.44-0.75-5.89-0.75-6.25c0-0.01,0-0.01,0-0.02C230.286,209.53,230.626,210.63,230.855,211.85z"/>
		<path d="M230.206,209.25c-0.471-1.17-0.67-2.53-1.2-3.65c-0.01-0.06-0.03-0.109-0.04-0.149c0.399,0.95,1,2.729,1.229,3.72
			c0,0.01,0.011,0.03,0.011,0.05v0.011C230.206,209.24,230.206,209.24,230.206,209.25z"/>
		<path d="M228.905,205.32c-0.05-0.09-0.1-0.181-0.18-0.33c-0.229-0.51-0.51-0.99-0.77-1.49c-0.011-0.04-0.021-0.08-0.04-0.12
			c0.01,0.021,0.02,0.03,0.029,0.05c0.261,0.49,0.54,0.971,0.771,1.48C228.766,205,228.836,205.14,228.905,205.32z"/>
		<path d="M174.396,102.83c-1.42-2.08-6.54-9.79-7.29-10.86c-0.06-12.47,1.021-24.11,3.75-34.07c1.19,1.33,2.37,2.67,3.561,4.01
			c0.029,0.06,3,3.86,3.89,4.79c8.74,11.76,17.271,24.17,24.98,39.05c0.029,0.06,0.05,0.12,0.079,0.17
			c4.9,8.88,9.2,18.58,12.82,27.49c0.03,0.05,0.05,0.109,0.08,0.17c0.37,0.68,3.33,8.7,4.48,12.04c1.01,2.93,1.96,5.84,2.84,8.72
			c2.04,6.75,3.6,13.34,4.95,19.86c0.029,0.05,0.06,0.109,0.09,0.17c1.02,6.59,2.02,13.18,2.26,19.52
			c0.03,0.061,0.05,0.11,0.08,0.17c-0.16,2.141,0.16,4.44-0.061,6.561c0.03,0.06-0.31,5.81-0.699,8.6c0-0.02-0.011-0.04-0.011-0.05
			c-0.229-0.99-0.83-2.77-1.229-3.72c-0.021-0.05-0.04-0.09-0.061-0.13c-0.069-0.181-0.14-0.32-0.189-0.41
			c-0.23-0.51-0.51-0.99-0.771-1.48c-0.01-0.02-0.02-0.029-0.029-0.05c-0.011-0.05-0.021-0.09-0.04-0.14
			c0.05,0.08,0.09,0.17,0.14,0.25c-1.33-4.41-3.28-8.681-5.43-12.91c-0.061-0.04-3.38-5.74-3.57-5.91
			c-0.16-0.25-0.32-0.49-0.479-0.74c-3.301-5.1-7.28-10.06-11.29-15.01c-0.051-0.03-3.25-3.49-4.83-5.17
			c-0.03-0.03-0.051-0.05-0.07-0.08c-0.25-0.75-0.49-1.52-0.71-2.26c-1.771-5.84-3.94-11.68-6.47-17.82
			c-1.311-3.189-2.561-6.42-3.9-9.42C186.235,123.26,180.365,112.19,174.396,102.83z"/>
		<path d="M221.735,194.66c-0.43-0.47-0.87-0.94-1.319-1.4C220.865,193.72,221.306,194.19,221.735,194.66z"/>
		<path d="M220.246,193.08c-0.48-0.49-0.98-0.98-1.48-1.46C219.275,192.1,219.766,192.58,220.246,193.08z"/>
		<path d="M171.076,136.11c1.64,1.229,3.26,2.46,4.819,3.659c0.061,0.04,0.11,0.07,0.16,0.11c0.67,0.4,0.81,0.91,1.63,1.28
			c5.37,4.27,10.41,8.6,15.141,12.99c3.359,3.13,6.5,6.319,9.52,9.52c0,0.03,0.01,0.05,0.02,0.08c1.58,1.68,3.141,3.37,4.671,5.07
			c0.05,0.04,0.1,0.069,0.159,0.1c4.011,4.95,7.99,9.91,11.29,15.01c0.15,0.25,0.32,0.49,0.48,0.73c0.05,0.04,3.51,5.88,3.56,5.92
			c2.12,4.15,4.03,8.34,5.351,12.66c-0.63-1.19-1.33-2.34-2.08-3.44c-0.03-0.02-0.04-0.05-0.061-0.08
			c-0.39-0.6-0.81-1.17-1.25-1.739c-0.42-0.58-0.87-1.141-1.34-1.69c-0.45-0.56-0.93-1.1-1.41-1.63c-0.43-0.47-0.87-0.94-1.319-1.4
			c-0.051-0.06-0.11-0.12-0.17-0.18c-0.48-0.5-0.971-0.98-1.48-1.46c-0.02-0.03-0.04-0.05-0.07-0.07c-0.5-0.49-1.01-0.96-1.529-1.43
			c-0.021-0.03-0.051-0.05-0.07-0.07c-0.07-0.06-0.15-0.13-0.23-0.2c-1.569-1.399-4.52-3.77-4.579-3.779
			c-1.591-1.42-5.78-4.12-5.94-4.221c-5.15-3.399-16.8-9.34-16.86-9.35c-3.37-1.51-6.819-2.99-10.34-4.39
			c-0.46-1.42-0.979-3.03-0.99-3.07c-0.55-1.771-1.3-3.69-1.729-5.84c-0.88-3.01-1.75-6.25-2.58-9.63
			C172.815,145.23,171.876,140.67,171.076,136.11z"/>
		<path d="M218.695,191.55c-0.5-0.479-1.01-0.96-1.529-1.43C217.686,190.59,218.195,191.06,218.695,191.55z"/>
		<path d="M202.346,163.67c0.02,0.03,0.04,0.05,0.07,0.08c1.58,1.68,4.779,5.14,4.83,5.17c4.01,4.95,7.989,9.91,11.29,15.01
			c0.159,0.25,0.319,0.49,0.479,0.74c0.19,0.17,3.51,5.87,3.57,5.91c2.149,4.229,4.1,8.5,5.43,12.91c-0.05-0.08-0.09-0.17-0.14-0.25
			c-1.32-4.32-3.23-8.51-5.351-12.66c-0.05-0.04-3.51-5.88-3.56-5.92c-0.16-0.24-0.33-0.48-0.48-0.73
			c-3.3-5.1-7.279-10.06-11.29-15.01c-0.06-0.03-0.109-0.06-0.159-0.1c-1.53-1.7-3.091-3.391-4.671-5.07
			C202.355,163.72,202.346,163.7,202.346,163.67z"/>
		<path d="M201.775,211.42c0,0.021,0.011,0.03,0.011,0.05c-0.011-0.01-0.021-0.01-0.03-0.01
			C201.756,211.45,201.766,211.43,201.775,211.42z"/>
		<path d="M201.896,211.67c0.92,6.54-6.24,9.88-10.83,11.61c-2.05,0.77-4.1,1.37-6.13,1.87c-2.32,0.58-4.609,1.02-6.78,1.39
			c-0.59,0.1-1.89,0.27-1.949,0.26c-4.53,0.681-9.341,1.34-14.36,1.521c-0.06-0.011-1.78,0.18-2.69,0.14
			c-0.06-0.01-3.42,0.18-5.159,0.12c-0.07-0.01-4.051,0.05-6.29-0.05c-0.48,0-0.99-0.021-1.48-0.03c-0.05,0-0.09,0-0.14,0
			c-14.33-5.66-29.02-13.35-43.59-22.83c-14.45-9.4-27.69-19.52-39.01-30.14c-0.03-0.03-0.05-0.05-0.08-0.08c0.01,0,0.01,0,0.02,0
			c-3.27-3.07-6.37-6.17-9.31-9.311c-3.39-3.64-6.55-7.34-9.43-11.069c-0.33-0.44-0.67-0.88-1-1.32c-0.01-0.01-0.01-0.01-0.02-0.02
			c-5.97-7.91-10.73-16.011-14.04-24.211c-0.59-1.54-0.93-2.859-1.19-3.689c-0.53-1.94-0.91-3.85-1.22-5.73
			c-0.03-0.32-0.17-0.85-0.17-1.46c-0.26-5.01-0.01-10.75,3.73-16.44c3.67-5.58,8.8-8.12,13.41-9.92c0.65-0.3,1.37-0.38,1.41-0.43
			c2.11-0.57,4.02-0.95,6.25-1.33c0.05,0.04,3.17-0.4,3.86-0.4c8.32-0.33,16.91,0.58,25.66,2.32c1.38,0.3,4.25,0.96,4.3,0.99
			c1.49,0.4,4.55,1.17,4.61,1.2c2.61,0.77,5.25,1.61,7.88,2.47c0,0.01,0,0.01,0,0.02c2.29,9.55,5.45,19.41,9.34,29.38
			c-0.05-0.04-0.1-0.07-0.15-0.1c-5.56-2.45-10.97-4.25-16.36-5.93c-7.51-2.24-14.84-3.68-21.82-3.41c-0.37-0.03-2.6,0.33-2.66,0.3
			c-0.63,0.01-2.19,0.39-2.97,0.66c-1.59,0.36-3.02,1.55-4,3.19c-0.97,1.64-1.14,3.46-1.08,4.48c0,1.13,0.8,3.59,1.04,4.17
			c2.79,6.87,7.32,13.699,13.12,20.38c1.38,1.59,2.84,3.18,4.35,4.76c2.46,2.56,5.1,5.1,7.88,7.6c0.02,0.021,0.05,0.04,0.07,0.07
			c1.1,0.99,2.22,1.98,3.36,2.95c3.52,3.05,7.24,6.03,11.1,8.96c6.32,4.8,13.02,9.46,19.89,13.93c8.67,5.63,18.54,10.8,26.9,14.57
			c1.91,1.09,3.76,1.89,5.569,2.5c0.051,0.04,0.101,0.07,0.16,0.11c1.55,0.76,3.11,1.47,4.59,1.859c0.021,0.03,0.051,0.05,0.07,0.08
			c0.021,0.01,0.04,0.03,0.06,0.04c0.761,0.38,1.53,0.771,2.221,0.85c0.09,0.021,0.17,0.051,0.229,0.07
			c0.021,0.021,0.04,0.03,0.061,0.04c4.66,1.87,9.26,3.44,13.739,4.44c0.051,0.029,0.101,0.069,0.15,0.1
			c0.9,0.24,1.84,0.47,2.79,0.71c3.26,0.8,6.8,1.55,10.53,1.88c0.529,0.05,1.06,0.09,1.6,0.12c0.23,0.01,0.47,0.03,0.71,0.04
			c4.36,0.19,10.561-0.14,13.11-4.46c0.01,0,0.02,0,0.03,0.01c0.01,0.021,0.01,0.04,0.01,0.061c0.04,0.01,0.08,0.02,0.109,0.029
			C201.916,211.59,201.905,211.62,201.896,211.67z"/>
		<path d="M200.516,209.13c0.07,0.11,0.16,0.22,0.23,0.33c0.39,0.39,0.64,0.88,0.819,1.41c0.05,0.18,0.101,0.36,0.15,0.55
			c-2.51,4.34-8.69,4.67-13.07,4.5c-0.24-0.01-0.479-0.03-0.71-0.04c-0.54-0.03-1.07-0.07-1.6-0.12c-3.71-0.34-7.23-1.08-10.48-1.88
			c-0.95-0.229-2.89-0.78-2.939-0.81c-4.48-1-9.07-2.57-13.73-4.44c-0.01,0-0.05-0.02-0.12-0.04c-0.029-0.02-0.06-0.04-0.1-0.06
			c-0.04,0-0.09-0.011-0.13-0.011c-0.54-0.199-1.58-0.56-2.17-0.85c-0.021-0.01-0.12-0.08-0.16-0.11c-0.01,0-0.01,0-0.021-0.01
			c-7.79-8.27-15.21-17.8-22.13-28.399c-0.02-0.03-0.04-0.061-0.06-0.091c0.02,0,0.03,0.011,0.05,0.011
			c-5.23-7.99-10.16-16.58-14.76-25.69c-0.09-0.17-0.17-0.35-0.26-0.52c-0.01,0-0.02-0.011-0.03-0.011
			c-4.43-8.81-8.38-17.619-11.79-26.33c0-0.01-0.01-0.01-0.01-0.02c0.03,0.01,0.05,0.02,0.07,0.02c-3.9-9.98-7.07-19.84-9.36-29.4
			c-0.02-0.01-0.03-0.01-0.05-0.02c-3.94-16.48-5.29-32.12-3.26-46.1c0.22-1.69,0.41-2.84,0.73-3.88c0.86-3.28,1.49-4.95,2.51-6.82
			c2.3-4.46,5.4-9.3,11.49-12.34c5.98-2.97,11.69-2.59,16.58-1.82c3.31,0.49,9.26,2.74,11.05,3.91c4.37,2.32,8.609,5.08,12.74,8.17
			c-2.73,8.61-4.591,18.03-5.65,28.05c-2.89-2.4-5.87-4.49-9-6.15c-0.31-0.22-4.12-1.96-5.28-2.16c-0.939-0.3-2.84-0.18-4.47,0.54
			c-1.81,0.81-3.32,2.3-3.82,3.77c-0.27,0.58-0.63,1.51-0.82,2.1c-0.2,0.66-0.32,1.32-0.41,1.95c-1.76,12.31,0.82,27,5.92,42.52
			c3.78,11.48,8.93,23.41,14.76,35.2c0,0.01,0.01,0.01,0.01,0.02c0.49,1,0.99,2.011,1.5,3c1.96,3.891,4.15,7.811,6.431,11.61
			c1.649,2.76,3.34,5.45,5.029,8c1.511,2.29,3,4.48,4.46,6.521c0.08,0.13,0.16,0.27,0.25,0.42c0.94,1.55,1.931,2.909,2.971,4.14
			c0,0.01,0.01,0.02,0.02,0.03c0.24,0.319,0.4,0.52,0.4,0.529c0.97,1.45,7.29,10.24,9.63,12.011c1.57,1.76,3.18,3.42,4.83,4.949
			c0,0,0.01,0.011,0.02,0.03c0.021,0.04,0.04,0.09,0.061,0.13c0.2,0.2,0.399,0.4,0.609,0.601c0.021,0.02,0.04,0.04,0.051,0.06
			c1.939,2.061,7.199,7.48,10.83,9.521c2.989,1.67,7.119,3.989,11.02,3.689c0.21-0.01,0.41-0.04,0.62-0.069
			C200.146,209.21,200.336,209.17,200.516,209.13z"/>
		<path d="M199.966,209.23c0.18-0.03,0.37-0.061,0.55-0.101C200.336,209.17,200.146,209.21,199.966,209.23z"/>
		<path d="M154.195,166.67c-0.01-0.03-0.02-0.07-0.029-0.1c0.01,0.01,0.01,0.02,0.02,0.029c-0.71-2.38-1.38-4.8-2.02-7.25h-0.011
			c-0.829-3.18-1.609-6.43-2.329-9.72c0-0.02-0.011-0.03-0.011-0.05c0.021,0.02,0.05,0.03,0.07,0.05
			c-1.54-7.06-2.82-14.36-3.83-21.88c-0.4-3.01-0.76-6.01-1.08-9c-0.02-0.01-0.03-0.02-0.05-0.03
			c-1.98-18.45-2.311-36.24-0.58-52.45c1.06-10.02,2.92-19.44,5.65-28.05c1.729-5.47,3.81-10.61,6.27-15.36
			c0.311-0.56,2.03-3.23,2.03-3.31c1.069-1.68,2.2-3.3,3.55-4.66c0.06-0.01,0.58-0.66,1-1.08c3.63-3.46,8.14-7.01,14.9-7.88
			c6.619-0.86,11.88,1.38,16.26,3.7c0.609,0.37,1.17,0.79,1.24,0.79c1.989,1.38,3.46,2.54,5.08,3.88c0.01,0.06,2.47,2.31,2.829,2.66
			c5.671,6.1,10.57,13.2,14.96,20.98c0.671,1.24,1.421,2.43,2.021,3.72c0.01,0.06,1.52,2.82,2.09,4.27
			c0.01,0.07,3.76,8.9,5.58,13.31c0.01,0.06,0.62,1.76,0.63,1.82c0.49,1.33,1.021,2.67,1.48,3.98c4.399,13.98,8.39,28.5,10.79,45.09
			c0.01,0.06,0.02,0.12,0.02,0.19c1.72,9.99,2.601,20.57,3.09,30.161c0.011,0.06,0.12,1.149,0.12,2.27
			c0.26,6.84,0.26,13.49,0.01,19.94c-0.279,7.04-1.71,19.67-1.8,20.569c-1,6.57-2.41,13.12-4.27,19.181
			c0,0.09-1.29,4.449-2.19,6.369c0.01,0.07-3.18,7.58-5.16,10.98c0.07-0.29,0.13-0.59,0.17-0.89c0.24-1.11,0.42-2.261,0.53-3.48
			c0-2.3-0.13-2.26-0.37-3.57c-0.229-1.22-0.569-2.319-0.649-2.619v-0.011c0.39-2.79,0.729-8.54,0.699-8.6
			c0.221-2.12-0.1-4.42,0.061-6.561c-0.03-0.06-0.05-0.109-0.08-0.17c-0.24-6.34-1.24-12.93-2.26-19.52
			c-0.03-0.061-0.061-0.12-0.09-0.17c-1.351-6.521-2.91-13.11-4.95-19.86c-0.88-2.88-1.83-5.79-2.84-8.72
			c-0.04-0.8-0.07-1.601-0.11-2.41c-0.2-3.44-0.32-6.9-0.61-10.18c-1.17-11.95-3.08-24.33-5.649-35.14
			c-0.66-2.43-1.351-4.9-1.94-7.34c0-0.06-0.37-1.4-0.38-1.47c-0.77-3.24-1.68-6.28-2.75-9.12c0-0.07-0.01-0.13-0.02-0.19
			c-1.761-5.81-3.931-11.09-6.171-16.27c-3.189-7.15-6.88-13.66-11.63-18.77c-0.21-0.3-0.859-0.77-0.87-0.83
			c-0.289-0.36-1.069-0.93-1.079-0.99c-0.431-0.47-1.891-1.59-2.4-1.87c-2.12-1.92-7.32-0.89-9.07,1.31
			c-0.42,0.36-2.3,2.83-2.59,3.39c-1.89,3.67-3.42,7.75-4.62,12.16c-2.729,9.96-3.81,21.6-3.75,34.07
			c0.05,11.94,1.15,24.63,2.851,37.32c0.3,2.25,0.659,4.54,1.06,6.82c0.8,4.56,1.78,9.12,2.83,13.46c0.81,3.38,1.67,6.62,2.55,9.63
			c0.41,2.12,2.33,7.83,2.681,8.89c-0.011-0.01-0.03-0.01-0.04-0.02c0.159,0.449,1.239,3.449,1.979,5.46
			c0.01,0.029,0.021,0.05,0.021,0.069c0.06,0.17,0.119,0.341,0.18,0.49c0.02,0.08,0.05,0.16,0.08,0.23
			c0.149,0.439,0.27,0.8,0.35,1.01c0.15,0.41,0.32,0.86,0.51,1.33c0.051,0.14,0.11,0.27,0.16,0.41c1.15,3.01,2.41,5.89,3.82,8.56
			c0.06,0.11,0.1,0.21,0.14,0.28c0,0.06,0.011,0.13,0.021,0.189c2.02,4.11,4.35,8.74,7.64,13.03c1.24,1.63,3.66,5.351,5.26,7.83
			c0,0.01,0.011,0.021,0.021,0.03c0.43,0.72,0.649,1.13,0.59,1.109c0.24,0.341,0.49,0.681,0.71,1.03
			c-0.18,0.04-0.37,0.07-0.55,0.101c-0.21,0.029-0.41,0.05-0.62,0.069c-3.91,0.28-8.16-2.17-11.02-4.06
			c-4.211-2.771-7.74-6.101-10.83-9.15c-0.011-0.02-0.03-0.04-0.051-0.06c-0.359-0.391-0.6-0.65-0.67-0.73
			c-0.01-0.02-0.02-0.03-0.02-0.03c-1.65-1.529-3.26-3.189-4.83-4.949c-1.64-1.84-4.87-5.91-4.9-5.96
			c-0.609-0.41-1.66-2.051-1.689-2.101c-1.09-1.09-3.101-4.06-3.13-4.12c-0.101-0.12-0.2-0.239-0.311-0.359
			c-0.01-0.011-0.02-0.021-0.02-0.03c-0.7-0.91-2.09-2.75-2.971-4.14c-0.09-0.15-0.17-0.29-0.25-0.42
			C157.195,171.15,155.706,168.96,154.195,166.67z"/>
		<path d="M199.346,209.3c0.21-0.02,0.41-0.04,0.62-0.069C199.756,209.26,199.556,209.29,199.346,209.3z"/>
		<path d="M188.326,205.24c2.859,1.89,7.109,4.34,11.02,4.06c-3.9,0.3-8.03-2.02-11.02-3.689c-3.631-2.04-8.891-7.46-10.83-9.521
			C180.586,199.14,184.115,202.47,188.326,205.24z"/>
		<path d="M186.365,186.12c1.711,3.47,10.41,16.83,12.83,20.84c-1.6-2.479-4.02-6.2-5.26-7.83c-3.29-4.29-5.62-8.92-7.64-13.03
			c-0.01-0.06-0.021-0.13-0.021-0.189C186.336,186.04,186.365,186.11,186.365,186.12z"/>
		<path d="M189.485,172.5c0.061,0.01,11.71,5.95,16.86,9.35c0.16,0.101,4.35,2.801,5.94,4.221c0.06,0.01,3.01,2.38,4.579,3.779
			c-1.59-1.39-4.449-3.689-4.51-3.699c-1.689-1.33-5.41-3.92-5.47-3.931c-0.16-0.1-17.271-9.64-17.33-9.64
			c-3.4-1.521-6.84-3-10.39-4.41c-0.011-0.02-0.011-0.04-0.021-0.06C182.666,169.51,186.115,170.99,189.485,172.5z"/>
		<path d="M182.315,177.07c1.28,3.149,3.17,7.17,3.82,8.56C184.726,182.96,183.466,180.08,182.315,177.07z"/>
		<path d="M181.036,173.6c0.069,0.17,0.119,0.33,0.18,0.49C181.155,173.94,181.096,173.77,181.036,173.6z"/>
		<path d="M179.796,170.14c0.24,0.551,0.78,2.101,1.22,3.391c-0.74-2.011-1.82-5.011-1.979-5.46c0.01,0.01,0.029,0.01,0.04,0.02
			c0.01,0.021,0.02,0.04,0.02,0.05c0.02,0.011,0.05,0.021,0.07,0.03C179.466,169.08,179.726,169.89,179.796,170.14z"/>
		<path d="M179.146,168.11c0.01,0.02,0.01,0.04,0.021,0.06c-0.021-0.01-0.051-0.02-0.07-0.03c0-0.01-0.01-0.029-0.02-0.05
			C179.096,168.1,179.126,168.1,179.146,168.11z"/>
		<path d="M179.076,168.09c-0.351-1.06-2.271-6.77-2.681-8.89c-0.88-3.01-1.74-6.25-2.55-9.63c0.83,3.38,1.7,6.62,2.58,9.63
			c0.43,2.149,1.18,4.069,1.729,5.84c0.011,0.04,0.53,1.65,0.99,3.07C179.126,168.1,179.096,168.1,179.076,168.09z"/>
		<path d="M175.806,213.88c-0.95-0.24-1.89-0.47-2.79-0.71c-0.05-0.03-0.1-0.07-0.15-0.1c-4.479-1-9.079-2.57-13.739-4.44
			c-0.021-0.01-0.04-0.02-0.061-0.04c0.07,0.021,0.11,0.04,0.12,0.04c4.66,1.87,9.25,3.44,13.73,4.44
			c0.05,0.029,1.989,0.58,2.939,0.81c3.25,0.8,6.771,1.54,10.48,1.88C182.605,215.43,179.065,214.68,175.806,213.88z"/>
		<path d="M171.926,190.32c-2.34-1.771-8.66-10.561-9.63-12.011c0-0.01-0.16-0.21-0.4-0.529c0.11,0.12,0.21,0.239,0.311,0.359
			c0.029,0.061,2.04,3.03,3.13,4.12c0.029,0.05,1.08,1.69,1.689,2.101C167.056,184.41,170.286,188.48,171.926,190.32z"/>
		<path d="M158.836,208.52c-0.69-0.079-1.46-0.47-2.221-0.85c-0.02-0.01-0.039-0.03-0.06-0.04c-0.02-0.03-0.05-0.05-0.07-0.08
			c0.011,0.01,0.011,0.01,0.021,0.01c0.04,0.03,0.14,0.101,0.16,0.11C157.256,207.96,158.296,208.32,158.836,208.52z"/>
		<path d="M154.186,166.6c-0.01-0.01-0.01-0.02-0.02-0.029c-0.7-2.34-1.36-4.721-1.99-7.141c-0.01-0.029-0.01-0.05-0.021-0.08h0.011
			C152.806,161.8,153.476,164.22,154.186,166.6z"/>
		<path d="M149.386,158.63c0.77,0.101,1.11,0.51,2.01,0.51c0.26,0.07,0.5,0.141,0.76,0.21c0.011,0.03,0.011,0.051,0.021,0.08
			c0.63,2.42,1.29,4.801,1.99,7.141c-1.681-2.551-3.37-5.23-5.011-7.98c0.011,0,0.03,0.01,0.04,0.01
			C149.256,158.61,149.315,158.62,149.386,158.63z"/>
		<path d="M159.036,228.51c-1.521,0.24-3.24,0.21-4.98,0.15c-0.06-0.01-0.12-0.021-0.19-0.03c-1.899,0.17-3.909,0.19-6.09-0.02
			c-0.489-0.011-0.989-0.021-1.489-0.03c-0.07-0.03-0.131-0.05-0.2-0.08c0.05,0,0.09,0,0.14,0c0.49,0.01,1,0.03,1.48,0.03
			c2.239,0.1,6.22,0.04,6.29,0.05c1.739,0.06,5.1-0.13,5.159-0.12c0.91,0.04,2.631-0.15,2.69-0.14c5.02-0.181,9.83-0.84,14.36-1.521
			c0.06,0.01,1.359-0.16,1.949-0.26c2.171-0.37,4.46-0.81,6.78-1.39c2.03-0.5,4.08-1.101,6.13-1.87
			c4.59-1.73,11.75-5.07,10.83-11.61c0.01-0.05,0.021-0.08,0.01-0.11c0.061,0.03,0.091,0.08,0.051,0.19
			c0.92,6.54-6.24,9.87-10.82,11.61c-2.05,0.77-4.11,1.37-6.13,1.87c-2.33,0.579-4.61,1.01-6.78,1.39c-0.6,0.1-1.189,0.2-1.77,0.29
			c-0.061-0.01-0.13-0.021-0.19-0.03c-4.49,0.91-9.33,1.34-14.35,1.521c-0.061-0.011-0.12-0.021-0.19-0.03
			c-0.68,0.26-1.6,0.2-2.5,0.17C159.166,228.53,159.105,228.52,159.036,228.51z"/>
		<path d="M146.056,127.75c1.01,7.52,2.29,14.82,3.83,21.88c-0.021-0.02-0.05-0.03-0.07-0.05c-1.54-7.04-2.81-14.34-3.81-21.83
			c-0.41-3.01-0.76-6.01-1.08-9c0-0.01,0-0.02,0-0.03c0.02,0.01,0.03,0.02,0.05,0.03C145.296,121.74,145.655,124.74,146.056,127.75z
			"/>
		<path d="M126.526,108.84c6.06,2.95,12.19,6.19,18.4,9.88c0,0.01,0,0.02,0,0.03c0.32,2.99,0.67,5.99,1.08,9
			c1,7.49,2.27,14.79,3.81,21.83c-2.819-1.9-5.67-3.75-8.54-5.54C135.456,132.25,130.296,120.32,126.526,108.84z"/>
		<path d="M119.605,153.46c4.57,9.08,9.49,17.64,14.69,25.6c-11.51-2.22-23.57-3.89-34.37-4.529c-0.2,0-0.41-0.021-0.62-0.03
			c-3.84-2.91-7.53-5.88-11.03-8.88c-1.14-0.98-2.26-1.97-3.36-2.95c-0.02-0.03-0.05-0.05-0.07-0.07c-2.77-2.51-5.4-5.05-7.88-7.6
			c-1.51-1.58-2.97-3.17-4.35-4.76c0.11-0.021,0.23-0.03,0.33-0.05c14.65-0.19,29.7,0.18,46.28,2.649c0.03,0.01,0.05,0.01,0.07,0.01
			c0.01,0.03,0.02,0.061,0.04,0.091C119.426,153.11,119.516,153.29,119.605,153.46z"/>
		<path d="M119.585,153.38c4.6,9.11,9.53,17.7,14.76,25.69c-0.02,0-0.03-0.011-0.05-0.011c-5.2-7.96-10.12-16.52-14.69-25.6
			c-0.09-0.17-0.18-0.35-0.27-0.52c-0.02-0.03-0.03-0.061-0.04-0.091c0.01,0,0.02,0.011,0.03,0.011
			C119.416,153.03,119.496,153.21,119.585,153.38z"/>
		<path d="M98.206,97.12c2.29,9.56,5.46,19.42,9.36,29.4c-0.02,0-0.04-0.01-0.07-0.02c-3.89-9.97-7.05-19.83-9.34-29.38
			c0-0.01,0-0.01,0-0.02C98.176,97.11,98.186,97.11,98.206,97.12z"/>
		<path d="M63.426,175.45c-0.01,0-0.01,0-0.02,0c-3.26-3.061-6.36-6.16-9.29-9.311C57.056,169.28,60.156,172.38,63.426,175.45z"/>
		<path d="M43.616,153.67c0.02,0.021,0.03,0.04,0.05,0.061c0.33,0.449,0.67,0.89,1.02,1.34c2.88,3.729,6.04,7.43,9.43,11.069
			c2.93,3.15,6.03,6.25,9.29,9.311c-7.64,1.01-14.81,2.649-20.98,5.689c-0.56,0.301-0.97,0.601-1.05,0.601
			c-0.9,0.479-2.87,1.64-3.85,2.41c-2.27,1.649-3.33,6.939-1.4,9.31c0.21,0.47,2.2,2.86,2.66,3.3
			c16.12,15.58,46.73,24.271,78.42,29.36c9.62,1.54,20.03,2.25,28.88,2.38c0.069,0.03,0.13,0.05,0.2,0.08
			c0.5,0.01,1,0.02,1.489,0.03c2.181,0.21,4.19,0.189,6.09,0.02c0.07,0.01,0.131,0.021,0.19,0.03c1.74,0.06,3.46,0.09,4.98-0.15
			c0.069,0.01,0.13,0.021,0.189,0.03c0.9,0.03,1.82,0.09,2.5-0.17c0.07,0.01,0.13,0.02,0.19,0.03c5.02-0.181,9.859-0.61,14.35-1.521
			c0.061,0.01,0.13,0.021,0.19,0.03c0.58-0.09,1.17-0.19,1.77-0.29c2.17-0.38,4.45-0.811,6.78-1.39c2.02-0.5,4.08-1.101,6.13-1.87
			c4.58-1.74,11.74-5.07,10.82-11.61c0.04-0.11,0.01-0.16-0.051-0.19c-0.02-0.05-0.06-0.079-0.119-0.09
			c0-0.02-0.011-0.029-0.011-0.05c-0.01,0.01-0.02,0.03-0.02,0.04c-0.01-0.01-0.01-0.01-0.021-0.01c-0.01-0.03-0.02-0.07-0.029-0.11
			c-0.04-0.16-0.08-0.32-0.141-0.47c-0.17-0.57-0.43-1.08-0.83-1.49c-0.02-0.04-0.649-1.02-1.52-2.39
			c-0.01-0.01-0.021-0.021-0.021-0.03c-2.42-4.01-11.119-17.37-12.83-20.84c0-0.01-0.029-0.08-0.09-0.21
			c-0.04-0.07-0.08-0.17-0.14-0.28c-0.65-1.39-2.54-5.41-3.82-8.56c-0.05-0.141-0.109-0.271-0.16-0.41
			c-0.18-0.47-0.35-0.94-0.52-1.41c-0.06-0.16-0.18-0.49-0.34-0.93c-0.03-0.07-0.061-0.15-0.08-0.23
			c-0.061-0.16-0.11-0.32-0.18-0.49c0-0.02-0.011-0.04-0.021-0.069c-0.439-1.29-0.979-2.84-1.22-3.391
			c-0.07-0.25-0.33-1.06-0.63-1.97c3.55,1.41,6.989,2.89,10.39,4.41c0.06,0,17.17,9.54,17.33,9.64c0.06,0.011,3.78,2.601,5.47,3.931
			c0.061,0.01,2.92,2.31,4.51,3.699c0.08,0.07,0.16,0.141,0.23,0.2c0.02,0.021,0.05,0.04,0.07,0.07c0.52,0.47,1.029,0.95,1.529,1.43
			c0.03,0.021,0.051,0.04,0.07,0.07c0.5,0.479,1,0.97,1.48,1.46c0.06,0.06,0.119,0.12,0.17,0.18c0.449,0.46,0.89,0.931,1.319,1.4
			c0.48,0.53,0.96,1.07,1.41,1.63c0.46,0.55,0.91,1.11,1.34,1.69c0.431,0.569,0.851,1.149,1.25,1.739
			c0.021,0.03,0.03,0.061,0.061,0.08c0.76,1.15,1.479,2.34,2.12,3.58c0.02,0.04,0.029,0.08,0.04,0.12c0.26,0.5,0.54,0.98,0.77,1.49
			c0.08,0.149,0.13,0.24,0.18,0.33c0.021,0.04,0.04,0.08,0.061,0.13c0.01,0.04,0.03,0.09,0.04,0.149c0.53,1.12,0.729,2.48,1.2,3.65
			c0,0.36,0.75,2.81,0.75,6.25c-0.11,1.19-0.11,2.32-0.261,3.4c-0.06,0.27-0.119,0.54-0.189,0.81c-1.51,6.1-4.891,10.48-8.48,13.87
			c-0.46,0.45-1.319,1.06-1.33,1.12c-1.35,1.04-2.42,1.89-3.75,2.81c-0.319,0.2-0.819,0.69-1.75,1.141
			c-0.42,0.26-1.75,0.949-2.17,1.109c-26.649,12.471-63.689,15.34-104.19,8.851c-40.38-6.48-76.21-19.4-97.5-40.04
			c-0.52-0.521-2.32-2.48-2.58-2.891c-1.42-1.64-3.23-4.29-4.19-6.01c-2.27-4.479-4.37-9.82-3.26-16.54
			c1.09-6.59,4.75-10.99,8.24-14.51c1.76-1.76,4.41-3.44,6.28-4.71c0.7-0.45,1.31-0.95,3.37-1.94c7.47-3.67,15.69-6.319,24.4-8.29
			C43.605,153.68,43.605,153.68,43.616,153.67z"/>
	</g>
	<g>
		<path fill="none" stroke="#231F20" stroke-width="0.1446" d="M227.876,203.24c0.02,0.05,0.029,0.09,0.04,0.14"/>
		<path fill="none" stroke="#231F20" stroke-width="0.1446" d="M167.105,91.97c0.75,1.07,5.87,8.78,7.29,10.86
			c5.97,9.36,11.84,20.43,16.87,31.34c1.34,3,2.59,6.23,3.9,9.42c2.529,6.141,4.699,11.98,6.47,17.82c0.22,0.74,0.46,1.51,0.71,2.26
			"/>
		<path fill="none" stroke="#231F20" stroke-width="0.1446" d="M220.746,145.62c-1.15-3.34-4.11-11.36-4.48-12.04
			c-0.03-0.061-0.05-0.12-0.08-0.17c-3.62-8.91-7.92-18.61-12.82-27.49c-0.029-0.05-0.05-0.11-0.079-0.17
			c-7.71-14.88-16.24-27.29-24.98-39.05c-0.89-0.93-3.86-4.73-3.89-4.79c-1.19-1.34-2.37-2.68-3.561-4.01"/>
		<path fill="none" stroke="#231F20" stroke-width="0.1446" d="M188.646,215.92c4.38,0.17,10.561-0.16,13.07-4.5
			c-0.05-0.189-0.101-0.37-0.15-0.55c-0.18-0.53-0.43-1.021-0.819-1.41c-0.07-0.11-0.16-0.22-0.23-0.33"/>
		<path fill="none" stroke="#231F20" stroke-width="0.1446" d="M158.836,208.52c0.04,0,0.09,0.011,0.13,0.011
			c0.04,0.02,0.07,0.04,0.1,0.06"/>
		<path fill="none" stroke="#231F20" stroke-width="0.1446" d="M134.296,179.06c0.02,0.03,0.04,0.061,0.06,0.091
			c6.92,10.6,14.34,20.13,22.13,28.399"/>
		<path fill="none" stroke="#231F20" stroke-width="0.1446" d="M107.496,126.5c0,0.01,0.01,0.01,0.01,0.02
			c3.41,8.71,7.36,17.52,11.79,26.33"/>
		<path fill="none" stroke="#231F20" stroke-width="0.1446" d="M149.996,38.22c-4.131-3.09-8.37-5.85-12.74-8.17
			c-1.79-1.17-7.74-3.42-11.05-3.91c-4.89-0.77-10.6-1.15-16.58,1.82c-6.09,3.04-9.19,7.88-11.49,12.34
			c-1.02,1.87-1.65,3.54-2.51,6.82c-0.32,1.04-0.51,2.19-0.73,3.88c-2.03,13.98-0.68,29.62,3.26,46.1"/>
		<path fill="none" stroke="#231F20" stroke-width="0.1446" d="M154.195,166.67c-1.689-2.55-3.38-5.24-5.029-8
			c-2.28-3.8-4.471-7.72-6.431-11.61c-0.51-0.989-1.01-2-1.5-3c0-0.01-0.01-0.01-0.01-0.02c-5.83-11.79-10.979-23.72-14.76-35.2
			c-5.1-15.52-7.68-30.21-5.92-42.52c0.09-0.63,0.21-1.29,0.41-1.95c0.19-0.59,0.55-1.52,0.82-2.1c0.5-1.47,2.01-2.96,3.82-3.77
			c1.63-0.72,3.53-0.84,4.47-0.54c1.16,0.2,4.971,1.94,5.28,2.16c3.13,1.66,6.11,3.75,9,6.15"/>
		<path fill="none" stroke="#231F20" stroke-width="0.1446" d="M161.876,177.75c-1.04-1.23-2.03-2.59-2.971-4.14"/>
		<path fill="none" stroke="#231F20" stroke-width="0.1446" d="M177.445,196.03c-0.21-0.2-0.409-0.4-0.609-0.601
			c-0.021-0.04-0.04-0.09-0.061-0.13"/>
		<path fill="none" stroke="#231F20" stroke-width="0.1446" d="M144.926,118.72c-6.21-3.69-12.34-6.93-18.4-9.88
			c3.77,11.48,8.93,23.41,14.75,35.2c2.87,1.79,5.721,3.64,8.54,5.54"/>
		<path fill="none" stroke="#231F20" stroke-width="0.1446" d="M225.796,199.8c0.75,1.101,1.45,2.25,2.08,3.44
			c0.05,0.08,0.09,0.17,0.14,0.26v-0.01c-1.33-4.41-3.28-8.681-5.43-12.91c-0.061-0.04-3.38-5.74-3.57-5.91
			c-0.16-0.25-0.32-0.49-0.479-0.74c-3.301-5.1-7.28-10.06-11.29-15.01c-0.051-0.03-3.25-3.49-4.83-5.17
			c-0.03-0.03-0.051-0.05-0.07-0.08c-3.02-3.2-6.16-6.39-9.52-9.52c-4.73-4.391-9.771-8.721-15.141-12.99
			c-0.82-0.37-0.96-0.88-1.63-1.28c-0.05-0.04-0.1-0.07-0.16-0.11c-1.56-1.199-3.18-2.43-4.819-3.659
			c0.8,4.56,1.739,9.12,2.77,13.46"/>
		<path fill="none" stroke="#231F20" stroke-width="0.1446" d="M223.146,196.29c0.47,0.55,0.92,1.11,1.34,1.69
			c0.44,0.569,0.86,1.14,1.25,1.739"/>
		<path fill="none" stroke="#231F20" stroke-width="0.1446" d="M63.406,175.45c0.03,0.03,0.05,0.05,0.08,0.08
			c11.32,10.62,24.56,20.739,39.01,30.14c14.57,9.48,29.26,17.17,43.59,22.83"/>
		<path fill="none" stroke="#231F20" stroke-width="0.1446" d="M72.616,150.24c-5.8-6.681-10.33-13.51-13.12-20.38
			c-0.24-0.58-1.04-3.041-1.04-4.17c-0.06-1.02,0.11-2.84,1.08-4.48c0.98-1.64,2.41-2.83,4-3.19c0.78-0.27,2.34-0.65,2.97-0.66
			c0.06,0.03,2.29-0.33,2.66-0.3c6.98-0.27,14.31,1.17,21.82,3.41c5.39,1.68,10.8,3.48,16.36,5.93c0.05,0.03,0.1,0.06,0.15,0.1
			c0.03,0.01,0.05,0.02,0.07,0.02c-3.9-9.98-7.07-19.84-9.36-29.4c-0.02-0.01-0.03-0.01-0.05-0.02c-2.63-0.86-5.27-1.7-7.88-2.47
			c-0.06-0.03-3.12-0.8-4.61-1.2c-0.05-0.03-2.92-0.69-4.3-0.99c-8.75-1.74-17.34-2.65-25.66-2.32c-0.69,0-3.81,0.44-3.86,0.4
			c-2.23,0.38-4.14,0.76-6.25,1.33c-0.04,0.05-0.76,0.13-1.41,0.43c-4.61,1.8-9.74,4.34-13.41,9.92
			c-3.74,5.69-3.99,11.43-3.73,16.44c0,0.61,0.14,1.14,0.17,1.46c0.31,1.88,0.69,3.79,1.22,5.73c0.26,0.83,0.6,2.15,1.19,3.689
			c3.31,8.2,8.07,16.301,14.04,24.211c0.01,0.01,0.01,0.01,0.02,0.02c0.33,0.44,0.67,0.88,1,1.32"/>
		<path fill="none" stroke="#231F20" stroke-width="0.1446" d="M84.846,162.6c-2.78-2.5-5.42-5.04-7.88-7.6"/>
		<path fill="none" stroke="#231F20" stroke-width="0.1446" d="M201.756,211.46c-2.55,4.32-8.75,4.65-13.11,4.46
			c-0.24-0.01-0.479-0.03-0.71-0.04c-0.54-0.03-1.07-0.07-1.6-0.12c-3.71-0.34-7.23-1.08-10.48-1.88
			c-0.95-0.229-2.89-0.78-2.939-0.81c-4.48-1-9.07-2.57-13.73-4.44c-0.01,0-0.05-0.02-0.12-0.04c-0.06-0.02-0.14-0.05-0.229-0.07
			c-0.54-0.199-1.58-0.56-2.17-0.85c-0.021-0.01-0.12-0.08-0.16-0.11c-0.01,0-0.01,0-0.021-0.01c-1.479-0.39-3.04-1.1-4.59-1.859
			c-0.06-0.04-0.109-0.07-0.16-0.11c-1.81-0.61-3.659-1.41-5.569-2.5c-8.36-3.771-18.23-8.94-26.9-14.57
			c-6.87-4.47-13.57-9.13-19.89-13.93c-3.86-2.93-7.58-5.91-11.1-8.96c-1.14-0.97-2.26-1.96-3.36-2.95"/>
		<path fill="none" stroke="#231F20" stroke-width="0.1446" d="M201.905,211.56c-0.029-0.01-0.069-0.02-0.109-0.029
			c0-0.021,0-0.04-0.01-0.061"/>
		<path fill="none" stroke="#231F20" stroke-width="0.1446" d="M88.276,165.62c3.5,3,7.19,5.97,11.03,8.88
			c0.21,0.01,0.42,0.03,0.62,0.03c10.8,0.64,22.86,2.31,34.37,4.529c0.02,0,0.03,0.011,0.05,0.011
			c-5.23-7.99-10.16-16.58-14.76-25.69c-0.09-0.17-0.17-0.35-0.26-0.52c-0.01,0-0.02-0.011-0.03-0.011c-0.02,0-0.04,0-0.07-0.01
			c-16.58-2.47-31.63-2.84-46.28-2.649c-0.1,0.02-0.22,0.029-0.33,0.05c1.38,1.59,2.84,3.18,4.35,4.76c2.48,2.55,5.11,5.09,7.88,7.6
			c0.02,0.021,0.05,0.04,0.07,0.07C86.016,163.65,87.136,164.64,88.276,165.62z"/>
		<path fill="none" stroke="#231F20" stroke-width="0.1446" d="M152.155,159.35c-0.26-0.069-0.5-0.14-0.76-0.21
			c-0.899,0-1.24-0.409-2.01-0.51c-0.07-0.01-0.13-0.02-0.19-0.03c-0.01,0-0.029-0.01-0.04-0.01c1.641,2.75,3.33,5.43,5.011,7.98"/>
		<path fill="none" stroke="#231F20" stroke-width="0.1446" d="M199.216,206.99c0.87,1.37,1.5,2.35,1.52,2.39
			c0.4,0.41,0.66,0.92,0.83,1.49c0.061,0.149,0.101,0.31,0.141,0.47c0.01,0.04,0.02,0.08,0.029,0.11c0.011,0,0.011,0,0.021,0.01
			c0.01,0,0.02,0,0.03,0.01c0.06,0.011,0.1,0.04,0.119,0.09c0.011,0.03,0,0.061-0.01,0.11c0.92,6.54-6.24,9.88-10.83,11.61
			c-2.05,0.77-4.1,1.37-6.13,1.87c-2.32,0.58-4.609,1.02-6.78,1.39c-0.59,0.1-1.89,0.27-1.949,0.26
			c-4.53,0.681-9.341,1.34-14.36,1.521c-0.06-0.011-1.78,0.18-2.69,0.14c-0.06-0.01-3.42,0.18-5.159,0.12
			c-0.07-0.01-4.051,0.05-6.29-0.05c-0.48,0-0.99-0.021-1.48-0.03c-0.05,0-0.09,0-0.14,0c-8.851-0.13-19.26-0.84-28.88-2.38
			c-31.69-5.09-62.3-13.78-78.42-29.36c-0.46-0.439-2.45-2.83-2.66-3.3c-1.93-2.37-0.87-7.66,1.4-9.31
			c0.98-0.771,2.95-1.931,3.85-2.41c0.08,0,0.49-0.3,1.05-0.601c6.17-3.04,13.34-4.68,20.98-5.689c0.01,0,0.01,0,0.02,0
			c-3.27-3.07-6.37-6.17-9.31-9.311c-3.39-3.64-6.55-7.34-9.43-11.069c-0.35-0.45-0.69-0.891-1.02-1.34
			c-0.02-0.021-0.03-0.04-0.05-0.061c-0.01,0.01-0.01,0.01-0.02,0.01c-8.71,1.971-16.93,4.62-24.4,8.29
			c-2.06,0.99-2.67,1.49-3.37,1.94c-1.87,1.27-4.52,2.95-6.28,4.71c-3.49,3.52-7.15,7.92-8.24,14.51
			c-1.11,6.72,0.99,12.061,3.26,16.54c0.96,1.72,2.77,4.37,4.19,6.01c0.26,0.41,2.06,2.37,2.58,2.891
			c21.29,20.64,57.12,33.56,97.5,40.04c40.5,6.489,77.541,3.62,104.19-8.851c0.42-0.16,1.75-0.85,2.17-1.109
			c0.931-0.45,1.431-0.94,1.75-1.141c1.33-0.92,2.4-1.77,3.75-2.81c0.011-0.061,0.87-0.67,1.33-1.12
			c3.59-3.39,6.971-7.771,8.48-13.87c0.07-0.27,0.13-0.54,0.189-0.81"/>
		<path fill="none" stroke="#231F20" stroke-width="0.1446" d="M181.296,174.32c0.16,0.439,0.28,0.77,0.34,0.93
			c0.17,0.47,0.34,0.94,0.52,1.41"/>
		<path fill="none" stroke="#231F20" stroke-width="0.1446" d="M230.206,209.22c0-0.02-0.011-0.04-0.011-0.05
			c-0.229-0.99-0.83-2.77-1.229-3.72c-0.021-0.05-0.04-0.09-0.061-0.13c-0.069-0.181-0.14-0.32-0.189-0.41
			c-0.23-0.51-0.51-0.99-0.771-1.48c-0.01-0.02-0.02-0.029-0.029-0.05c-0.641-1.24-1.36-2.43-2.12-3.58
			c-0.03-0.02-0.04-0.05-0.061-0.08c-0.399-0.59-0.819-1.17-1.25-1.739c-0.43-0.58-0.88-1.141-1.34-1.69
			c-0.45-0.56-0.93-1.1-1.41-1.63c-0.43-0.47-0.87-0.94-1.319-1.4c-0.051-0.06-0.11-0.12-0.17-0.18c-0.48-0.5-0.971-0.98-1.48-1.46
			c-0.02-0.03-0.04-0.05-0.07-0.07c-0.5-0.49-1.01-0.96-1.529-1.43c-0.021-0.03-0.051-0.05-0.07-0.07c-0.07-0.06-0.15-0.13-0.23-0.2
			c-1.569-1.399-4.52-3.77-4.579-3.779c-1.591-1.42-5.78-4.12-5.94-4.221c-5.15-3.399-16.8-9.34-16.86-9.35
			c-3.37-1.51-6.819-2.99-10.34-4.39"/>
		<path fill="none" stroke="#231F20" stroke-width="0.1446" d="M202.525,209.47c0,0.011,0,0.03-0.02,0.05
			c-0.021,0.03-0.03,0.051-0.04,0.061"/>
		<path fill="none" stroke="#231F20" stroke-width="0.1446" d="M230.695,218.9c-0.04,0.3-0.1,0.6-0.17,0.89
			c1.98-3.4,5.17-10.91,5.16-10.98c0.9-1.92,2.19-6.279,2.19-6.369c1.859-6.061,3.27-12.61,4.27-19.181
			c0.09-0.899,1.521-13.529,1.8-20.569c0.25-6.45,0.25-13.101-0.01-19.94c0-1.12-0.109-2.21-0.12-2.27
			c-0.489-9.591-1.37-20.17-3.09-30.161c0-0.07-0.01-0.13-0.02-0.19c-2.4-16.59-6.391-31.11-10.79-45.09
			c-0.46-1.31-0.99-2.65-1.48-3.98c-0.01-0.06-0.62-1.76-0.63-1.82c-1.82-4.41-5.57-13.24-5.58-13.31
			c-0.57-1.45-2.08-4.21-2.09-4.27c-0.6-1.29-1.35-2.48-2.021-3.72c-4.39-7.78-9.289-14.88-14.96-20.98
			c-0.359-0.35-2.819-2.6-2.829-2.66c-1.62-1.34-3.091-2.5-5.08-3.88c-0.07,0-0.631-0.42-1.24-0.79c-4.38-2.32-9.641-4.56-16.26-3.7
			c-6.761,0.87-11.271,4.42-14.9,7.88c-0.42,0.42-0.94,1.07-1,1.08c-1.35,1.36-2.48,2.98-3.55,4.66c0,0.08-1.72,2.75-2.03,3.31
			c-2.46,4.75-4.54,9.89-6.27,15.36c-2.73,8.61-4.591,18.03-5.65,28.05c-1.73,16.21-1.4,34,0.58,52.45c0,0.01,0,0.02,0,0.03
			c0.32,2.99,0.67,5.99,1.08,9c1,7.49,2.27,14.79,3.81,21.83c0,0.02,0.011,0.03,0.011,0.05c0.72,3.29,1.5,6.54,2.329,9.72
			c0.011,0.03,0.011,0.051,0.021,0.08c0.63,2.42,1.29,4.801,1.99,7.141c0.01,0.029,0.02,0.069,0.029,0.1
			c1.511,2.29,3,4.48,4.46,6.521c0.08,0.13,0.16,0.27,0.25,0.42c0.881,1.39,2.271,3.229,2.971,4.14c0,0.01,0.01,0.02,0.02,0.03
			c0.24,0.319,0.4,0.52,0.4,0.529c0.97,1.45,7.29,10.24,9.63,12.011c1.57,1.76,3.18,3.42,4.83,4.949c0,0,0.01,0.011,0.02,0.03
			c0.07,0.08,0.311,0.34,0.67,0.73c0.021,0.02,0.04,0.04,0.051,0.06c1.939,2.061,7.199,7.48,10.83,9.521
			c2.989,1.67,7.119,3.989,11.02,3.689c0.21-0.01,0.41-0.04,0.62-0.069c0.18-0.021,0.37-0.061,0.55-0.101
			c-0.22-0.35-0.47-0.689-0.71-1.03c0.06,0.021-0.16-0.39-0.59-1.109c-0.01-0.01-0.021-0.021-0.021-0.03
			c-2.42-4.01-11.119-17.37-12.83-20.84c0-0.01-0.029-0.08-0.09-0.21c-0.04-0.07-0.08-0.17-0.14-0.28
			c-0.65-1.39-2.54-5.41-3.82-8.56c-0.05-0.141-0.109-0.271-0.16-0.41c-0.189-0.47-0.359-0.92-0.51-1.33
			c-0.08-0.21-0.2-0.57-0.35-1.01c-0.03-0.07-0.061-0.15-0.08-0.23c-0.061-0.16-0.11-0.32-0.18-0.49c0-0.02-0.011-0.04-0.021-0.069
			c-0.439-1.29-0.979-2.84-1.22-3.391c-0.07-0.25-0.33-1.06-0.63-1.97c-0.011-0.02-0.011-0.04-0.021-0.06
			c-0.46-1.42-0.979-3.03-0.99-3.07c-0.55-1.771-1.3-3.69-1.729-5.84c-0.88-3.01-1.75-6.25-2.58-9.63
			c-1.05-4.34-2.03-8.9-2.83-13.46c-0.4-2.28-0.76-4.57-1.06-6.82c-1.7-12.69-2.801-25.38-2.851-37.32
			c-0.06-12.47,1.021-24.11,3.75-34.07c1.2-4.41,2.73-8.49,4.62-12.16c0.29-0.56,2.17-3.03,2.59-3.39c1.75-2.2,6.95-3.23,9.07-1.31
			c0.51,0.28,1.97,1.4,2.4,1.87c0.01,0.06,0.79,0.63,1.079,0.99c0.011,0.06,0.66,0.53,0.87,0.83c4.75,5.11,8.44,11.62,11.63,18.77
			c2.24,5.18,4.41,10.46,6.171,16.27c0.01,0.06,0.02,0.12,0.02,0.19c1.07,2.84,1.98,5.88,2.75,9.12c0.01,0.07,0.38,1.41,0.38,1.47
			c0.59,2.44,1.28,4.91,1.94,7.34c2.569,10.81,4.479,23.19,5.649,35.14c0.29,3.279,0.41,6.739,0.61,10.18
			c0.04,0.81,0.07,1.61,0.11,2.41c1.01,2.93,1.96,5.84,2.84,8.72c2.04,6.75,3.6,13.34,4.95,19.86c0.029,0.05,0.06,0.109,0.09,0.17
			c1.02,6.59,2.02,13.18,2.26,19.52c0.03,0.061,0.05,0.11,0.08,0.17c-0.16,2.141,0.16,4.44-0.061,6.561
			c0.03,0.06-0.31,5.81-0.699,8.6v0.011c0,0.01,0,0.01,0,0.02c0,0.36,0.75,2.81,0.75,6.25
			C230.846,216.69,230.846,217.82,230.695,218.9z"/>
	</g>
</g>
<radialGradient id="SVGID_1_" cx="373.8867" cy="20.3267" r="140.1008" gradientTransform="matrix(0.5098 0 0 0.5098 -16.5201 121.4414)" gradientUnits="userSpaceOnUse">
	<stop  offset="0" style="stop-color:#FFFFFF"/>
	<stop  offset="1" style="stop-color:#3E85C6"/>
</radialGradient>
<path fill="url(#SVGID_1_)" stroke="#231F20" stroke-width="2" d="M237.848,200.391c0.215-2.084-0.1-4.341,0.061-6.445
	c-0.028-0.058-0.057-0.111-0.083-0.166c-0.23-6.224-1.212-12.691-2.219-19.17c-0.028-0.054-0.056-0.109-0.086-0.167
	c-1.324-6.398-2.857-12.867-4.863-19.493c-0.859-2.83-1.795-5.688-2.787-8.563c-1.131-3.283-4.032-11.155-4.396-11.827
	c-0.027-0.054-0.056-0.109-0.083-0.164c-3.552-8.742-7.777-18.271-12.581-26.985c-0.028-0.056-0.057-0.111-0.084-0.166
	c-7.57-14.615-15.945-26.797-24.526-38.35c-0.869-0.906-3.791-4.646-3.819-4.699c-1.167-1.315-2.331-2.63-3.499-3.939
	c-2.676,9.78-3.737,21.214-3.681,33.456c0.735,1.045,5.77,8.615,7.16,10.659c5.864,9.196,11.627,20.06,16.563,30.775
	c1.316,2.944,2.549,6.112,3.836,9.245c2.481,6.027,4.607,11.762,6.347,17.501c0.229,0.756,0.473,1.524,0.714,2.292
	c1.556,1.654,3.091,3.313,4.586,4.981c0.054,0.035,0.105,0.067,0.156,0.1c3.938,4.861,7.846,9.727,11.087,14.736
	c0.153,0.239,0.317,0.479,0.469,0.719c0.054,0.034,3.45,5.774,3.502,5.807c2.116,4.159,4.03,8.361,5.334,12.691
	c0.252,0.483,0.522,0.957,0.754,1.455c0.149,0.29,0.224,0.376,0.276,0.606c0.52,1.099,0.717,2.434,1.175,3.576
	C237.543,206.133,237.877,200.446,237.848,200.391z M208.01,208.74c-4.144,0.923-8.877-1.773-11.973-3.813
	c-4.43-2.921-8.084-6.467-11.279-9.631c-0.026-0.056-0.054-0.111-0.081-0.165c-1.623-1.498-3.198-3.13-4.742-4.859
	c-1.605-1.801-4.778-5.799-4.806-5.853c-0.603-0.396-1.631-2.006-1.659-2.062c-1.07-1.07-3.047-3.985-3.074-4.039
	c-1.231-1.415-2.402-3.005-3.487-4.867c-1.431-1.998-2.901-4.149-4.381-6.394c-1.656-2.514-3.316-5.154-4.938-7.86
	c-2.235-3.731-4.389-7.578-6.317-11.396c-0.5-0.988-0.992-1.979-1.481-2.971c-5.717-11.569-10.779-23.287-14.485-34.557
	c-5.014-15.244-7.542-29.662-5.815-41.753c0.086-0.613,0.205-1.266,0.4-1.91c0.186-0.577,0.541-1.496,0.811-2.063
	c0.484-1.438,1.971-2.91,3.746-3.698c1.6-0.711,3.472-0.828,4.392-0.537c1.136,0.197,4.881,1.905,5.179,2.122
	c3.072,1.629,6.006,3.684,8.841,6.042c1.045-9.841,2.865-19.091,5.543-27.543c-4.051-3.033-8.21-5.738-12.506-8.019
	c-1.757-1.155-7.599-3.354-10.846-3.845c-4.809-0.75-10.409-1.128-16.277,1.796c-5.987,2.981-9.03,7.729-11.282,12.108
	c-1.003,1.843-1.622,3.475-2.466,6.694c-0.314,1.022-0.506,2.157-0.721,3.818c-1.987,13.732-0.671,29.086,3.2,45.274
	c2.247,9.394,5.356,19.069,9.187,28.875c3.352,8.579,7.256,17.259,11.615,25.933c0.085,0.174,0.168,0.345,0.257,0.516
	c4.508,8.94,9.357,17.378,14.485,25.225c6.819,10.437,14.133,19.819,21.802,27.964c0.019,0.012,0.034,0.023,0.051,0.034
	c0.796,0.394,1.597,0.806,2.316,0.846c0.052,0.033,0.104,0.065,0.156,0.101c4.575,1.837,9.087,3.379,13.483,4.36
	c0.051,0.032,0.103,0.065,0.152,0.098c0.885,0.232,1.802,0.464,2.733,0.696c3.65,0.896,7.639,1.722,11.857,1.962
	c4.307,0.241,10.972,0.136,13.588-4.376c-0.179-0.74-0.447-1.419-0.955-1.926C208.162,208.953,208.081,208.852,208.01,208.74z"/>
<radialGradient id="SVGID_2_" cx="295.1836" cy="83.436" r="139.2309" gradientTransform="matrix(0.5098 0 0 0.5098 -16.5201 121.4414)" gradientUnits="userSpaceOnUse">
	<stop  offset="0" style="stop-color:#FFFFFF"/>
	<stop  offset="1" style="stop-color:#FFC938"/>
</radialGradient>
<path fill="url(#SVGID_2_)" stroke="#231F20" stroke-width="2" d="M158.292,150.318c-1.511-6.931-2.769-14.101-3.755-21.476
	c-0.396-2.961-0.747-5.905-1.062-8.835c-6.122-3.636-12.15-6.826-18.118-9.733c3.706,11.269,8.77,22.986,14.483,34.558
	C152.679,146.604,155.505,148.441,158.292,150.318z M229.673,190.528c-0.053-0.034-3.313-5.638-3.503-5.807
	c-0.152-0.241-0.315-0.479-0.469-0.721c-3.241-5.008-7.148-9.875-11.085-14.734c-0.054-0.034-3.188-3.427-4.745-5.083
	c-2.984-3.174-6.088-6.321-9.416-9.422c-4.646-4.316-9.595-8.566-14.859-12.753c-0.809-0.362-0.951-0.864-1.604-1.264
	c-0.051-0.032-0.102-0.064-0.153-0.102c-1.537-1.185-3.124-2.39-4.738-3.596c1.397,7.957,3.243,15.925,5.225,22.665
	c0.416,2.115,2.344,7.874,2.655,8.787c3.499,1.393,6.913,2.85,10.263,4.352c0.062,0.009,16.867,9.367,17.016,9.467
	c0.061,0.01,3.713,2.555,5.372,3.856c0.061,0.01,3.257,2.582,4.723,3.906c4.267,3.862,8.025,8.091,10.653,13.139
	C233.703,198.888,231.788,194.686,229.673,190.528z M209.269,211.098c-0.009-0.035-0.018-0.069-0.028-0.104
	c-2.617,4.51-9.282,4.617-13.587,4.374c-4.22-0.24-8.207-1.066-11.859-1.962c-0.932-0.23-2.835-0.762-2.888-0.794
	c-4.394-0.979-8.907-2.521-13.482-4.36c-0.052-0.033-1.674-0.551-2.471-0.946c-0.017-0.011-0.121-0.078-0.154-0.104
	c-1.465-0.385-2.994-1.095-4.533-1.843c-0.054-0.034-0.104-0.066-0.154-0.1c-1.777-0.605-3.588-1.39-5.463-2.452
	c-8.209-3.707-17.901-8.779-26.413-14.313c-6.745-4.388-13.33-8.958-19.538-13.672c-10.039-7.624-19.08-15.619-26.201-23.821
	c-5.721-6.593-10.205-13.318-12.947-20.09c-0.236-0.573-1.02-2.987-1.02-4.091c-0.061-1.006,0.101-2.793,1.061-4.404
	c0.961-1.61,2.361-2.78,3.928-3.126c0.762-0.272,2.296-0.639,2.915-0.656c0.051,0.032,2.247-0.324,2.61-0.286
	c6.848-0.271,14.051,1.148,21.418,3.346c5.294,1.652,10.611,3.414,16.063,5.818c0.053,0.033,0.105,0.065,0.154,0.099
	c0.022,0.008,0.043,0.017,0.064,0.025c-3.83-9.807-6.938-19.481-9.186-28.875c-2.605-0.851-5.205-1.681-7.791-2.438
	c-0.053-0.034-3.063-0.788-4.526-1.179c-0.051-0.035-2.86-0.682-4.215-0.979c-8.601-1.706-17.027-2.601-25.2-2.279
	c-0.68,0-3.737,0.434-3.789,0.401c-2.194,0.369-4.07,0.742-6.138,1.3c-0.034,0.051-0.746,0.128-1.38,0.425
	c-4.533,1.77-9.565,4.261-13.168,9.737c-3.676,5.589-3.919,11.222-3.663,16.14c0,0.601,0.132,1.12,0.169,1.434
	c0.297,1.853,0.676,3.729,1.192,5.626c0.255,0.815,0.595,2.115,1.168,3.629c3.247,8.058,7.939,16.013,13.807,23.792
	c5.507,7.305,12.057,14.454,19.444,21.383c11.115,10.426,24.11,20.363,38.294,29.59c14.379,9.354,28.87,16.925,43.004,22.5
	c0.483,0.008,0.981,0.019,1.455,0.022c2.145,0.209,4.121,0.192,5.986,0.023c0.063,0.01,0.123,0.02,0.185,0.03
	c1.708,0.06,3.396,0.087,4.893-0.153c0.061,0.01,0.12,0.021,0.181,0.031c0.889,0.036,1.787,0.09,2.461-0.167
	c0.061,0.01,0.121,0.019,0.183,0.028c4.928-0.174,9.678-0.598,14.093-1.484c0.06,0.008,0.119,0.02,0.182,0.027
	c0.57-0.092,1.15-0.19,1.737-0.292c2.131-0.364,4.373-0.792,6.655-1.355c1.989-0.493,4.009-1.083,6.021-1.843
	c4.501-1.703,11.532-4.98,10.626-11.4C209.479,211.161,209.378,211.126,209.269,211.098z"/>
<radialGradient id="SVGID_3_" cx="275.8789" cy="158.4248" r="155.6945" gradientTransform="matrix(0.5098 0 0 0.5098 -16.5201 121.4414)" gradientUnits="userSpaceOnUse">
	<stop  offset="0" style="stop-color:#FFFFFF"/>
	<stop  offset="1" style="stop-color:#B24119"/>
</radialGradient>
<path fill="url(#SVGID_3_)" stroke="#231F20" stroke-width="2" d="M108.635,174.744c0.203,0.01,0.409,0.024,0.609,0.028
	c10.62,0.627,22.472,2.261,33.792,4.459c-5.128-7.848-9.978-16.283-14.485-25.226c-0.088-0.17-0.172-0.343-0.257-0.516
	c-0.034-0.006-0.064-0.01-0.097-0.016c-16.279-2.43-31.058-2.786-45.447-2.605c-0.1,0.026-0.211,0.034-0.316,0.056
	C89.553,159.124,98.594,167.121,108.635,174.744z M160.537,159.866c-0.256-0.064-0.503-0.136-0.758-0.203
	c-0.885-0.006-1.22-0.406-1.979-0.504c-0.061-0.01-0.122-0.02-0.182-0.029c-0.014-0.004-0.028-0.008-0.04-0.011
	c1.62,2.707,3.281,5.348,4.938,7.86C161.823,164.646,161.164,162.271,160.537,159.866z M237.792,211.414
	c-0.243-1.299-0.601-2.447-0.643-2.635c-0.281-1.214-1.141-3.647-1.454-4.183c-0.23-0.499-0.499-0.973-0.754-1.456
	c-2.627-5.045-6.386-9.275-10.652-13.136c-1.467-1.325-4.662-3.896-4.723-3.906c-1.566-1.395-5.682-4.048-5.831-4.145
	c-5.064-3.338-16.496-9.17-16.558-9.18c-3.348-1.503-6.763-2.959-10.262-4.352c0.214,0.624,2.238,6.196,2.55,7.056
	c1.351,3.711,2.837,7.243,4.558,10.467c0.007,0.06,0.016,0.122,0.022,0.184c1.98,4.037,4.271,8.584,7.498,12.795
	c1.902,2.483,6.606,9.955,6.677,10.066c0.507,0.504,0.775,1.185,0.956,1.925c0.008,0.036,0.021,0.071,0.028,0.105
	c0.109,0.029,0.211,0.063,0.153,0.213c0.906,6.421-6.125,9.7-10.627,11.398c-2.011,0.762-4.03,1.353-6.019,1.843
	c-2.284,0.566-4.526,0.994-6.657,1.358c-0.586,0.102-1.858,0.272-1.92,0.263c-4.44,0.667-9.164,1.31-14.092,1.486
	c-0.061-0.01-1.755,0.174-2.644,0.136c-0.061-0.01-3.364,0.183-5.073,0.125c-0.061-0.012-3.977,0.046-6.168-0.056
	c-0.476-0.002-0.975-0.014-1.459-0.021c-8.715-0.119-18.991-0.822-28.491-2.345c-31.118-4.992-61.168-13.527-77.001-28.823
	c-0.449-0.43-2.401-2.782-2.604-3.237c-1.9-2.329-0.856-7.524,1.376-9.148c0.962-0.752,2.897-1.894,3.78-2.367
	c0.061,0.01,0.468-0.283,1.03-0.583c6.062-2.981,13.106-4.601,20.614-5.586c-7.388-6.929-13.938-14.077-19.445-21.382
	c-0.01,0.002-0.019,0.004-0.028,0.004c-8.552,1.931-16.618,4.533-23.958,8.141c-2.017,0.972-2.616,1.467-3.301,1.906
	c-1.839,1.24-4.443,2.896-6.171,4.625c-3.427,3.458-7.015,7.772-8.086,14.241c-1.094,6.599,0.971,11.847,3.199,16.238
	c0.94,1.693,2.715,4.294,4.109,5.9c0.261,0.407,2.028,2.33,2.541,2.843c20.9,20.268,56.079,32.951,95.724,39.311
	c39.766,6.378,76.138,3.559,102.299-8.684c0.418-0.161,1.723-0.838,2.131-1.095c0.912-0.439,1.411-0.919,1.718-1.116
	c1.309-0.907,2.364-1.737,3.686-2.76c0.012-0.06,0.855-0.656,1.301-1.101c3.532-3.325,6.848-7.625,8.336-13.619
	c0.326-1.321,0.569-2.72,0.702-4.214C238.16,212.658,238.033,212.696,237.792,211.414z M209.927,209.18
	c0.012-0.012,0.029-0.048,0.051-0.1C209.977,209.11,209.964,209.144,209.927,209.18z"/>
<radialGradient id="SVGID_4_" cx="431.7988" cy="-9.375" r="149.7522" gradientTransform="matrix(0.5098 0 0 0.5098 -16.5201 121.4414)" gradientUnits="userSpaceOnUse">
	<stop  offset="0" style="stop-color:#FFFFFF"/>
	<stop  offset="1" style="stop-color:#A9B533"/>
</radialGradient>
<path fill="url(#SVGID_4_)" stroke="#231F20" stroke-width="2" d="M250.636,143.566c0-1.103-0.103-2.165-0.111-2.227
	c-0.485-9.422-1.352-19.809-3.032-29.617c-0.009-0.062-0.018-0.122-0.025-0.184c-2.359-16.29-6.276-30.544-10.595-44.273
	c-0.452-1.28-0.971-2.603-1.454-3.907c-0.009-0.062-0.604-1.725-0.611-1.784c-1.79-4.332-5.474-13.005-5.48-13.066
	c-0.558-1.424-2.046-4.139-2.055-4.201c-0.588-1.259-1.325-2.43-1.98-3.65c-4.313-7.634-9.129-14.608-14.696-20.6
	c-0.345-0.344-2.765-2.55-2.772-2.611c-1.597-1.315-3.039-2.453-4.987-3.808c-0.062,0.009-0.606-0.417-1.223-0.771
	c-4.296-2.283-9.463-4.478-15.966-3.641c-6.634,0.854-11.065,4.341-14.628,7.741c-0.413,0.414-0.915,1.055-0.977,1.064
	c-1.333,1.333-2.433,2.923-3.491,4.569c0.009,0.063-1.688,2.699-1.99,3.251c-2.419,4.668-4.46,9.716-6.16,15.082
	c-2.678,8.453-4.498,17.703-5.543,27.543c-1.697,15.927-1.374,33.397,0.565,51.531c0.313,2.931,0.665,5.874,1.061,8.836
	c0.987,7.375,2.245,14.545,3.755,21.476c0.713,3.264,1.483,6.473,2.308,9.625c0.631,2.406,1.289,4.778,1.981,7.114
	c1.479,2.244,2.95,4.396,4.381,6.394c1.085,1.862,3.542,4.977,3.569,5.032c0.955,1.419,7.159,10.049,9.457,11.788
	c1.544,1.729,3.119,3.361,4.742,4.859c0.027,0.054,6.931,7.671,11.36,10.152c3.235,1.812,7.829,4.38,11.973,3.457
	c-0.22-0.343-0.461-0.673-0.699-1.005c0.413,0.107-11.213-17.554-13.194-21.589c-0.009-0.06-3.289-6.881-4.64-10.592
	c-0.312-0.86-1.444-4.229-1.814-5.091c-0.187-0.631-1.596-4.948-1.606-5.007c-0.541-1.741-1.283-3.629-1.697-5.744
	c-1.984-6.74-3.913-14.708-5.312-22.667c-0.393-2.239-0.75-4.481-1.049-6.692c-1.668-12.462-2.744-24.921-2.798-36.643
	c-0.057-12.242,1.005-23.676,3.681-33.456c1.186-4.327,2.683-8.333,4.542-11.938c0.281-0.553,2.133-2.976,2.537-3.325
	c1.72-2.164,6.825-3.179,8.907-1.291c0.505,0.28,1.938,1.375,2.355,1.833c0.01,0.062,0.784,0.624,1.064,0.975
	c0.008,0.062,0.645,0.518,0.855,0.819c4.666,5.017,8.284,11.407,11.421,18.426c2.195,5.091,4.325,10.272,6.053,15.974
	c0.01,0.062,0.018,0.123,0.025,0.184c1.047,2.795,1.945,5.78,2.694,8.964c0.008,0.061,0.371,1.379,0.379,1.441
	c0.58,2.396,1.253,4.817,1.897,7.206c2.524,10.609,4.405,22.764,5.553,34.503c0.279,3.215,0.402,6.61,0.593,9.991
	c0.046,0.802,0.075,1.579,0.112,2.369c0.992,2.876,1.928,5.733,2.787,8.563c2.006,6.626,3.539,13.095,4.863,19.493
	c0.03,0.058,0.058,0.113,0.086,0.167c1.007,6.479,1.988,12.946,2.219,19.17c0.026,0.055,0.055,0.108,0.083,0.166
	c-0.16,2.104,0.154,4.361-0.061,6.445c0.029,0.056-0.305,5.742-0.689,8.465c0,0.356,0.733,2.766,0.733,6.137
	c-0.134,1.492-0.096,2.892-0.423,4.213c1.953-3.335,5.079-10.714,5.071-10.775c0.886-1.9,2.155-6.194,2.147-6.255
	c1.823-5.955,3.211-12.387,4.191-18.836c0.092-0.884,1.492-13.28,1.771-20.193C250.894,156.81,250.893,150.284,250.636,143.566z"/>
</svg>
