<?xml version="1.0" encoding="utf-8"?>
<!-- Generator: Adobe Illustrator 15.0.0, SVG Export Plug-In . SVG Version: 6.00 Build 0)  -->
<!DOCTYPE svg PUBLIC "-//W3C//DTD SVG 1.1//EN" "http://www.w3.org/Graphics/SVG/1.1/DTD/svg11.dtd">
<svg version="1.1" id="Layer_1" xmlns="http://www.w3.org/2000/svg" xmlns:xlink="http://www.w3.org/1999/xlink" x="0px" y="0px"
	 width="30px" height="30px" viewBox="0 0 30 30" enable-background="new 0 0 30 30" xml:space="preserve">
<path fill="#3D5272" d="M15,0C6.729,0,0,6.729,0,15c0,8.271,6.729,15,15,15c8.271,0,15-6.729,15-15C30,6.729,23.271,0,15,0z
	 M24.944,14.615c-0.097,0.233-0.325,0.386-0.578,0.386h-5.62l0.003,9.366c0,0.166-0.066,0.325-0.184,0.442S18.29,25,18.124,25
	h-6.243c-0.344,0-0.625-0.288-0.625-0.633l-0.003-9.366H5.634c-0.253,0-0.481-0.152-0.578-0.386
	c-0.098-0.233-0.044-0.503,0.135-0.681l9.367-9.367c0.234-0.234,0.65-0.234,0.884,0l9.366,9.367
	C24.986,14.112,25.04,14.382,24.944,14.615z"/>
</svg>
