<?xml version="1.0" encoding="utf-8"?>
<!-- Generator: Adobe Illustrator 15.0.0, SVG Export Plug-In . SVG Version: 6.00 Build 0)  -->
<!DOCTYPE svg PUBLIC "-//W3C//DTD SVG 1.1//EN" "http://www.w3.org/Graphics/SVG/1.1/DTD/svg11.dtd">
<svg version="1.1" id="Layer_1" xmlns="http://www.w3.org/2000/svg" xmlns:xlink="http://www.w3.org/1999/xlink" x="0px" y="0px"
	 width="48px" height="48px" viewBox="0 0 48 48" enable-background="new 0 0 48 48" xml:space="preserve">
<polygon fill="#FFFFFF" points="-307,133.5 -307.534,134.308 -308.067,135.116 -308.5,134.25 -308.933,133.384 -307.966,133.442 "/>
<g>
	<linearGradient id="SVGID_1_" gradientUnits="userSpaceOnUse" x1="20.6514" y1="6.6382" x2="32.9351" y2="18.9967">
		<stop  offset="0" style="stop-color:#FFFFFF"/>
		<stop  offset="0.3757" style="stop-color:#FDFEFE"/>
		<stop  offset="0.5223" style="stop-color:#F6F9FC"/>
		<stop  offset="0.6289" style="stop-color:#EAF1F9"/>
		<stop  offset="0.7161" style="stop-color:#D9E6F3"/>
		<stop  offset="0.7914" style="stop-color:#C2D8ED"/>
		<stop  offset="0.8586" style="stop-color:#A6C6E4"/>
		<stop  offset="0.9196" style="stop-color:#85B0DA"/>
		<stop  offset="0.9743" style="stop-color:#6098CF"/>
		<stop  offset="1" style="stop-color:#4C8BC9"/>
	</linearGradient>
	<polygon fill="url(#SVGID_1_)" points="37.232,14.726 28.723,18.54 23.601,18.2 21.164,13.077 24.059,3.251 29.674,9.263 	"/>
	<linearGradient id="SVGID_2_" gradientUnits="userSpaceOnUse" x1="-38.8979" y1="-28.8936" x2="64.4079" y2="75.0413">
		<stop  offset="0" style="stop-color:#FFFFFF"/>
		<stop  offset="0.3757" style="stop-color:#FDFEFE"/>
		<stop  offset="0.5223" style="stop-color:#F6F9FC"/>
		<stop  offset="0.6289" style="stop-color:#EAF1F9"/>
		<stop  offset="0.7161" style="stop-color:#D9E6F3"/>
		<stop  offset="0.7914" style="stop-color:#C2D8ED"/>
		<stop  offset="0.8586" style="stop-color:#A6C6E4"/>
		<stop  offset="0.9196" style="stop-color:#85B0DA"/>
		<stop  offset="0.9743" style="stop-color:#6098CF"/>
		<stop  offset="1" style="stop-color:#4C8BC9"/>
	</linearGradient>
	<path fill="url(#SVGID_2_)" stroke="#233A74" stroke-miterlimit="10" d="M37.24,13.548L25.7,2.008
		c-0.181-0.18-0.425-0.281-0.68-0.281H3.863c-0.531,0-0.961,0.43-0.961,0.961v44.237c0,0.53,0.43,0.962,0.961,0.962h32.697
		c0.532,0,0.961-0.432,0.961-0.962V14.228C37.521,13.973,37.421,13.729,37.24,13.548z M25.021,15.189
		c-0.532,0-0.962-0.43-0.962-0.961c0-1.153,0-9.828,0-10.977l11.938,11.938C33.703,15.189,27.265,15.189,25.021,15.189z"/>
</g>
<line fill="none" stroke="#2777BD" stroke-width="2" stroke-miterlimit="10" x1="8.599" y1="18.933" x2="31.198" y2="18.933"/>
<line fill="none" stroke="#2777BD" stroke-width="2" stroke-miterlimit="10" x1="8.599" y1="38.5" x2="31.198" y2="38.5"/>
<line fill="none" stroke="#2777BD" stroke-width="2" stroke-miterlimit="10" x1="8.599" y1="31.978" x2="31.198" y2="31.978"/>
<line fill="none" stroke="#2777BD" stroke-width="2" stroke-miterlimit="10" x1="8.599" y1="25.455" x2="31.198" y2="25.455"/>
<g>
	<line fill="none" stroke="#000000" stroke-width="3" stroke-miterlimit="10" x1="20.232" y1="45.902" x2="20.232" y2="26.235"/>
	<line fill="none" stroke="#000000" stroke-width="3" stroke-miterlimit="10" x1="18.898" y1="27.235" x2="39.665" y2="27.235"/>
	<polygon stroke="#000000" stroke-width="3" stroke-miterlimit="10" points="45.432,27.197 39.665,30.527 33.898,33.856 
		33.898,27.197 33.898,20.539 39.665,23.868 	"/>
</g>
</svg>
