<?xml version="1.0" encoding="utf-8"?>
<!-- Generator: Adobe Illustrator 15.0.0, SVG Export Plug-In . SVG Version: 6.00 Build 0)  -->
<!DOCTYPE svg PUBLIC "-//W3C//DTD SVG 1.1//EN" "http://www.w3.org/Graphics/SVG/1.1/DTD/svg11.dtd">
<svg version="1.1" id="Layer_1" xmlns="http://www.w3.org/2000/svg" xmlns:xlink="http://www.w3.org/1999/xlink" x="0px" y="0px"
	 width="48px" height="48px" viewBox="0 0 48 48" enable-background="new 0 0 48 48" xml:space="preserve">
<circle fill="#FFFFFF" cx="36.667" cy="12.333" r="7.667"/>
<g>
	<rect x="8.521" y="20.983" fill="#FFFFFF" width="14.752" height="26.034"/>
	<g>
		<ellipse fill="#FFFFFF" cx="6.207" cy="32.091" rx="4.339" ry="3.76"/>
		<rect x="8.521" y="20.231" fill="#FFFFFF" width="15.62" height="27.19"/>
		<g>
			<circle fill="#898688" stroke="#000000" stroke-miterlimit="10" cx="5.524" cy="31.842" r="0.646"/>
			<path fill="#898688" stroke="#000000" stroke-miterlimit="10" d="M28.793,27.317H4.232C2.45,27.317,1,28.769,1,30.55v7.756
				c0,1.782,1.45,3.231,3.232,3.231h3.231v5.816C7.463,47.711,7.752,48,8.11,48h16.805c0.354,0,0.646-0.289,0.646-0.646v-5.816
				h3.231c1.78,0,3.232-1.449,3.232-3.231V30.55C32.025,28.769,30.573,27.317,28.793,27.317z M5.524,33.781
				c-1.069,0-1.939-0.871-1.939-1.938c0-1.07,0.87-1.939,1.939-1.939c1.068,0,1.939,0.869,1.939,1.939
				C7.463,32.91,6.592,33.781,5.524,33.781z M24.269,46.707H8.756v-9.049h15.513V46.707z"/>
			<path fill="#FFFFFF" stroke="#000000" stroke-miterlimit="10" d="M8.11,26.024h16.805c0.354,0,0.646-0.288,0.646-0.646v-1.293
				c0-0.171-0.067-0.335-0.189-0.457l-3.877-3.878c-0.122-0.121-0.287-0.189-0.458-0.189H8.11c-0.357,0-0.646,0.29-0.646,0.646
				v5.171C7.463,25.736,7.752,26.024,8.11,26.024z M21.036,20.208l3.879,3.878h-3.879V20.208z"/>
			<path fill="#898688" stroke="#000000" stroke-miterlimit="10" d="M10.695,40.244h11.633c0.357,0,0.647-0.289,0.647-0.646
				c0-0.357-0.29-0.646-0.647-0.646H10.695c-0.357,0-0.646,0.289-0.646,0.646C10.049,39.955,10.338,40.244,10.695,40.244z"/>
			<path fill="#898688" stroke="#000000" stroke-miterlimit="10" d="M10.695,42.83h11.633c0.357,0,0.647-0.289,0.647-0.646
				s-0.29-0.646-0.647-0.646H10.695c-0.357,0-0.646,0.289-0.646,0.646S10.338,42.83,10.695,42.83z"/>
			<path fill="#898688" stroke="#000000" stroke-miterlimit="10" d="M10.695,45.414h11.633c0.357,0,0.647-0.288,0.647-0.646
				c0-0.355-0.29-0.645-0.647-0.645H10.695c-0.357,0-0.646,0.289-0.646,0.645C10.049,45.126,10.338,45.414,10.695,45.414z"/>
		</g>
	</g>
</g>
<g>
	<g>
		<path fill="#DFD021" stroke="#A49A34" stroke-miterlimit="10" d="M47.886,29.742c0.219,0.256,0.115,0.707-0.232,0.998l-2.199,1.85
			c-0.35,0.293-0.807,0.316-1.027,0.057L33.239,19.333c-0.219-0.261-0.113-0.708,0.234-1l2.201-1.85
			c0.346-0.293,0.805-0.318,1.023-0.058L47.886,29.742z"/>
		<circle fill="#DFD021" stroke="#A49A34" stroke-miterlimit="10" cx="29.541" cy="11.953" r="10.845"/>
	</g>
	<path fill="#FFFFFF" stroke="#DFD021" stroke-miterlimit="10" d="M34.841,10.808c0.631,2.93-1.23,5.815-4.156,6.444
		c-2.928,0.632-5.812-1.228-6.444-4.155c-0.63-2.927,1.231-5.813,4.157-6.443C31.327,6.022,34.21,7.883,34.841,10.808z"/>
</g>
</svg>
