<?xml version="1.0" encoding="utf-8"?>
<!-- Generator: Adobe Illustrator 15.0.0, SVG Export Plug-In . SVG Version: 6.00 Build 0)  -->
<!DOCTYPE svg PUBLIC "-//W3C//DTD SVG 1.1//EN" "http://www.w3.org/Graphics/SVG/1.1/DTD/svg11.dtd">
<svg version="1.1" id="Layer_1" xmlns="http://www.w3.org/2000/svg" xmlns:xlink="http://www.w3.org/1999/xlink" x="0px" y="0px"
	 width="35px" height="35px" viewBox="0 0 35 35" enable-background="new 0 0 35 35" xml:space="preserve">
<g>
	<path fill="#3D5272" d="M18.248,9.279c-0.429-0.408-1.125-0.408-1.358,0L6.333,19.41c-0.613,0.413-0.966,1.261-0.966,1.889v12.03
		c0,0.629,0.459,1.144,1.018,1.144h5.634c0.565,0,1.023-0.518,1.023-1.144V22.888c0-0.634,0.462-1.144,1.024-1.144h6.985
		c0.563,0,1.024,0.514,1.024,1.144v10.441c0,0.629,0.457,1.144,1.02,1.144h5.458c0.564,0,1.017-0.518,1.017-1.144V21.297
		c0-0.63-0.35-1.479-0.772-1.888L18.248,9.279z"/>
	<path fill="#3D5272" d="M18.859,1c-0.788-0.8-1.983-0.8-2.772,0L1.156,15.406c-0.839,0.86-0.904,2.319-0.138,3.264
		c0.405,0.506,1.958,1.236,2.918,0.162L17.472,5.837l13.536,12.991c0.841,0.86,2.147,0.792,2.919-0.158
		c0.77-0.943,0.704-2.404-0.144-3.264L18.859,1z"/>
</g>
</svg>
