<?xml version="1.0" encoding="utf-8"?>
<!-- Generator: Adobe Illustrator 15.0.0, SVG Export Plug-In . SVG Version: 6.00 Build 0)  -->
<!DOCTYPE svg PUBLIC "-//W3C//DTD SVG 1.1//EN" "http://www.w3.org/Graphics/SVG/1.1/DTD/svg11.dtd">
<svg version="1.1" id="Layer_1" xmlns="http://www.w3.org/2000/svg" xmlns:xlink="http://www.w3.org/1999/xlink" x="0px" y="0px"
	 width="64px" height="64px" viewBox="0 0 64 64" enable-background="new 0 0 64 64" xml:space="preserve">
<g id="g1553">
	<rect id="rect1555" x="2.687" y="31.317" fill="#233A74" width="59.996" height="18.716"/>
	<path id="path1557" fill="#233A74" d="M8.194,13.477V26.77h4.344c-0.038-0.286-0.059-0.58-0.059-0.876
		c0-3.687,3.016-6.675,6.743-6.675h4.707c3.724,0,6.743,2.988,6.743,6.675c0,0.297-0.02,0.59-0.059,0.876h4.141
		c-0.038-0.286-0.061-0.58-0.061-0.876c0-3.687,3.021-6.675,6.748-6.675h4.703c3.724,0,6.745,2.988,6.745,6.675
		c0,0.297-0.023,0.59-0.059,0.876h4.341V13.477H8.194z"/>
	<rect id="rect1559" x="8.908" y="49.104" fill="#233A74" width="6.17" height="8.359"/>
	<rect id="rect1561" x="50.391" y="49.414" fill="#233A74" width="6.17" height="8.049"/>
</g>
</svg>
