<?xml version="1.0" encoding="utf-8"?>
<!-- Generator: Adobe Illustrator 15.0.0, SVG Export Plug-In . SVG Version: 6.00 Build 0)  -->
<!DOCTYPE svg PUBLIC "-//W3C//DTD SVG 1.1//EN" "http://www.w3.org/Graphics/SVG/1.1/DTD/svg11.dtd">
<svg version="1.1" id="Layer_1" xmlns="http://www.w3.org/2000/svg" xmlns:xlink="http://www.w3.org/1999/xlink" x="0px" y="0px"
	 width="64px" height="64px" viewBox="0 0 64 64" enable-background="new 0 0 64 64" xml:space="preserve">
<g id="g2038">
	<path id="path2040" fill="#233A74" d="M45.709,2.584c-5.285-3.656-8.608,1.053-9.666,2.107c-0.742,0.747-2.957,4.915-4.1,9.078
		c-1.14-4.163-3.355-8.331-4.096-9.078c-1.06-1.054-4.384-5.767-9.667-2.107c-5.274,3.651-5.114,6.66-5.037,8.444
		c1.399,6.707,13.826,7.525,18.109,7.672c0.002,0.021,0,0.029,0,0.029c0.115,0,0.372,0,0.691,0c0.323,0,0.583,0.021,0.697,0.021
		c0,0-0.005-0.029,0-0.042c4.284-0.147,16.707-0.965,18.103-7.672c0.079-1.784,0.244-4.793-5.033-8.444 M23.217,12.824
		c-3.493-2.195-5.04-4.709-4.631-5.527c0.363-0.718,10.522,7.471,12.723,9.871c-0.021,0.223-0.015,0.424-0.025,0.646
		C30.006,17.395,26.126,14.65,23.217,12.824 M40.674,12.824c-2.91,1.826-6.786,4.57-8.068,4.986
		c-0.01-0.218-0.004-0.424-0.023-0.646c2.201-2.401,12.36-10.589,12.719-9.867C45.709,8.111,44.162,10.629,40.674,12.824"/>
	<path id="path2042" fill="#233A74" d="M10.542,28.756v9.489h18.597V18.662h5.603v19.583h18.559v-9.67
		c1.001-0.47,1.706-1.469,1.706-2.644v-4.994c0-1.612-1.309-2.921-2.924-2.921H11.032c-1.618,0-2.927,1.309-2.927,2.921v4.994
		C8.102,27.371,9.17,28.517,10.542,28.756"/>
	<path id="path2044" fill="#233A74" d="M34.744,42.071v19.311h15.632c1.615,0,2.925-1.313,2.925-2.925V42.071H34.744L34.744,42.071z
		"/>
	<path id="path2046" fill="#233A74" d="M10.542,42.071v16.386c0,1.611,1.306,2.925,2.923,2.925h15.673V42.071H10.542z"/>
</g>
</svg>
