<?xml version="1.0" encoding="utf-8"?>
<!-- Generator: Adobe Illustrator 15.0.0, SVG Export Plug-In . SVG Version: 6.00 Build 0)  -->
<!DOCTYPE svg PUBLIC "-//W3C//DTD SVG 1.1//EN" "http://www.w3.org/Graphics/SVG/1.1/DTD/svg11.dtd">
<svg version="1.1" id="Layer_1" xmlns="http://www.w3.org/2000/svg" xmlns:xlink="http://www.w3.org/1999/xlink" x="0px" y="0px"
	 width="64px" height="64px" viewBox="0 0 64 64" enable-background="new 0 0 64 64" xml:space="preserve">
<path fill="#233A74" d="M43.737,21.677l-8.13-0.074L19.223,21.46l-8.087-0.074c-4.202-0.036-5.947,2.044-3.867,4.625l4.284,5.311
	c2.072,2.581,5.479,6.81,7.559,9.388l2.766,3.433v16.713c0,1.186,0.959,2.145,2.144,2.145h6.783c1.185,0,2.144-0.959,2.144-2.145
	v-17.05l2.465-2.949c2.125-2.544,5.602-6.706,7.726-9.249l4.374-5.243C49.644,23.824,47.943,21.714,43.737,21.677z"/>
<path fill="#233A74" d="M59.567,4.164c-0.088-0.478-0.353-0.967-0.726-1.34c-0.858-0.859-2.134-1.015-2.824-0.322l-7.966,7.765
	l-0.003-5.277c0.002-0.626-0.226-1.198-0.64-1.613c-0.398-0.399-0.947-0.619-1.545-0.619c-1.278,0-2.243,0.96-2.245,2.231v12.539
	c0,0.245,0.198,0.443,0.443,0.443h12.712c1.288,0,2.26-0.953,2.262-2.217c0-1.266-0.973-2.22-2.262-2.22h-5.441l7.802-7.869
	C59.521,5.28,59.675,4.747,59.567,4.164z"/>
</svg>
