<?xml version="1.0" encoding="utf-8"?>
<!-- Generator: Adobe Illustrator 15.0.0, SVG Export Plug-In . SVG Version: 6.00 Build 0)  -->
<!DOCTYPE svg PUBLIC "-//W3C//DTD SVG 1.1//EN" "http://www.w3.org/Graphics/SVG/1.1/DTD/svg11.dtd">
<svg version="1.1" id="Layer_1" xmlns="http://www.w3.org/2000/svg" xmlns:xlink="http://www.w3.org/1999/xlink" x="0px" y="0px"
	 width="64px" height="64px" viewBox="0 0 64 64" enable-background="new 0 0 64 64" xml:space="preserve">
<polygon fill="#233A74" points="28.384,3.77 13.582,3.77 21.477,16.281 "/>
<polygon fill="#233A74" points="32.141,18.866 40.646,18.866 32.261,3.77 32.141,3.77 32.016,3.77 23.634,18.866 "/>
<polygon fill="#233A74" points="10.799,5.385 3.083,18.866 19.15,18.866 "/>
<path fill="#233A74" d="M3.004,21.688c0.047,0.07,0.086,0.149,0.141,0.216l25.412,38.028l-8.285-38.24L3.004,21.688L3.004,21.688z"
	/>
<polygon fill="#233A74" points="50.696,3.77 35.891,3.77 42.805,16.281 "/>
<polygon fill="#233A74" points="61.195,18.866 53.477,5.385 45.121,18.866 "/>
<path fill="#233A74" d="M32.141,21.688h-8.599l8.445,39.354c0.05,0,0.1,0.026,0.15,0.022c0.045,0.004,0.095-0.022,0.143-0.022
	l8.441-39.354H32.141z"/>
<path fill="#233A74" d="M61.271,21.688H43.998l-8.282,38.244l25.41-38.032C61.191,21.837,61.22,21.758,61.271,21.688z"/>
</svg>
