<?xml version="1.0" encoding="utf-8"?>
<!-- Generator: Adobe Illustrator 15.0.0, SVG Export Plug-In . SVG Version: 6.00 Build 0)  -->
<!DOCTYPE svg PUBLIC "-//W3C//DTD SVG 1.1//EN" "http://www.w3.org/Graphics/SVG/1.1/DTD/svg11.dtd">
<svg version="1.1" id="Layer_1" xmlns="http://www.w3.org/2000/svg" xmlns:xlink="http://www.w3.org/1999/xlink" x="0px" y="0px"
	 width="48px" height="48px" viewBox="0 0 48 48" enable-background="new 0 0 48 48" xml:space="preserve">
<polygon fill="#FFFFFF" points="-307,133.5 -307.534,134.308 -308.067,135.116 -308.5,134.25 -308.933,133.384 -307.966,133.442 "/>
<rect x="-315.4" y="-113.4" fill="#999999" width="0.8" height="0.4"/>
<g>
	<linearGradient id="SVGID_1_" gradientUnits="userSpaceOnUse" x1="16.8555" y1="6.1143" x2="27.8291" y2="17.1547">
		<stop  offset="0" style="stop-color:#FFFFFF"/>
		<stop  offset="0.3757" style="stop-color:#FDFEFE"/>
		<stop  offset="0.5223" style="stop-color:#F6F9FC"/>
		<stop  offset="0.6289" style="stop-color:#EAF1F9"/>
		<stop  offset="0.7161" style="stop-color:#D9E6F3"/>
		<stop  offset="0.7914" style="stop-color:#C2D8ED"/>
		<stop  offset="0.8586" style="stop-color:#A6C6E4"/>
		<stop  offset="0.9196" style="stop-color:#85B0DA"/>
		<stop  offset="0.9743" style="stop-color:#6098CF"/>
		<stop  offset="1" style="stop-color:#4C8BC9"/>
	</linearGradient>
	<polygon fill="url(#SVGID_1_)" points="31.668,13.339 24.066,16.746 19.49,16.443 17.314,11.866 19.899,3.089 24.916,8.459 	"/>
	<linearGradient id="SVGID_2_" gradientUnits="userSpaceOnUse" x1="-36.3394" y1="-25.626" x2="55.9432" y2="67.2185">
		<stop  offset="0" style="stop-color:#FFFFFF"/>
		<stop  offset="0.3757" style="stop-color:#FDFEFE"/>
		<stop  offset="0.5223" style="stop-color:#F6F9FC"/>
		<stop  offset="0.6289" style="stop-color:#EAF1F9"/>
		<stop  offset="0.7161" style="stop-color:#D9E6F3"/>
		<stop  offset="0.7914" style="stop-color:#C2D8ED"/>
		<stop  offset="0.8586" style="stop-color:#A6C6E4"/>
		<stop  offset="0.9196" style="stop-color:#85B0DA"/>
		<stop  offset="0.9743" style="stop-color:#6098CF"/>
		<stop  offset="1" style="stop-color:#4C8BC9"/>
	</linearGradient>
	<path fill="url(#SVGID_2_)" stroke="#233A74" stroke-miterlimit="10" d="M31.676,12.287L21.366,1.978
		c-0.162-0.161-0.38-0.251-0.607-0.251h-18.9C1.384,1.727,1,2.111,1,2.585v39.517c0,0.474,0.384,0.859,0.859,0.859h29.209
		c0.475,0,0.857-0.386,0.857-0.859V12.894C31.926,12.666,31.836,12.448,31.676,12.287z M20.759,13.753
		c-0.476,0-0.859-0.384-0.859-0.859c0-1.03,0-8.779,0-9.805l10.663,10.664C28.516,13.753,22.764,13.753,20.759,13.753z"/>
</g>
<line opacity="0.86" fill="none" stroke="#2777BD" stroke-width="2" stroke-miterlimit="10" x1="6.089" y1="17.097" x2="26.277" y2="17.097"/>
<line opacity="0.86" fill="none" stroke="#2777BD" stroke-width="2" stroke-miterlimit="10" x1="6.089" y1="34.576" x2="26.277" y2="34.576"/>
<line opacity="0.86" fill="none" stroke="#2777BD" stroke-width="2" stroke-miterlimit="10" x1="6.089" y1="28.75" x2="26.277" y2="28.75"/>
<line opacity="0.86" fill="none" stroke="#2777BD" stroke-width="2" stroke-miterlimit="10" x1="6.089" y1="22.923" x2="26.277" y2="22.923"/>
<g>
	
		<rect x="31.656" y="6.02" transform="matrix(0.7071 0.7071 -0.7071 0.7071 20.5986 -18.5955)" fill="#BB802B" width="2.181" height="19.094"/>
	<g>
		<path fill="#B6B6B7" stroke="#010101" stroke-miterlimit="10" d="M19.007,29.66c0.15,0.148,0.371,0.217,0.599,0.148l3.309-1.019
			l-3.036-3.037l-1.019,3.309C18.794,29.272,18.851,29.503,19.007,29.66z"/>
		
			<rect x="39.061" y="4.539" transform="matrix(-0.7071 0.7071 -0.7071 -0.7071 74.1429 -12.8389)" fill="#010101" stroke="#010101" stroke-miterlimit="10" width="1.34" height="8.794"/>
		<path fill="#010101" stroke="#010101" stroke-miterlimit="10" d="M24.206,28.392l2.818-0.866l-1.449-1.448
			c-0.111-0.111-0.174-0.264-0.174-0.422v-2.389h-2.389c-0.158,0-0.311-0.063-0.423-0.175l-1.448-1.449l-0.867,2.818L24.206,28.392z
			"/>
		<polygon fill="#BB802B" stroke="#010101" stroke-miterlimit="10" points="38.835,10.676 26.595,22.917 26.595,25.408 
			28.036,26.85 41.522,13.363 		"/>
		<path fill="#F8D9B4" stroke="#010101" stroke-miterlimit="10" d="M44.159,10.728l1.471-1.472c0.563-0.563,0.873-1.311,0.873-2.111
			c0-0.8-0.311-1.549-0.873-2.111l-1.996-1.996c-0.561-0.563-1.311-0.872-2.111-0.872c-0.799,0-1.549,0.31-2.111,0.872L37.94,4.51
			L44.159,10.728z"/>
		<polygon fill="#BB802B" stroke="#010101" stroke-miterlimit="10" points="23.259,22.072 25.751,22.072 37.991,9.832 35.304,7.145 
			21.817,20.631 		"/>
	</g>
</g>
<polygon fill="#EB2224" points="40.839,46.77 32.264,46.711 26.242,40.607 26.3,32.032 32.404,26.011 40.979,26.069 47,32.173 
	46.942,40.747 "/>
</svg>
