<?xml version="1.0" encoding="utf-8"?>
<!-- Generator: Adobe Illustrator 15.0.0, SVG Export Plug-In . SVG Version: 6.00 Build 0)  -->
<!DOCTYPE svg PUBLIC "-//W3C//DTD SVG 1.1//EN" "http://www.w3.org/Graphics/SVG/1.1/DTD/svg11.dtd">
<svg version="1.1" id="Layer_1" xmlns="http://www.w3.org/2000/svg" xmlns:xlink="http://www.w3.org/1999/xlink" x="0px" y="0px"
	 width="362px" height="128px" viewBox="0 0 362 128" enable-background="new 0 0 362 128" xml:space="preserve">
<path fill="#00467F" d="M53.754,26.061H71.39l38.44,79.162H93.496L85.22,87.039H39.594l-8.38,18.184H14.77L53.754,26.061z
	 M78.366,72.234L62.567,40.753L46.782,72.234H78.366z"/>
<path fill="#00467F" d="M231.28,26.061h15.467v79.162H231.28V26.061z"/>
<path fill="#00467F" d="M328.781,50.13c-2.502-7.085-8.93-13.182-27.765-13.182c-10.453,0-21.019,2.617-21.019,9.913
	c0,3.369,1.964,6.965,17.744,8.928l18.737,2.828c17.75,2.724,28.199,9.582,28.199,22.871c0,18.722-17.855,25.691-38.984,25.691
	c-33.968,0-42.247-16.765-44.1-22.758l14.924-4.673c2.826,5.766,8.708,14.149,29.617,14.149c12.632,0,23.082-4.138,23.082-10.993
	c0-5.123-5.881-8.495-17.199-9.917l-18.951-2.609c-18.289-2.506-28.523-10.459-28.523-22.538c0-23.743,30.809-23.743,36.908-23.743
	c34.078,0,39.964,15.789,41.919,21.237L328.781,50.13z"/>
<path fill="#00467F" d="M135.269,43.064c-2.88-6.211-3.45-10.739-1.528-12.661c1.879-1.881,6.328-1.289,12.266,1.406
	c1.768-1.709,3.546-3.379,5.334-4.972c-13.656-6.978-24.737-8.136-30.142-2.74c-2.281,2.279-3.439,5.537-3.439,9.676
	c0,6.203,2.569,13.978,7.144,22.415C128.064,51.724,131.556,47.318,135.269,43.064z"/>
<radialGradient id="SVGID_1_" cx="167.7036" cy="58.2715" r="49.9495" gradientUnits="userSpaceOnUse">
	<stop  offset="0" style="stop-color:#FFFFFF"/>
	<stop  offset="1" style="stop-color:#519136"/>
</radialGradient>
<path fill="url(#SVGID_1_)" d="M146,97.11c-5.932,2.693-10.381,3.293-12.26,1.415c-4.661-4.657,5.256-24.564,27.453-46.762
	c16.813-16.812,34.667-28.554,43.413-28.554c1.498,0,2.625,0.375,3.355,1.102c2.979,2.98-0.252,12.403-8.223,24.006l-0.522,0.754
	l5.007,5.009l0.748-1.11c12.534-18.615,16.09-34.402,9.287-41.204c-2.273-2.277-5.526-3.436-9.666-3.436
	c-13.791-0.004-35.286,12.586-54.768,32.063c-26.091,26.094-38.669,54.402-28.626,64.437c5.405,5.403,16.486,4.231,30.138-2.74
	C149.548,100.488,147.77,98.82,146,97.11z"/>
<path fill="#00467F" d="M204.223,74.85l-4.999,5.01l0.52,0.755c7.972,11.608,11.196,21.035,8.218,24.002
	c-0.73,0.729-1.857,1.1-3.355,1.1c-8.74,0.002-26.596-11.739-43.409-28.548c-2.013-2.013-3.929-4.013-5.735-5.979
	c-4.214,5.177-7.294,9.684-9.473,13.381c1.247,1.328,2.525,2.65,3.835,3.963c19.481,19.484,40.977,32.068,54.768,32.068
	c4.14,0,7.393-1.159,9.666-3.44c6.809-6.793,3.247-22.581-9.287-41.198L204.223,74.85z"/>
</svg>
