<?xml version="1.0" encoding="utf-8"?>
<!-- Generator: Adobe Illustrator 15.0.0, SVG Export Plug-In . SVG Version: 6.00 Build 0)  -->
<!DOCTYPE svg PUBLIC "-//W3C//DTD SVG 1.1//EN" "http://www.w3.org/Graphics/SVG/1.1/DTD/svg11.dtd">
<svg version="1.1" id="Layer_1" xmlns="http://www.w3.org/2000/svg" xmlns:xlink="http://www.w3.org/1999/xlink" x="0px" y="0px"
	 width="48px" height="48px" viewBox="0 0 48 48" enable-background="new 0 0 48 48" xml:space="preserve">
<g>
	<g>
		<g opacity="0.57">
			<path d="M40.201,44.088c0.209,0.394-0.048,0.935-0.57,1.211l-3.316,1.753c-0.523,0.276-1.116,0.184-1.323-0.209L24.388,26.787
				c-0.208-0.393,0.048-0.935,0.571-1.211l3.316-1.753c0.523-0.276,1.115-0.183,1.323,0.209L40.201,44.088z"/>
			<path fill="none" stroke="#000000" stroke-miterlimit="10" d="M40.201,44.088c0.209,0.394-0.048,0.935-0.57,1.211l-3.316,1.753
				c-0.523,0.276-1.116,0.184-1.323-0.209L24.388,26.787c-0.208-0.393,0.048-0.935,0.571-1.211l3.316-1.753
				c0.523-0.276,1.115-0.183,1.323,0.209L40.201,44.088z"/>
		</g>
		<g>
			<path fill="#DFD021" d="M39.201,43.088c0.209,0.394-0.048,0.935-0.57,1.211l-3.316,1.753c-0.523,0.276-1.116,0.184-1.323-0.209
				L23.388,25.787c-0.208-0.393,0.048-0.935,0.571-1.211l3.316-1.753c0.523-0.276,1.115-0.183,1.323,0.209L39.201,43.088z"/>
			<path fill="none" stroke="#A79A33" stroke-miterlimit="10" d="M39.201,43.088c0.209,0.394-0.048,0.935-0.57,1.211l-3.316,1.753
				c-0.523,0.276-1.116,0.184-1.323-0.209L23.388,25.787c-0.208-0.393,0.048-0.935,0.571-1.211l3.316-1.753
				c0.523-0.276,1.115-0.183,1.323,0.209L39.201,43.088z"/>
		</g>
	</g>
	<g>
		<g opacity="0.57">
			<circle cx="21.7" cy="16.358" r="14.148"/>
			<circle fill="none" stroke="#000000" stroke-miterlimit="10" cx="21.7" cy="16.358" r="14.148"/>
		</g>
		<g>
			<circle fill="#DFD021" cx="20.7" cy="15.358" r="14.148"/>
			<circle fill="none" stroke="#A79A33" stroke-miterlimit="10" cx="20.7" cy="15.358" r="14.148"/>
		</g>
	</g>
	<circle fill="#FFFFFF" stroke="#A89A33" stroke-miterlimit="10" cx="20.699" cy="15.358" r="7.074"/>
</g>
</svg>
