<?xml version="1.0" encoding="utf-8"?>
<!-- Generator: Adobe Illustrator 15.0.0, SVG Export Plug-In . SVG Version: 6.00 Build 0)  -->
<!DOCTYPE svg PUBLIC "-//W3C//DTD SVG 1.1//EN" "http://www.w3.org/Graphics/SVG/1.1/DTD/svg11.dtd">
<svg version="1.1" id="Layer_1" xmlns="http://www.w3.org/2000/svg" xmlns:xlink="http://www.w3.org/1999/xlink" x="0px" y="0px"
	 width="30px" height="30px" viewBox="0 0 30 30" enable-background="new 0 0 30 30" xml:space="preserve">
<path fill="#3D5272" d="M27.5,5.86h-25C1.122,5.86,0,6.886,0,8.146v13.709c0,1.261,1.122,2.285,2.5,2.285h25
	c1.379,0,2.5-1.024,2.5-2.285V8.146C30,6.886,28.879,5.86,27.5,5.86z M9.06,17.78l-4.375,2.285c-0.299,0.158-0.68,0.06-0.852-0.214
	c-0.171-0.272-0.067-0.622,0.232-0.779L8.44,16.79c0.299-0.158,0.681-0.063,0.853,0.212C9.464,17.275,9.36,17.625,9.06,17.78z
	 M14.661,17.765L4.036,11.481c-0.29-0.171-0.373-0.525-0.185-0.79c0.188-0.263,0.574-0.34,0.864-0.168L15,16.604l10.285-6.082
	c0.291-0.172,0.677-0.096,0.865,0.168c0.188,0.265,0.104,0.619-0.186,0.79l-10.625,6.284C15.133,17.887,14.867,17.887,14.661,17.765
	z M26.167,19.852c-0.171,0.273-0.552,0.372-0.853,0.214l-4.375-2.285c-0.3-0.155-0.403-0.505-0.231-0.778
	c0.171-0.274,0.553-0.37,0.853-0.212l4.375,2.282C26.235,19.229,26.339,19.579,26.167,19.852z"/>
</svg>
