<?xml version="1.0" encoding="utf-8"?>
<!-- Generator: Adobe Illustrator 15.0.0, SVG Export Plug-In . SVG Version: 6.00 Build 0)  -->
<!DOCTYPE svg PUBLIC "-//W3C//DTD SVG 1.1//EN" "http://www.w3.org/Graphics/SVG/1.1/DTD/svg11.dtd">
<svg version="1.1" id="Layer_1" xmlns="http://www.w3.org/2000/svg" xmlns:xlink="http://www.w3.org/1999/xlink" x="0px" y="0px"
	 width="64px" height="64px" viewBox="0 0 64 64" enable-background="new 0 0 64 64" xml:space="preserve">
<g>
	<path fill="#233A74" d="M33.5,4C17.784,4,5,16.784,5,32.5S17.784,61,33.5,61C49.213,61,62,48.216,62,32.5S49.213,4,33.5,4z
		 M33.5,58.625c-14.405,0-26.125-11.717-26.125-26.125c0-14.408,11.72-26.125,26.125-26.125c14.405,0,26.125,11.717,26.125,26.125
		C59.625,46.908,47.905,58.625,33.5,58.625z"/>
	<path fill="#233A74" d="M33.5,11.125c-11.787,0-21.375,9.588-21.375,21.375c0,11.785,9.588,21.375,21.375,21.375
		c11.785,0,21.375-9.59,21.375-21.375C54.875,20.713,45.285,11.125,33.5,11.125z M45.375,36.063c0,0.656-0.531,1.188-1.188,1.188
		H38.25v5.938c0,0.656-0.531,1.188-1.188,1.188h-7.125c-0.656,0-1.188-0.531-1.188-1.188V37.25h-5.938
		c-0.656,0-1.188-0.531-1.188-1.188v-7.125c0-0.656,0.532-1.188,1.188-1.188h5.938v-5.938c0-0.656,0.532-1.188,1.188-1.188h7.125
		c0.656,0,1.188,0.532,1.188,1.188v5.938h5.938c0.656,0,1.188,0.532,1.188,1.188V36.063z"/>
</g>
</svg>
