<?xml version="1.0" encoding="utf-8"?>
<!-- Generator: Adobe Illustrator 15.0.0, SVG Export Plug-In . SVG Version: 6.00 Build 0)  -->
<!DOCTYPE svg PUBLIC "-//W3C//DTD SVG 1.1//EN" "http://www.w3.org/Graphics/SVG/1.1/DTD/svg11.dtd">
<svg version="1.1" id="Layer_1" xmlns="http://www.w3.org/2000/svg" xmlns:xlink="http://www.w3.org/1999/xlink" x="0px" y="0px"
	 width="64px" height="64px" viewBox="0 0 64 64" enable-background="new 0 0 64 64" xml:space="preserve">
<g>
	<path fill="#233A74" d="M57.043,55.09c-1.258,1.188-2.724,1.793-4.407,1.793c-1.702,0-3.184-0.604-4.44-1.793
		c-1.253-1.183-1.882-2.608-1.882-4.271c0-1.657,0.629-3.095,1.882-4.308c1.257-1.211,2.738-1.816,4.44-1.816
		c1.684,0,3.149,0.605,4.407,1.816c1.257,1.213,1.886,2.65,1.886,4.308C58.924,52.481,58.3,53.907,57.043,55.09z M58.517,18.188
		c-0.317,1.472-0.717,3.195-1.193,5.181c-0.461,1.884-0.982,4.225-1.575,7.033c-0.594,2.808-1.212,6.275-1.867,10.396h-2.52
		c-0.66-4.172-1.28-7.646-1.867-10.418c-0.588-2.771-1.114-5.096-1.572-6.979c-0.418-1.725-0.803-3.411-1.149-5.059
		c-0.352-1.645-0.526-2.887-0.526-3.714c0-1.685,0.619-3.117,1.865-4.309c1.249-1.188,2.744-1.789,4.49-1.789
		c1.723,0,3.217,0.602,4.482,1.789c1.265,1.191,1.902,2.624,1.902,4.309C58.988,15.523,58.832,16.714,58.517,18.188z"/>
</g>
<path fill="#233A74" d="M30.469,35.235v-3.435c1.739-1.339,2.35-3.852,2.461-6.035c1.095-0.723,1.628-2.379,1.628-3.72
	c0-1.067-0.324-2.164-1.159-2.822c1.329-3.081,1.097-5.404,0.383-6.786c-1.409-2.724-5.217-3.688-8.28-3.688
	c-3.038,0-6.87,0.987-8.253,3.614c-1.076-0.049-2.094,0.27-2.678,1.149c-1.023,1.546-0.082,3.981,0.639,5.681
	c-0.885,0.652-1.235,1.795-1.235,2.891c0,1.33,0.544,2.971,1.613,3.68c0.069,1.367,0.342,2.889,0.954,4.12
	c0,0.006,0.004,0.011,0.006,0.016c0.479,0.956,1.042,1.546,1.502,1.899c0,8.234,0-4.97,0,3.435
	C13.7,37.008,5.577,40.592,4.51,43.022c-0.006,0.012-0.016,0.023-0.02,0.035c-0.068,0.162-0.103,0.318-0.103,0.466V54.7
	c0,0.688,0.558,1.243,1.242,1.243c22.214,0,38.499,0,38.499,0V54.7V43.523C44.129,40.831,33.055,36.288,30.469,35.235z"/>
</svg>
