<?xml version="1.0" encoding="utf-8"?>
<!-- Generator: Adobe Illustrator 15.0.0, SVG Export Plug-In . SVG Version: 6.00 Build 0)  -->
<!DOCTYPE svg PUBLIC "-//W3C//DTD SVG 1.1//EN" "http://www.w3.org/Graphics/SVG/1.1/DTD/svg11.dtd">
<svg version="1.1" id="Layer_1" xmlns="http://www.w3.org/2000/svg" xmlns:xlink="http://www.w3.org/1999/xlink" x="0px" y="0px"
	 width="64px" height="64px" viewBox="0 0 64 64" enable-background="new 0 0 64 64" xml:space="preserve">
<g>
	<path fill="#233A74" d="M29.469,34.235v-3.435c1.739-1.339,2.35-3.852,2.461-6.035c1.095-0.723,1.628-2.379,1.628-3.72
		c0-1.067-0.324-2.164-1.159-2.822c1.329-3.081,1.097-5.404,0.383-6.786c-1.409-2.724-5.217-3.688-8.28-3.688
		c-3.038,0-6.871,0.987-8.252,3.614c-1.077-0.049-2.094,0.27-2.678,1.149c-1.023,1.546-0.082,3.981,0.639,5.681
		c-0.885,0.652-1.235,1.795-1.235,2.891c0,1.33,0.544,2.971,1.613,3.68c0.069,1.367,0.342,2.889,0.954,4.12
		c0,0.006,0.005,0.011,0.007,0.016c0.478,0.956,1.042,1.546,1.502,1.899c0,8.234,0-4.97,0,3.435
		C12.7,36.008,4.577,39.592,3.51,42.022c-0.006,0.012-0.015,0.023-0.02,0.035c-0.068,0.162-0.102,0.318-0.102,0.466V53.7
		c0,0.688,0.558,1.243,1.242,1.243c22.213,0,38.499,0,38.499,0V53.7V42.523C43.129,39.831,32.055,35.288,29.469,34.235z"/>
	<path fill="#233A74" d="M55.383,38.021c-1.171-0.421-2.39-0.858-3.56-1.312v-2.13c0.926-0.616,2.253-1.999,2.457-4.929
		c0.841-0.706,1.269-2.141,1.269-3.566c0-1.273-0.34-2.146-0.828-2.685c0.609-1.109,1.41-2.92,0.765-4.866
		c-0.897-2.688-4.541-3.644-7.388-3.644c-2.487,0-5.58,0.728-6.924,2.703c-1.314-0.041-1.988,0.549-2.323,1.038
		c-0.902,1.317-0.268,3.236,0.262,4.623c-0.487,0.539-0.982,1.525-0.982,2.799c0.003,1.425,0.459,2.899,1.303,3.606
		c0.203,2.923,1.529,4.306,2.454,4.92v2.13c-0.275,0.105-0.557,0.21-0.839,0.314c4.065,2.501,4.564,4.131,4.564,5.499v12.42h16.146
		c0.685,0,1.242-0.556,1.242-1.243V42.523C63,40.83,60.802,39.972,55.383,38.021z"/>
</g>
</svg>
