<?xml version="1.0" encoding="utf-8"?>
<!-- Generator: Adobe Illustrator 15.0.0, SVG Export Plug-In . SVG Version: 6.00 Build 0)  -->
<!DOCTYPE svg PUBLIC "-//W3C//DTD SVG 1.1//EN" "http://www.w3.org/Graphics/SVG/1.1/DTD/svg11.dtd">
<svg version="1.1" id="Layer_1" xmlns="http://www.w3.org/2000/svg" xmlns:xlink="http://www.w3.org/1999/xlink" x="0px" y="0px"
	 width="48px" height="48px" viewBox="0 0 48 48" enable-background="new 0 0 48 48" xml:space="preserve">
<rect x="6.6" y="9.201" fill="#FFFFFF" stroke="#FFFFFF" stroke-miterlimit="10" width="35.834" height="21"/>
<g>
	<path fill="#5B903F" d="M43.993,3.89H4.101c-1.227,0-2.218,0.991-2.218,2.217v26.597c0,1.226,0.991,2.217,2.218,2.217h11.08v8.863
		c0,0.896,0.542,1.706,1.369,2.048c0.827,0.342,1.782,0.151,2.415-0.481l10.433-10.43h14.596c1.228,0,2.219-0.991,2.219-2.217V6.107
		C46.212,4.881,45.221,3.89,43.993,3.89z M30.696,26.055H10.749c-1.223,0-2.214-0.991-2.214-2.217c0-1.225,0.991-2.216,2.214-2.216
		h19.948c1.226,0,2.217,0.992,2.217,2.216C32.913,25.063,31.922,26.055,30.696,26.055z M37.346,17.189H10.749
		c-1.223,0-2.214-0.991-2.214-2.216c0-1.226,0.991-2.217,2.214-2.217h26.597c1.224,0,2.215,0.991,2.215,2.217
		C39.561,16.198,38.569,17.189,37.346,17.189z"/>
</g>
</svg>
