<?xml version="1.0" encoding="utf-8"?>
<!-- Generator: Adobe Illustrator 15.0.0, SVG Export Plug-In . SVG Version: 6.00 Build 0)  -->
<!DOCTYPE svg PUBLIC "-//W3C//DTD SVG 1.1//EN" "http://www.w3.org/Graphics/SVG/1.1/DTD/svg11.dtd">
<svg version="1.1" id="Layer_1" xmlns="http://www.w3.org/2000/svg" xmlns:xlink="http://www.w3.org/1999/xlink" x="0px" y="0px"
	 width="48px" height="48px" viewBox="0 0 48 48" enable-background="new 0 0 48 48" xml:space="preserve">
<rect x="2.618" y="1.983" fill="#999999" stroke="#000000" stroke-miterlimit="10" width="42.167" height="37.199"/>
<g>
	<linearGradient id="SVGID_1_" gradientUnits="userSpaceOnUse" x1="3.147" y1="3.0352" x2="36.538" y2="31.8734">
		<stop  offset="0" style="stop-color:#FFFFFF"/>
		<stop  offset="0.3384" style="stop-color:#FCFCFC"/>
		<stop  offset="0.5991" style="stop-color:#F2F3F3"/>
		<stop  offset="0.8331" style="stop-color:#E2E3E4"/>
		<stop  offset="1" style="stop-color:#D1D3D4"/>
	</linearGradient>
	<rect x="4.99" y="5.533" fill="url(#SVGID_1_)" stroke="#000000" stroke-miterlimit="10" width="36.808" height="29.977"/>
	<rect x="4.99" y="5.533" fill="#0899A8" stroke="#000000" stroke-miterlimit="10" width="36.808" height="4.174"/>
	<line fill="none" stroke="#000000" stroke-miterlimit="10" x1="11.441" y1="9.708" x2="11.441" y2="35.133"/>
	<line fill="none" stroke="#000000" stroke-miterlimit="10" x1="19.663" y1="9.708" x2="19.663" y2="35.133"/>
	<line fill="none" stroke="#000000" stroke-miterlimit="10" x1="27.884" y1="9.708" x2="27.884" y2="35.51"/>
	<line fill="none" stroke="#000000" stroke-miterlimit="10" x1="36.105" y1="9.708" x2="36.105" y2="35.133"/>
	<line fill="none" stroke="#000000" stroke-miterlimit="10" x1="4.99" y1="16.158" x2="41.798" y2="16.158"/>
	<line fill="none" stroke="#000000" stroke-miterlimit="10" x1="4.99" y1="22.609" x2="41.798" y2="22.609"/>
	<line fill="none" stroke="#000000" stroke-miterlimit="10" x1="4.99" y1="29.061" x2="41.798" y2="29.061"/>
</g>
<g>
	<g opacity="0.57">
		<path d="M47.307,34.549H44.58c-0.189-0.754-0.432-1.592-0.742-2.227l1.941-1.939c0.186-0.188,0.186-0.489,0-0.676l-2.701-2.7
			c-0.188-0.187-0.488-0.187-0.676,0l-1.941,1.939c-0.633-0.309-1.471-0.552-2.225-0.741v-2.727c0-0.264-0.215-0.479-0.477-0.479
			h-2.865c-0.264,0-0.478,0.215-0.478,0.479v2.727c-0.754,0.189-1.591,0.433-2.226,0.741l-1.941-1.939
			c-0.187-0.187-0.488-0.187-0.676,0l-2.701,2.7c-0.186,0.186-0.186,0.488,0,0.675l1.941,1.941c-0.307,0.632-0.552,1.47-0.742,2.226
			h-2.727c-0.263,0-0.477,0.213-0.477,0.477v2.865c0,0.264,0.214,0.477,0.477,0.477h2.727c0.19,0.756,0.436,1.594,0.742,2.227
			l-1.941,1.941c-0.186,0.186-0.186,0.488,0,0.676l2.701,2.699c0.181,0.18,0.498,0.18,0.676,0l1.94-1.941
			c0.634,0.311,1.472,0.553,2.227,0.744v2.727c0,0.264,0.214,0.477,0.478,0.477h2.865c0.262,0,0.477-0.213,0.477-0.477v-2.727
			c0.756-0.191,1.594-0.434,2.225-0.742l1.943,1.939c0.186,0.188,0.488,0.188,0.674,0l2.701-2.699c0.186-0.188,0.186-0.49,0-0.676
			l-1.941-1.941c0.309-0.633,0.553-1.471,0.742-2.227h2.727c0.264,0,0.479-0.213,0.479-0.477v-2.865
			C47.785,34.762,47.57,34.549,47.307,34.549z M36.326,40.277c-2.105,0-3.818-1.715-3.818-3.818c0-2.105,1.713-3.82,3.818-3.82
			s3.82,1.715,3.82,3.82C40.146,38.563,38.432,40.277,36.326,40.277z"/>
		<path fill="none" stroke="#000000" stroke-miterlimit="10" d="M47.307,34.549H44.58c-0.189-0.754-0.432-1.592-0.742-2.227
			l1.941-1.939c0.186-0.188,0.186-0.489,0-0.676l-2.701-2.7c-0.188-0.187-0.488-0.187-0.676,0l-1.941,1.939
			c-0.633-0.309-1.471-0.552-2.225-0.741v-2.727c0-0.264-0.215-0.479-0.477-0.479h-2.865c-0.264,0-0.478,0.215-0.478,0.479v2.727
			c-0.754,0.189-1.591,0.433-2.226,0.741l-1.941-1.939c-0.187-0.187-0.488-0.187-0.676,0l-2.701,2.7
			c-0.186,0.186-0.186,0.488,0,0.675l1.941,1.941c-0.307,0.632-0.552,1.47-0.742,2.226h-2.727c-0.263,0-0.477,0.213-0.477,0.477
			v2.865c0,0.264,0.214,0.477,0.477,0.477h2.727c0.19,0.756,0.436,1.594,0.742,2.227l-1.941,1.941c-0.186,0.186-0.186,0.488,0,0.676
			l2.701,2.699c0.181,0.18,0.498,0.18,0.676,0l1.94-1.941c0.634,0.311,1.472,0.553,2.227,0.744v2.727
			c0,0.264,0.214,0.477,0.478,0.477h2.865c0.262,0,0.477-0.213,0.477-0.477v-2.727c0.756-0.191,1.594-0.434,2.225-0.742l1.943,1.939
			c0.186,0.188,0.488,0.188,0.674,0l2.701-2.699c0.186-0.188,0.186-0.49,0-0.676l-1.941-1.941c0.309-0.633,0.553-1.471,0.742-2.227
			h2.727c0.264,0,0.479-0.213,0.479-0.477v-2.865C47.785,34.762,47.57,34.549,47.307,34.549z M36.326,40.277
			c-2.105,0-3.818-1.715-3.818-3.818c0-2.105,1.713-3.82,3.818-3.82s3.82,1.715,3.82,3.82
			C40.146,38.563,38.432,40.277,36.326,40.277z"/>
	</g>
	<g>
		<path fill="#DACB25" d="M46.307,33.549H43.58c-0.189-0.754-0.432-1.592-0.742-2.227l1.941-1.939c0.186-0.188,0.186-0.489,0-0.676
			l-2.701-2.7c-0.188-0.187-0.488-0.187-0.676,0l-1.941,1.939c-0.633-0.309-1.471-0.552-2.225-0.741v-2.727
			c0-0.264-0.215-0.478-0.477-0.478h-2.865c-0.264,0-0.478,0.214-0.478,0.478v2.727c-0.754,0.189-1.591,0.433-2.226,0.741
			l-1.941-1.939c-0.187-0.187-0.488-0.187-0.676,0l-2.701,2.7c-0.186,0.186-0.186,0.488,0,0.675l1.941,1.941
			c-0.307,0.632-0.552,1.47-0.742,2.226h-2.726c-0.263,0-0.478,0.213-0.478,0.477v2.865c0,0.264,0.214,0.477,0.478,0.477h2.726
			c0.19,0.756,0.436,1.594,0.742,2.227l-1.941,1.941c-0.186,0.186-0.186,0.488,0,0.676l2.701,2.699c0.181,0.18,0.498,0.18,0.676,0
			l1.94-1.941c0.634,0.311,1.472,0.553,2.227,0.744v2.727c0,0.264,0.214,0.477,0.478,0.477h2.865c0.262,0,0.477-0.213,0.477-0.477
			v-2.727c0.756-0.191,1.594-0.434,2.225-0.742l1.943,1.939c0.186,0.188,0.488,0.188,0.674,0l2.701-2.699
			c0.186-0.188,0.186-0.49,0-0.676l-1.941-1.941c0.309-0.633,0.553-1.471,0.742-2.227h2.727c0.264,0,0.479-0.213,0.479-0.477v-2.865
			C46.785,33.762,46.57,33.549,46.307,33.549z M35.326,39.277c-2.105,0-3.818-1.715-3.818-3.818c0-2.105,1.713-3.82,3.818-3.82
			s3.82,1.715,3.82,3.82C39.146,37.563,37.432,39.277,35.326,39.277z"/>
		<path fill="none" stroke="#010101" stroke-miterlimit="10" d="M46.307,33.549H43.58c-0.189-0.754-0.432-1.592-0.742-2.227
			l1.941-1.939c0.186-0.188,0.186-0.489,0-0.676l-2.701-2.7c-0.188-0.187-0.488-0.187-0.676,0l-1.941,1.939
			c-0.633-0.309-1.471-0.552-2.225-0.741v-2.727c0-0.264-0.215-0.478-0.477-0.478h-2.865c-0.264,0-0.478,0.214-0.478,0.478v2.727
			c-0.754,0.189-1.591,0.433-2.226,0.741l-1.941-1.939c-0.187-0.187-0.488-0.187-0.676,0l-2.701,2.7
			c-0.186,0.186-0.186,0.488,0,0.675l1.941,1.941c-0.307,0.632-0.552,1.47-0.742,2.226h-2.726c-0.263,0-0.478,0.213-0.478,0.477
			v2.865c0,0.264,0.214,0.477,0.478,0.477h2.726c0.19,0.756,0.436,1.594,0.742,2.227l-1.941,1.941c-0.186,0.186-0.186,0.488,0,0.676
			l2.701,2.699c0.181,0.18,0.498,0.18,0.676,0l1.94-1.941c0.634,0.311,1.472,0.553,2.227,0.744v2.727
			c0,0.264,0.214,0.477,0.478,0.477h2.865c0.262,0,0.477-0.213,0.477-0.477v-2.727c0.756-0.191,1.594-0.434,2.225-0.742l1.943,1.939
			c0.186,0.188,0.488,0.188,0.674,0l2.701-2.699c0.186-0.188,0.186-0.49,0-0.676l-1.941-1.941c0.309-0.633,0.553-1.471,0.742-2.227
			h2.727c0.264,0,0.479-0.213,0.479-0.477v-2.865C46.785,33.762,46.57,33.549,46.307,33.549z M35.326,39.277
			c-2.105,0-3.818-1.715-3.818-3.818c0-2.105,1.713-3.82,3.818-3.82s3.82,1.715,3.82,3.82
			C39.146,37.563,37.432,39.277,35.326,39.277z"/>
	</g>
</g>
</svg>
