<?xml version="1.0" encoding="utf-8"?>
<!-- Generator: Adobe Illustrator 15.0.0, SVG Export Plug-In . SVG Version: 6.00 Build 0)  -->
<!DOCTYPE svg PUBLIC "-//W3C//DTD SVG 1.1//EN" "http://www.w3.org/Graphics/SVG/1.1/DTD/svg11.dtd">
<svg version="1.1" id="Layer_1" xmlns="http://www.w3.org/2000/svg" xmlns:xlink="http://www.w3.org/1999/xlink" x="0px" y="0px"
	 width="48px" height="48px" viewBox="0 0 48 48" enable-background="new 0 0 48 48" xml:space="preserve">
<circle fill="#FFFFFF" cx="37.25" cy="36.25" r="8.25"/>
<linearGradient id="SVGID_1_" gradientUnits="userSpaceOnUse" x1="5.1079" y1="21.4956" x2="35.1016" y2="21.4956">
	<stop  offset="0" style="stop-color:#FFFFFF"/>
	<stop  offset="0.9447" style="stop-color:#E8E8E9"/>
	<stop  offset="1" style="stop-color:#E6E7E8"/>
</linearGradient>
<path fill="url(#SVGID_1_)" stroke="#010101" stroke-miterlimit="10" d="M34.857,11.742l-9.998-9.998
	C24.703,1.587,24.492,1.5,24.27,1.5H5.941c-0.459,0-0.833,0.373-0.833,0.833v38.325c0,0.461,0.374,0.833,0.833,0.833h28.327
	c0.459,0,0.833-0.372,0.833-0.833V12.331C35.102,12.109,35.013,11.898,34.857,11.742z"/>
<g>
	<linearGradient id="SVGID_2_" gradientUnits="userSpaceOnUse" x1="23.1719" y1="12.0459" x2="41.3857" y2="12.0459">
		<stop  offset="0" style="stop-color:#FFFFFF"/>
		<stop  offset="0.9447" style="stop-color:#E8E8E9"/>
		<stop  offset="1" style="stop-color:#E6E7E8"/>
	</linearGradient>
	<polygon fill="url(#SVGID_2_)" points="41.386,16.458 32.277,18.774 23.172,21.091 25.718,12.046 28.266,3 34.826,9.729 	"/>
	<linearGradient id="SVGID_3_" gradientUnits="userSpaceOnUse" x1="10.9688" y1="25.2627" x2="43.335" y2="25.2627">
		<stop  offset="0" style="stop-color:#FFFFFF"/>
		<stop  offset="0.9447" style="stop-color:#E8E8E9"/>
		<stop  offset="1" style="stop-color:#E6E7E8"/>
	</linearGradient>
	<path fill="url(#SVGID_3_)" stroke="#010101" stroke-miterlimit="10" d="M43.071,14.738L32.282,3.949
		c-0.168-0.168-0.396-0.263-0.635-0.263h-19.78c-0.495,0-0.899,0.402-0.899,0.899v41.357c0,0.497,0.404,0.898,0.899,0.898h30.568
		c0.496,0,0.899-0.401,0.899-0.898V15.374C43.335,15.135,43.24,14.906,43.071,14.738z M30.748,16.272V5.483l10.789,10.789H30.748z"
		/>
</g>
<polygon fill="#FFFFFF" points="-307,133.5 -307.534,134.308 -308.067,135.116 -308.5,134.25 -308.933,133.384 -307.966,133.442 "/>
<g>
	<path fill="#959799" stroke="#010101" stroke-miterlimit="10" d="M16.392,17.772H14.17c-0.918,0-1.666,0.747-1.666,1.666v5.553
		c0,0.918,0.747,1.666,1.666,1.666h2.221c0.918,0,1.666-0.747,1.666-1.666v-5.553C18.057,18.52,17.31,17.772,16.392,17.772z"/>
	<path fill="#4B78BC" stroke="#010101" stroke-miterlimit="10" d="M34.159,18.883H19.723c-0.306,0-0.555,0.249-0.555,0.555v5.553
		c0,0.306,0.25,0.555,0.555,0.555h1.666v7.772h-0.555c-0.306,0-0.555,0.25-0.555,0.556v9.994c0,0.309,0.25,0.556,0.555,0.556h4.442
		c0.306,0,0.556-0.247,0.556-0.556v-9.994c0-0.306-0.25-0.556-0.556-0.556h-0.555v-7.772h5.552c0.306,0,0.556-0.249,0.556-0.555
		c0-1.837,1.494-3.332,3.331-3.332c0.307,0,0.556-0.249,0.556-0.555v-1.666C34.715,19.131,34.466,18.883,34.159,18.883z
		 M23.61,33.318H22.5v-7.772h1.11V33.318z"/>
</g>
<path fill="#E7B6D4" stroke="#010101" stroke-miterlimit="10" d="M21.524,44.941c0.003,0,0.004,0,0.008,0h19.39
	c0.232,0,0.421-0.188,0.413-0.422V25.131c0.018-0.367-0.442-0.568-0.712-0.297l-3.074,3.073l1.142,1.141
	c0.165,0.164,0.165,0.431,0,0.596c-0.166,0.164-0.431,0.164-0.596,0l-1.142-1.141l-1.511,1.511l1.141,1.142
	c0.165,0.164,0.165,0.431,0,0.596c-0.165,0.164-0.432,0.164-0.597,0l-1.141-1.141l-1.511,1.511l1.141,1.143
	c0.165,0.164,0.165,0.431,0,0.596c-0.165,0.163-0.431,0.163-0.596,0l-1.142-1.142l-1.515,1.515l1.144,1.137
	c0.166,0.164,0.166,0.433,0.002,0.597c-0.166,0.166-0.432,0.165-0.597,0.002l-1.145-1.14l-1.509,1.509l1.142,1.141
	c0.163,0.165,0.163,0.432,0,0.597c-0.165,0.165-0.432,0.165-0.596,0l-1.143-1.142l-1.511,1.512l1.141,1.141
	c0.164,0.165,0.164,0.431,0,0.596c-0.165,0.166-0.432,0.166-0.595,0l-1.142-1.141l-1.512,1.512l1.142,1.142
	c0.164,0.165,0.164,0.43,0,0.595c-0.165,0.165-0.433,0.165-0.597,0l-1.141-1.141l-3.028,3.029
	C20.947,44.412,21.112,44.941,21.524,44.941z M30.558,41.569l7.413-7.413v7.413H30.558z"/>
</svg>
