<?xml version="1.0" encoding="utf-8"?>
<!-- Generator: Adobe Illustrator 15.0.0, SVG Export Plug-In . SVG Version: 6.00 Build 0)  -->
<!DOCTYPE svg PUBLIC "-//W3C//DTD SVG 1.1//EN" "http://www.w3.org/Graphics/SVG/1.1/DTD/svg11.dtd">
<svg version="1.1" id="Layer_1" xmlns="http://www.w3.org/2000/svg" xmlns:xlink="http://www.w3.org/1999/xlink" x="0px" y="0px"
	 width="64px" height="64px" viewBox="0 0 64 64" enable-background="new 0 0 64 64" xml:space="preserve">
<path fill="#233A74" d="M56.026,21.328l-0.002-0.073L42.787,7.347h0.038l3.537,3.733l-3.706-3.927h-0.054L42.486,7.03h-0.011
	l-4.536-4.785H16.457c-3.524,0-6.381,2.857-6.381,6.377v47.745c0,3.522,2.856,6.379,6.381,6.379h35.717
	c3.522,0,6.38-2.856,6.38-6.379V23.992L56.026,21.328z M53.451,56.367c0,0.706-0.572,1.276-1.277,1.276H16.457
	c-0.704,0-1.275-0.57-1.275-1.276V8.623c0-0.702,0.572-1.276,1.275-1.276h21.149l0.342,11.127c0,0,0.446,7.358,8.553,6.47
	l6.949-0.188L53.451,56.367L53.451,56.367z"/>
<line fill="none" stroke="#233A74" stroke-width="2" stroke-miterlimit="10" x1="35.5" y1="50" x2="50.071" y2="50"/>
<line fill="none" stroke="#233A74" stroke-width="2" stroke-miterlimit="10" x1="35.5" y1="44" x2="50.071" y2="44"/>
<line fill="none" stroke="#233A74" stroke-width="2" stroke-miterlimit="10" x1="35.929" y1="37.5" x2="50.5" y2="37.5"/>
<path fill="#233A74" d="M20,52.25c0,0.967-0.784,1.75-1.75,1.75l0,0c-0.966,0-1.75-0.783-1.75-1.75v-16
	c0-0.967,0.784-1.75,1.75-1.75l0,0c0.966,0,1.75,0.783,1.75,1.75V52.25z"/>
<path fill="#233A74" d="M25,51.302c0,1.214-0.783,2.198-1.75,2.198l0,0c-0.967,0-1.75-0.984-1.75-2.198V31.199
	c0-1.215,0.783-2.199,1.75-2.199l0,0c0.967,0,1.75,0.984,1.75,2.199V51.302z"/>
<path fill="#233A74" d="M31.25,50.129c0,1.585-0.783,2.871-1.75,2.871l0,0c-0.967,0-1.75-1.286-1.75-2.871V23.872
	c0-1.586,0.783-2.872,1.75-2.872l0,0c0.967,0,1.75,1.285,1.75,2.872V50.129z"/>
<line fill="none" stroke="#233A74" stroke-width="2" stroke-miterlimit="10" x1="36.429" y1="31.5" x2="51" y2="31.5"/>
<g>
	<path fill="#233A74" d="M29.604,15.542h-5.145v-5.146c0-0.149-0.123-0.271-0.271-0.271c-3.136,0-5.688,2.551-5.688,5.688
		c0,3.136,2.552,5.688,5.688,5.688s5.688-2.552,5.688-5.688C29.875,15.663,29.754,15.542,29.604,15.542z"/>
	<path fill="#233A74" d="M25.813,8.5c-0.15,0-0.271,0.121-0.271,0.271v5.417c0,0.149,0.121,0.271,0.271,0.271h5.416
		c0.15,0,0.271-0.122,0.271-0.271C31.5,11.051,28.948,8.5,25.813,8.5z"/>
</g>
</svg>
