<?xml version="1.0" encoding="utf-8"?>
<!-- Generator: Adobe Illustrator 15.0.0, SVG Export Plug-In . SVG Version: 6.00 Build 0)  -->
<!DOCTYPE svg PUBLIC "-//W3C//DTD SVG 1.1//EN" "http://www.w3.org/Graphics/SVG/1.1/DTD/svg11.dtd">
<svg version="1.1" id="Layer_1" xmlns="http://www.w3.org/2000/svg" xmlns:xlink="http://www.w3.org/1999/xlink" x="0px" y="0px"
	 width="48px" height="48px" viewBox="0 0 48 48" enable-background="new 0 0 48 48" xml:space="preserve">
<g>
	<radialGradient id="SVGID_1_" cx="24.333" cy="24.333" r="19.542" gradientUnits="userSpaceOnUse">
		<stop  offset="0" style="stop-color:#FFFFFF"/>
		<stop  offset="1" style="stop-color:#FFFFFF"/>
	</radialGradient>
	<circle fill="url(#SVGID_1_)" cx="24.333" cy="24.334" r="19.542"/>
	<radialGradient id="SVGID_2_" cx="24.333" cy="24.3335" r="22.3337" gradientUnits="userSpaceOnUse">
		<stop  offset="0" style="stop-color:#FFFFFF"/>
		<stop  offset="0.2553" style="stop-color:#C7DBBE"/>
		<stop  offset="0.5105" style="stop-color:#94BC84"/>
		<stop  offset="0.7283" style="stop-color:#70A45A"/>
		<stop  offset="0.8984" style="stop-color:#599640"/>
		<stop  offset="1" style="stop-color:#519136"/>
	</radialGradient>
	<path fill="url(#SVGID_2_)" stroke="#000000" stroke-width="0.5" stroke-miterlimit="10" d="M24.333,2C12.02,2,2,12.018,2,24.334
		C2,36.65,12.02,46.667,24.333,46.667c12.315,0,22.334-10.017,22.334-22.333C46.667,12.018,36.648,2,24.333,2z M37.362,25.256
		c0,1.54-1.251,2.792-2.792,2.792H20.833l4.133,4.629c1.008,1.124,0.96,2.911-0.113,3.979l-0.55,0.551
		c-0.518,0.518-1.209,0.804-1.939,0.804c-0.758,0-1.465-0.306-1.988-0.857L10.109,26.316c-1.045-1.099-1.038-2.883,0.014-3.977
		L20.567,11.5c1.033-1.076,2.875-1.096,3.935-0.038l0.551,0.55c1.073,1.073,1.113,2.856,0.087,3.975l-4.246,4.627l13.676-0.003
		c1.541,0,2.792,1.252,2.792,2.792V25.256z"/>
</g>
</svg>
