<?xml version="1.0" encoding="utf-8"?>
<!-- Generator: Adobe Illustrator 15.0.0, SVG Export Plug-In . SVG Version: 6.00 Build 0)  -->
<!DOCTYPE svg PUBLIC "-//W3C//DTD SVG 1.1//EN" "http://www.w3.org/Graphics/SVG/1.1/DTD/svg11.dtd">
<svg version="1.1" id="Layer_1" xmlns="http://www.w3.org/2000/svg" xmlns:xlink="http://www.w3.org/1999/xlink" x="0px" y="0px"
	 width="64px" height="64px" viewBox="0 0 64 64" enable-background="new 0 0 64 64" xml:space="preserve">
<path fill="#233A74" d="M32.611,62.592c16.984,0,30.751-13.765,30.751-30.752c0-16.984-13.768-30.75-30.751-30.75
	C15.63,1.09,1.862,14.855,1.862,31.84C1.862,48.827,15.63,62.592,32.611,62.592"/>
<path fill="#FFFFFF" d="M27.933,58.423c1.1-0.839-2.769-6.362-2.769-6.362c0.504-1.672-1.106-9.204-1.106-9.204
	c-5.457-3.681-2.869-7.699-2.869-7.699c1.883-1.674-4.561-5.187-4.561-5.187c-4.145,0.722-5.521-3.598-5.521-3.598
	c-1.84,0.25-2.008-1.257-2.008-1.257c-2.672-4.516,4.186-12.049,4.186-12.049c10.038-10.54,20.754-7.358,20.754-7.358
	c-0.674,0.503-0.691,1.336-0.691,1.336c3.833,3.013-1.377,3.852-1.377,3.852c0.442,1.336,2.572,3.177,2.572,3.177
	c0.497,5.855-2.572,2.174-2.572,2.174v1.674c-4.079,1.675-5.853,3.681-5.853,3.681c-5.409,6.861-4.928,2.513-4.928,2.513
	c-7.488,1.508-4.222,3.341-4.222,3.341c2.341-1.671,2.843,0.673,2.843,0.673l2.449,2.843l3.858-1.001
	c2.288,0.003,11.434,6.486,11.434,6.486c4.013,1.467,1.004,5.4,1.004,5.4l-6.586,9.705c-2.737,5.858-1.043,6.861-1.043,6.861"/>
<path fill="#FFFFFF" d="M39.388,9.724l-1.84-4.012l8.867,4.012C43.995,9.558,39.388,9.724,39.388,9.724z"/>
<path fill="#FFFFFF" d="M56.909,35.661c-8.078,0.335-10.492-3.681-10.492-3.681c-4.015-5.353,4.067-10.543,4.067-10.543
	c-3.457-2.675,0.955-4.018,0.955-4.018v-1.674c-3.848-0.504-0.666-3.678-0.666-3.678c13.051,13.216,6.967,28.615,6.967,28.615
	C56.68,39.513,56.909,35.661,56.909,35.661z"/>
</svg>
