<?xml version="1.0" encoding="utf-8"?>
<!-- Generator: Adobe Illustrator 15.0.0, SVG Export Plug-In . SVG Version: 6.00 Build 0)  -->
<!DOCTYPE svg PUBLIC "-//W3C//DTD SVG 1.1//EN" "http://www.w3.org/Graphics/SVG/1.1/DTD/svg11.dtd">
<svg version="1.1" id="Layer_1" xmlns="http://www.w3.org/2000/svg" xmlns:xlink="http://www.w3.org/1999/xlink" x="0px" y="0px"
	 width="48px" height="48px" viewBox="0 0 48 48" enable-background="new 0 0 48 48" xml:space="preserve">
<g>
	<path fill="#010101" d="M24.768,35.975c0-4.206,2.176-7.905,5.454-10.052c-1.466-0.529-3.257-1.16-5.454-1.96v-3.294
		c0.898-0.6,2.553-2.14,2.753-5.409c0.677-0.426,1.103-1.342,1.103-2.517c0-1.029-0.328-1.863-0.869-2.337
		c0.448-1.175,1.192-3.231,0.683-5.275c-0.613-2.467-4.102-3.342-6.902-3.342c-2.48,0-5.5,0.687-6.584,2.557
		c-1.292-0.074-2.011,0.479-2.359,0.944c-0.959,1.276-0.513,3.276,0.004,5.072c-0.607,0.46-0.982,1.333-0.982,2.414
		c0,1.188,0.451,2.064,1.164,2.483c0.202,3.269,1.854,4.809,2.753,5.409v3.294c-8.774,3.201-11.087,3.655-11.964,5.976
		c-0.912,2.749-0.971,7.627-0.971,7.882c0,0.512,0.414,0.926,0.924,0.926h21.585C24.893,37.854,24.768,36.93,24.768,35.975z"/>
	<path fill="#CD8F2A" d="M36.779,25.81c-5.605,0-10.164,4.559-10.164,10.165c0,5.601,4.559,10.148,10.164,10.148
		c5.602,0,10.162-4.548,10.162-10.148C46.941,30.368,42.381,25.81,36.779,25.81z M41.399,36.897h-3.696v3.696
		c0,0.508-0.416,0.923-0.924,0.923c-0.512,0-0.925-0.415-0.925-0.923v-3.696H32.16c-0.512,0-0.925-0.415-0.925-0.923
		c0-0.513,0.413-0.926,0.925-0.938h3.694v-3.683c0-0.512,0.413-0.925,0.925-0.925c0.508,0,0.924,0.413,0.924,0.925v3.683h3.696
		c0.509,0.012,0.923,0.425,0.923,0.938C42.322,36.482,41.908,36.897,41.399,36.897z"/>
</g>
</svg>
