<?xml version="1.0" encoding="utf-8"?>
<!-- Generator: Adobe Illustrator 15.0.0, SVG Export Plug-In . SVG Version: 6.00 Build 0)  -->
<!DOCTYPE svg PUBLIC "-//W3C//DTD SVG 1.1//EN" "http://www.w3.org/Graphics/SVG/1.1/DTD/svg11.dtd">
<svg version="1.1" id="Layer_1" xmlns="http://www.w3.org/2000/svg" xmlns:xlink="http://www.w3.org/1999/xlink" x="0px" y="0px"
	 width="48px" height="48px" viewBox="0 0 48 48" enable-background="new 0 0 48 48" xml:space="preserve">
<g>
	<rect x="9.341" y="5.829" fill="#FFFFFF" width="29.679" height="38.769"/>
	<path fill="#A98C30" stroke="#432B13" stroke-miterlimit="10" d="M42.12,5.721c0-0.522-0.421-0.944-0.945-0.944h-4.719v3.776h0.943
		c0.521,0,0.943,0.422,0.943,0.944v23.603l-0.204,9.041c-0.522,0-9.237,0.4-9.237,0.4H10.962c-0.522,0-0.944-0.421-0.944-0.942
		V9.498c0-0.522,0.422-0.944,0.944-0.944h0.945V4.777H7.186c-0.522,0-0.944,0.422-0.944,0.944v39.656
		c0,0.521,0.422,0.943,0.944,0.943h33.989c0.524,0,0.945-0.422,0.945-0.943V5.721z"/>
	<linearGradient id="SVGID_1_" gradientUnits="userSpaceOnUse" x1="13.7949" y1="6.665" x2="34.5674" y2="6.665">
		<stop  offset="0" style="stop-color:#FFFFFF"/>
		<stop  offset="1" style="stop-color:#000000"/>
	</linearGradient>
	<path fill="url(#SVGID_1_)" stroke="#030202" stroke-miterlimit="10" d="M33.622,4.777h-4.813C28.369,2.625,26.46,1,24.181,1
		c-2.279,0-4.188,1.625-4.627,3.777h-4.815c-0.522,0-0.944,0.422-0.944,0.944v5.666c0,0.521,0.422,0.944,0.944,0.944h18.883
		c0.523,0,0.945-0.423,0.945-0.944V5.721C34.567,5.199,34.146,4.777,33.622,4.777z"/>
	<g>
		<path fill="#010101" d="M15.96,29.993c-0.368-0.368-0.368-0.967,0-1.335l1.498-1.499c1.102-1.104,2.902-1.104,4.005,0
			c0.674,0.677,1.139,0.522,1.659,0c1.042-1.043,2.767-1.237,4.168,0.163c0.358,0.355,0.978,0.355,1.336,0l1.496-1.498
			c0.369-0.368,0.967-0.368,1.335,0c0.369,0.37,0.369,0.968,0,1.335l-1.496,1.499c-1.104,1.104-2.904,1.104-4.006,0
			c-0.52-0.52-0.984-0.674-1.66,0c-1.042,1.045-2.766,1.238-4.167-0.162c-0.358-0.355-0.977-0.355-1.334,0l-1.498,1.497
			C16.927,30.362,16.329,30.362,15.96,29.993z"/>
	</g>
	<g>
		<path fill="#010101" d="M15.96,22.439c-0.368-0.368-0.368-0.966,0-1.334l1.498-1.498c1.102-1.105,2.902-1.105,4.005,0
			c0.674,0.674,1.139,0.52,1.659,0c1.042-1.044,2.767-1.238,4.168,0.162c0.358,0.356,0.978,0.356,1.336,0l1.496-1.498
			c0.369-0.368,0.967-0.368,1.335,0c0.369,0.369,0.369,0.966,0,1.335l-1.496,1.498c-1.104,1.104-2.904,1.104-4.006,0
			c-0.52-0.52-0.984-0.674-1.66,0c-1.042,1.044-2.766,1.238-4.167-0.162c-0.358-0.356-0.977-0.356-1.334,0l-1.498,1.497
			C16.927,22.808,16.329,22.808,15.96,22.439z"/>
	</g>
</g>
</svg>
