<?xml version="1.0" encoding="utf-8"?>
<!-- Generator: Adobe Illustrator 15.0.0, SVG Export Plug-In . SVG Version: 6.00 Build 0)  -->
<!DOCTYPE svg PUBLIC "-//W3C//DTD SVG 1.1//EN" "http://www.w3.org/Graphics/SVG/1.1/DTD/svg11.dtd">
<svg version="1.1" id="Layer_1" xmlns="http://www.w3.org/2000/svg" xmlns:xlink="http://www.w3.org/1999/xlink" x="0px" y="0px"
	 width="48px" height="48px" viewBox="0 0 48 48" enable-background="new 0 0 48 48" xml:space="preserve">
<rect x="10.667" y="15.333" fill="#FFFFFF" width="17" height="30"/>
<ellipse fill="#FFFFFF" cx="7" cy="28.334" rx="5" ry="4.333"/>
<rect x="9.667" y="14.667" fill="#FFFFFF" width="18" height="31.333"/>
<circle fill="#898688" stroke="#000000" stroke-miterlimit="10" cx="6.214" cy="28.047" r="0.745"/>
<path fill="#BFBFBF" stroke="#000000" stroke-miterlimit="10" d="M33.027,22.833H4.725C2.67,22.833,1,24.505,1,26.558v8.938
	c0,2.054,1.67,3.725,3.725,3.725h3.724v6.702c0,0.412,0.333,0.745,0.745,0.745h19.365c0.409,0,0.745-0.333,0.745-0.745V39.22h3.724
	c2.052,0,3.725-1.671,3.725-3.725v-8.938C36.752,24.505,35.079,22.833,33.027,22.833z M6.214,30.282
	c-1.232,0-2.234-1.004-2.234-2.234c0-1.233,1.002-2.235,2.234-2.235c1.23,0,2.234,1.002,2.234,2.235
	C8.448,29.278,7.444,30.282,6.214,30.282z M27.814,45.177H9.938V34.75h17.876V45.177z"/>
<path fill="#FFFFFF" stroke="#000000" stroke-miterlimit="10" d="M9.193,21.343h19.365c0.409,0,0.745-0.333,0.745-0.745v-1.49
	c0-0.198-0.078-0.387-0.218-0.527l-4.469-4.469c-0.141-0.139-0.33-0.218-0.528-0.218H9.193c-0.412,0-0.745,0.334-0.745,0.745v5.958
	C8.448,21.011,8.781,21.343,9.193,21.343z M24.089,14.64l4.47,4.469h-4.47V14.64z"/>
<path fill="#898688" stroke="#000000" stroke-miterlimit="10" d="M12.172,37.729h13.406c0.412,0,0.746-0.333,0.746-0.744
	s-0.334-0.745-0.746-0.745H12.172c-0.412,0-0.745,0.334-0.745,0.745S11.761,37.729,12.172,37.729z"/>
<path fill="#898688" stroke="#000000" stroke-miterlimit="10" d="M12.172,40.709h13.406c0.412,0,0.746-0.333,0.746-0.744
	c0-0.412-0.334-0.745-0.746-0.745H12.172c-0.412,0-0.745,0.333-0.745,0.745C11.428,40.376,11.761,40.709,12.172,40.709z"/>
<path fill="#898688" stroke="#000000" stroke-miterlimit="10" d="M12.172,43.688h13.406c0.412,0,0.746-0.332,0.746-0.745
	c0-0.41-0.334-0.743-0.746-0.743H12.172c-0.412,0-0.745,0.333-0.745,0.743C11.428,43.355,11.761,43.688,12.172,43.688z"/>
<g>
	<g>
		<path fill="#DFD021" stroke="#A49A34" stroke-miterlimit="10" d="M47.895,26.355c0.202,0.235,0.106,0.65-0.214,0.918l-2.023,1.703
			c-0.322,0.27-0.743,0.291-0.946,0.052L34.414,16.775c-0.201-0.24-0.104-0.651,0.216-0.92l2.026-1.702
			c0.318-0.27,0.74-0.293,0.941-0.053L47.895,26.355z"/>
		<circle fill="#DFD021" stroke="#A49A34" stroke-miterlimit="10" cx="31.01" cy="9.983" r="9.982"/>
	</g>
	<path fill="#FFFFFF" stroke="#DFD021" stroke-miterlimit="10" d="M35.889,8.929c0.58,2.697-1.133,5.352-3.825,5.932
		c-2.695,0.582-5.35-1.13-5.932-3.825c-0.58-2.694,1.133-5.35,3.826-5.93C32.654,4.524,35.308,6.236,35.889,8.929z"/>
</g>
</svg>
