<?xml version="1.0" encoding="utf-8"?>
<!-- Generator: Adobe Illustrator 15.0.0, SVG Export Plug-In . SVG Version: 6.00 Build 0)  -->
<!DOCTYPE svg PUBLIC "-//W3C//DTD SVG 1.1//EN" "http://www.w3.org/Graphics/SVG/1.1/DTD/svg11.dtd">
<svg version="1.1" id="Layer_1" xmlns="http://www.w3.org/2000/svg" xmlns:xlink="http://www.w3.org/1999/xlink" x="0px" y="0px"
	 width="48px" height="48px" viewBox="0 0 48 48" enable-background="new 0 0 48 48" xml:space="preserve">
<rect x="12.135" y="6" fill="#FFFFFF" width="21.842" height="38.544"/>
<ellipse fill="#FFFFFF" cx="8.709" cy="22.446" rx="6.424" ry="5.566"/>
<rect x="12.135" y="4.886" fill="#FFFFFF" width="23.126" height="40.256"/>
<path fill="#898688" stroke="#000000" stroke-miterlimit="10" d="M7.699,21.12c-0.528,0-0.957,0.431-0.957,0.958
	c0,0.525,0.429,0.956,0.957,0.956c0.527,0,0.957-0.431,0.957-0.956C8.656,21.551,8.226,21.12,7.699,21.12z"/>
<path fill="#BFBFBF" stroke="#000000" stroke-miterlimit="10" d="M42.149,15.378H5.785C3.146,15.378,1,17.527,1,20.164v11.483
	c0,2.639,2.146,4.784,4.785,4.784h4.784v8.611c0,0.529,0.428,0.957,0.957,0.957h24.881c0.525,0,0.957-0.428,0.957-0.957v-8.611
	h4.785c2.636,0,4.785-2.146,4.785-4.784V20.164C46.935,17.527,44.785,15.378,42.149,15.378z M7.699,24.948
	c-1.583,0-2.871-1.29-2.871-2.87c0-1.584,1.287-2.871,2.871-2.871c1.581,0,2.871,1.287,2.871,2.871
	C10.569,23.658,9.28,24.948,7.699,24.948z M35.451,44.086H12.484V30.688h22.967V44.086z"/>
<path fill="#FFFFFF" stroke="#000000" stroke-miterlimit="10" d="M11.526,13.464h24.881c0.525,0,0.957-0.426,0.957-0.956v-1.915
	c0-0.254-0.1-0.497-0.28-0.677l-5.74-5.742c-0.181-0.178-0.425-0.28-0.679-0.28H11.526c-0.529,0-0.957,0.429-0.957,0.957v7.657
	C10.569,13.038,10.998,13.464,11.526,13.464z M30.665,4.852l5.742,5.742h-5.742V4.852z"/>
<path fill="#898688" stroke="#000000" stroke-miterlimit="10" d="M15.354,34.517h17.224c0.529,0,0.959-0.428,0.959-0.955
	c0-0.529-0.43-0.957-0.959-0.957H15.354c-0.529,0-0.957,0.428-0.957,0.957C14.397,34.089,14.825,34.517,15.354,34.517z"/>
<path fill="#898688" stroke="#000000" stroke-miterlimit="10" d="M15.354,38.346h17.224c0.529,0,0.959-0.428,0.959-0.957
	s-0.43-0.957-0.959-0.957H15.354c-0.529,0-0.957,0.428-0.957,0.957S14.825,38.346,15.354,38.346z"/>
<path fill="#898688" stroke="#000000" stroke-miterlimit="10" d="M15.354,42.171h17.224c0.529,0,0.959-0.426,0.959-0.957
	c0-0.526-0.43-0.954-0.959-0.954H15.354c-0.529,0-0.957,0.428-0.957,0.954C14.397,41.745,14.825,42.171,15.354,42.171z"/>
</svg>
