<?xml version="1.0" encoding="utf-8"?>
<!-- Generator: Adobe Illustrator 15.0.0, SVG Export Plug-In . SVG Version: 6.00 Build 0)  -->
<!DOCTYPE svg PUBLIC "-//W3C//DTD SVG 1.1//EN" "http://www.w3.org/Graphics/SVG/1.1/DTD/svg11.dtd">
<svg version="1.1" id="Layer_1" xmlns="http://www.w3.org/2000/svg" xmlns:xlink="http://www.w3.org/1999/xlink" x="0px" y="0px"
	 width="64px" height="64px" viewBox="0 0 64 64" enable-background="new 0 0 64 64" xml:space="preserve">
<g>
	<path fill="#233A74" d="M55.807,7.5H9.141C5.753,7.5,3,10.254,3,13.64v6.141h58.947V13.64C61.947,10.254,59.19,7.5,55.807,7.5z
		 M12.825,17.324c-1.356,0-2.456-1.101-2.456-2.456c0-1.355,1.1-2.456,2.456-2.456c1.353,0,2.456,1.101,2.456,2.456
		C15.28,16.224,14.178,17.324,12.825,17.324z M20.193,17.324c-1.356,0-2.457-1.101-2.457-2.456c0-1.355,1.101-2.456,2.457-2.456
		c1.353,0,2.456,1.101,2.456,2.456C22.649,16.224,21.546,17.324,20.193,17.324z M27.562,17.324c-1.356,0-2.456-1.101-2.456-2.456
		c0-1.355,1.1-2.456,2.456-2.456c1.353,0,2.456,1.101,2.456,2.456C30.017,16.224,28.915,17.324,27.562,17.324z"/>
	<path fill="#233A74" d="M3,48.026c0,3.387,2.753,6.141,6.141,6.141h46.666c3.384,0,6.141-2.754,6.141-6.141v-25.79H3V48.026z"/>
</g>
</svg>
