<?xml version="1.0" encoding="utf-8"?>
<!-- Generator: Adobe Illustrator 15.0.0, SVG Export Plug-In . SVG Version: 6.00 Build 0)  -->
<!DOCTYPE svg PUBLIC "-//W3C//DTD SVG 1.1//EN" "http://www.w3.org/Graphics/SVG/1.1/DTD/svg11.dtd">
<svg version="1.1" id="Layer_1" xmlns="http://www.w3.org/2000/svg" xmlns:xlink="http://www.w3.org/1999/xlink" x="0px" y="0px"
	 width="64px" height="64px" viewBox="0 0 64 64" enable-background="new 0 0 64 64" xml:space="preserve">
<g>
	<path fill="#233A74" d="M54.097,13.797H11.125v36.531h42.972V13.797z M35.484,44.861c-0.709,0.67-1.535,1.011-2.484,1.011
		c-0.96,0-1.795-0.341-2.504-1.011c-0.706-0.667-1.061-1.471-1.061-2.408c0-0.935,0.354-1.745,1.061-2.429
		C31.205,39.342,32.04,39,33,39c0.949,0,1.775,0.342,2.484,1.024c0.709,0.684,1.063,1.494,1.063,2.429
		C36.545,43.391,36.193,44.194,35.484,44.861z M36.315,24.057c-0.179,0.83-0.404,1.802-0.673,2.921
		c-0.26,1.062-0.554,2.382-0.888,3.965c-0.335,1.583-0.684,3.538-1.053,5.861h-1.421c-0.372-2.352-0.722-4.311-1.053-5.873
		s-0.628-2.873-0.887-3.936c-0.235-0.972-0.452-1.923-0.647-2.852c-0.198-0.927-0.297-1.628-0.297-2.094
		c0-0.949,0.349-1.757,1.052-2.429c0.704-0.67,1.547-1.009,2.531-1.009c0.972,0,1.813,0.339,2.527,1.009
		c0.713,0.671,1.072,1.479,1.072,2.429C36.581,22.554,36.493,23.225,36.315,24.057z"/>
	<path fill="#233A74" d="M60.848,5.407H4.379c-1.238,0-2.247,1.004-2.247,2.251v48.818c0,1.241,1.009,2.247,2.247,2.247h56.469
		c1.239,0,2.245-1.006,2.245-2.247V7.658C63.093,6.411,62.089,5.407,60.848,5.407z M56.637,52.868H8.585V11.259h48.052V52.868z"/>
</g>
</svg>
