<?xml version="1.0" encoding="utf-8"?>
<!-- Generator: Adobe Illustrator 15.0.0, SVG Export Plug-In . SVG Version: 6.00 Build 0)  -->
<!DOCTYPE svg PUBLIC "-//W3C//DTD SVG 1.1//EN" "http://www.w3.org/Graphics/SVG/1.1/DTD/svg11.dtd">
<svg version="1.1" id="Layer_1" xmlns="http://www.w3.org/2000/svg" xmlns:xlink="http://www.w3.org/1999/xlink" x="0px" y="0px"
	 width="64px" height="64px" viewBox="0 0 64 64" enable-background="new 0 0 64 64" xml:space="preserve">
<g>
	<path fill="#233A74" d="M53.268,60.209l-5.149-4.938c-0.229-0.222-0.535-0.344-0.854-0.344H26.156c0.169-1.132,0.169-1.339,0-2.469
		h23.578c0.683,0,1.234-0.55,1.234-1.234V29.005c0-0.68-0.552-1.234-1.234-1.234H25.046c-0.682,0-1.234,0.555-1.234,1.234v18.66
		c-0.707-0.723-1.547-1.308-2.469-1.745V4.318c0-0.683-0.552-1.234-1.234-1.234h-7.406c-0.682,0-1.234,0.552-1.234,1.234
		c0,0.682,0.552,1.234,1.234,1.234h6.172v39.625C13.422,44.386,9,48.639,9,53.691c0,4.765,3.876,8.642,8.64,8.642
		c3.434,0,6.381-2.028,7.773-4.938h21.355l4.792,4.596c0.492,0.473,1.269,0.455,1.746-0.037
		C53.776,61.459,53.76,60.679,53.268,60.209z M39.858,45.052h4.938c0.683,0,1.234,0.552,1.234,1.233
		c0,0.684-0.552,1.235-1.234,1.235h-4.938c-0.682,0-1.234-0.552-1.234-1.235C38.624,45.604,39.177,45.052,39.858,45.052z"/>
	<path fill="#233A74" d="M25.046,25.302h17.281c0.683,0,1.234-0.552,1.234-1.234V11.725c0-0.683-0.552-1.234-1.234-1.234H25.046
		c-0.682,0-1.234,0.552-1.234,1.234v12.343C23.812,24.75,24.364,25.302,25.046,25.302z M29.984,17.896h2.468
		c0.683,0,1.234,0.552,1.234,1.234c0,0.683-0.552,1.234-1.234,1.234h-2.468c-0.683,0-1.235-0.552-1.235-1.234
		C28.749,18.448,29.301,17.896,29.984,17.896z"/>
</g>
</svg>
