<?xml version="1.0" encoding="utf-8"?>
<!-- Generator: Adobe Illustrator 15.0.0, SVG Export Plug-In . SVG Version: 6.00 Build 0)  -->
<!DOCTYPE svg PUBLIC "-//W3C//DTD SVG 1.1//EN" "http://www.w3.org/Graphics/SVG/1.1/DTD/svg11.dtd">
<svg version="1.1" id="Layer_1" xmlns="http://www.w3.org/2000/svg" xmlns:xlink="http://www.w3.org/1999/xlink" x="0px" y="0px"
	 width="48px" height="48px" viewBox="0 0 48 48" enable-background="new 0 0 48 48" xml:space="preserve">
<polygon fill="#FFFFFF" points="-307,133.5 -307.534,134.308 -308.067,135.116 -308.5,134.25 -308.933,133.384 -307.966,133.442 "/>
<rect x="-315.4" y="-113.4" fill="#999999" width="0.8" height="0.4"/>
<g>
	<g opacity="0.57">
		<path d="M24.65,5.157c12.489,0,22.649,8.368,22.649,18.654c0,4.857-2.221,9.41-6.275,12.892l4.548,9.082
			c0.403,0.804-0.446,1.656-1.243,1.277L32.181,41.41c-2.413,0.699-4.944,1.053-7.531,1.053C12.161,42.463,2,34.096,2,23.811
			C2,13.525,12.161,5.157,24.65,5.157z"/>
		<path fill="none" stroke="#000000" stroke-miterlimit="10" d="M24.65,5.157c12.489,0,22.649,8.368,22.649,18.654
			c0,4.857-2.221,9.41-6.275,12.892l4.548,9.082c0.403,0.804-0.446,1.656-1.243,1.277L32.181,41.41
			c-2.413,0.699-4.944,1.053-7.531,1.053C12.161,42.463,2,34.096,2,23.811C2,13.525,12.161,5.157,24.65,5.157z"/>
	</g>
	<g>
		<linearGradient id="SVGID_1_" gradientUnits="userSpaceOnUse" x1="1" y1="25.1563" x2="46.2988" y2="25.1563">
			<stop  offset="0" style="stop-color:#FFFFFF"/>
			<stop  offset="0.4168" style="stop-color:#FDFDFD"/>
			<stop  offset="0.567" style="stop-color:#F6F6F7"/>
			<stop  offset="0.674" style="stop-color:#EBEBEB"/>
			<stop  offset="0.7606" style="stop-color:#DADADB"/>
			<stop  offset="0.8347" style="stop-color:#C4C4C5"/>
			<stop  offset="0.9003" style="stop-color:#A8A9AB"/>
			<stop  offset="0.9582" style="stop-color:#898A8C"/>
			<stop  offset="1" style="stop-color:#6D6E71"/>
		</linearGradient>
		<path fill="url(#SVGID_1_)" d="M23.65,4.157c12.489,0,22.649,8.368,22.649,18.654c0,4.857-2.221,9.41-6.275,12.892l4.548,9.082
			c0.403,0.804-0.446,1.656-1.243,1.277L31.181,40.41c-2.413,0.699-4.944,1.053-7.531,1.053C11.161,41.463,1,33.096,1,22.811
			C1,12.525,11.161,4.157,23.65,4.157z"/>
		<path fill="none" stroke="#233A74" stroke-miterlimit="10" d="M23.65,4.157c12.489,0,22.649,8.368,22.649,18.654
			c0,4.857-2.221,9.41-6.275,12.892l4.548,9.082c0.403,0.804-0.446,1.656-1.243,1.277L31.181,40.41
			c-2.413,0.699-4.944,1.053-7.531,1.053C11.161,41.463,1,33.096,1,22.811C1,12.525,11.161,4.157,23.65,4.157z"/>
	</g>
</g>
<text transform="matrix(0.9958 -0.092 0.092 0.9958 14.7964 33.9971)" fill="#233A74" font-family="'BookmanOldStyle-Bold'" font-size="34">?</text>
</svg>
