<?xml version="1.0" encoding="utf-8"?>
<!-- Generator: Adobe Illustrator 15.0.0, SVG Export Plug-In . SVG Version: 6.00 Build 0)  -->
<!DOCTYPE svg PUBLIC "-//W3C//DTD SVG 1.1//EN" "http://www.w3.org/Graphics/SVG/1.1/DTD/svg11.dtd">
<svg version="1.1" id="Layer_1" xmlns="http://www.w3.org/2000/svg" xmlns:xlink="http://www.w3.org/1999/xlink" x="0px" y="0px"
	 width="48px" height="48px" viewBox="0 0 48 48" enable-background="new 0 0 48 48" xml:space="preserve">
<circle fill="#FFFFFF" cx="37.25" cy="36.25" r="8.25"/>
<linearGradient id="SVGID_1_" gradientUnits="userSpaceOnUse" x1="23.1719" y1="12.0459" x2="41.3857" y2="12.0459">
	<stop  offset="0" style="stop-color:#FFFFFF"/>
	<stop  offset="0.9447" style="stop-color:#E8E8E9"/>
	<stop  offset="1" style="stop-color:#E6E7E8"/>
</linearGradient>
<polygon fill="url(#SVGID_1_)" points="41.386,16.458 32.277,18.774 23.172,21.091 25.718,12.046 28.266,3 34.826,9.729 "/>
<linearGradient id="SVGID_2_" gradientUnits="userSpaceOnUse" x1="10.9688" y1="25.2627" x2="43.335" y2="25.2627">
	<stop  offset="0" style="stop-color:#FFFFFF"/>
	<stop  offset="0.9447" style="stop-color:#E8E8E9"/>
	<stop  offset="1" style="stop-color:#E6E7E8"/>
</linearGradient>
<path fill="url(#SVGID_2_)" stroke="#010101" stroke-width="0.75" stroke-miterlimit="10" d="M43.071,14.738L32.282,3.949
	c-0.168-0.168-0.396-0.263-0.635-0.263h-19.78c-0.495,0-0.899,0.402-0.899,0.899v41.357c0,0.497,0.404,0.898,0.899,0.898h30.568
	c0.496,0,0.899-0.401,0.899-0.898V15.374C43.335,15.135,43.24,14.906,43.071,14.738z M30.748,16.272V5.483l10.789,10.789H30.748z"/>
<polygon fill="#FFFFFF" points="-307,133.5 -307.534,134.308 -308.067,135.116 -308.5,134.25 -308.933,133.384 -307.966,133.442 "/>
<path fill="#1CAA4B" stroke="#1CAA4B" stroke-width="2" stroke-miterlimit="10" d="M36.276,21.598
	c-1.98-2.232-4.826-3.512-7.808-3.512c-5.483,0-9.982,4.254-10.395,9.633l-1.091-1.625c-0.337-0.502-1.021-0.64-1.524-0.299
	c-0.503,0.338-0.637,1.02-0.299,1.524l3.195,4.724c0.43,0.43,1.124,0.43,1.554,0l3.588-4.288c0.388-0.466,0.326-1.157-0.14-1.547
	s-1.157-0.327-1.547,0.14l-1.564,1.873c0.159-4.402,3.78-7.938,8.223-7.938c2.354,0,4.601,1.01,6.164,2.773
	c0.403,0.455,1.098,0.493,1.551,0.092C36.638,22.746,36.679,22.053,36.276,21.598z"/>
<path fill="#1CAA4B" stroke="#1CAA4B" stroke-width="2" stroke-miterlimit="10" d="M18.153,39.384
	c2.033,2.185,4.908,3.396,7.89,3.325c5.481-0.13,9.878-4.49,10.162-9.877l1.129,1.599c0.349,0.494,1.035,0.615,1.531,0.263
	c0.495-0.35,0.612-1.034,0.263-1.531l-3.307-4.646c-0.439-0.419-1.134-0.402-1.554,0.037l-3.484,4.372
	c-0.377,0.475-0.299,1.165,0.177,1.543c0.475,0.379,1.163,0.3,1.543-0.176l1.519-1.91c-0.054,4.405-3.591,8.025-8.031,8.131
	c-2.354,0.056-4.623-0.9-6.228-2.626c-0.414-0.446-1.109-0.468-1.553-0.055C17.765,38.244,17.74,38.938,18.153,39.384z"/>
</svg>
