<?xml version="1.0" encoding="utf-8"?>
<!-- Generator: Adobe Illustrator 15.0.0, SVG Export Plug-In . SVG Version: 6.00 Build 0)  -->
<!DOCTYPE svg PUBLIC "-//W3C//DTD SVG 1.1//EN" "http://www.w3.org/Graphics/SVG/1.1/DTD/svg11.dtd">
<svg version="1.1" id="Layer_1" xmlns="http://www.w3.org/2000/svg" xmlns:xlink="http://www.w3.org/1999/xlink" x="0px" y="0px"
	 width="64px" height="64px" viewBox="0 0 64 64" enable-background="new 0 0 64 64" xml:space="preserve">
<g>
	<path fill="#233A74" d="M4,18.182v31.909C4,53.351,6.65,56,9.909,56h44.909c3.259,0,5.909-2.649,5.909-5.909V18.182H4z
		 M29.326,24.617l-7.033,10.11H9.969C10.816,25.4,21.072,19.917,29.326,24.617z M9.969,37.091h12.394l7.997,9.455
		C22.193,52.279,10.869,47.003,9.969,37.091z M32.164,45.022l-7.767-9.184l6.868-9.874C37.074,30.854,37.499,39.603,32.164,45.022z
		 M53.637,41.818H39.454c-0.653,0-1.182-0.528-1.182-1.182c0-0.654,0.528-1.183,1.182-1.183h14.183c0.653,0,1.182,0.528,1.182,1.183
		C54.818,41.29,54.29,41.818,53.637,41.818z M53.637,34.728H39.454c-0.653,0-1.182-0.528-1.182-1.182
		c0-0.654,0.528-1.183,1.182-1.183h14.183c0.653,0,1.182,0.528,1.182,1.183C54.818,34.199,54.29,34.728,53.637,34.728z
		 M53.637,27.636H39.454c-0.653,0-1.182-0.528-1.182-1.182s0.528-1.182,1.182-1.182h14.183c0.653,0,1.182,0.528,1.182,1.182
		S54.29,27.636,53.637,27.636z"/>
	<path fill="#233A74" d="M60.728,15.818V9.909C60.728,6.65,58.077,4,54.818,4H9.909C6.65,4,4,6.65,4,9.909v5.909H60.728z
		 M27.637,8.727C28.94,8.727,30,9.789,30,11.091s-1.06,2.364-2.363,2.364c-1.305,0-2.363-1.062-2.363-2.364
		S26.332,8.727,27.637,8.727z M20.545,8.727c1.305,0,2.364,1.062,2.364,2.364s-1.06,2.364-2.364,2.364
		c-1.303,0-2.363-1.062-2.363-2.364S19.242,8.727,20.545,8.727z M13.455,8.727c1.304,0,2.364,1.062,2.364,2.364
		s-1.06,2.364-2.364,2.364s-2.364-1.062-2.364-2.364S12.151,8.727,13.455,8.727z"/>
</g>
</svg>
