<?xml version="1.0" encoding="utf-8"?>
<!-- Generator: Adobe Illustrator 15.0.0, SVG Export Plug-In . SVG Version: 6.00 Build 0)  -->
<!DOCTYPE svg PUBLIC "-//W3C//DTD SVG 1.1//EN" "http://www.w3.org/Graphics/SVG/1.1/DTD/svg11.dtd">
<svg version="1.1" id="Layer_1" xmlns="http://www.w3.org/2000/svg" xmlns:xlink="http://www.w3.org/1999/xlink" x="0px" y="0px"
	 width="64px" height="64px" viewBox="0 0 64 64" enable-background="new 0 0 64 64" xml:space="preserve">
<g>
	
		<rect x="12.333" y="37" transform="matrix(0.9291 -0.3698 0.3698 0.9291 -13.4146 10.6865)" fill="#FFFFFF" width="17.667" height="6.666"/>
	
		<rect x="10.533" y="40.107" transform="matrix(0.9803 -0.1974 0.1974 0.9803 -8.1271 5.1017)" fill="#FFFFFF" width="22" height="6.439"/>
	<g>
		<g>
			<line fill="none" stroke="#000000" stroke-width="2" stroke-miterlimit="10" x1="27.464" y1="17.564" x2="27.464" y2="26.067"/>
			<line fill="none" stroke="#000000" stroke-width="2" stroke-miterlimit="10" x1="22.259" y1="16.366" x2="33.27" y2="16.366"/>
		</g>
		<g>
			<path fill="#E0E1E2" stroke="#000000" stroke-miterlimit="10" d="M52.726,52.885H2.1c-0.608,0-1.1,0.494-1.1,1.1
				c0,0.61,0.492,1.102,1.1,1.102h1.746l4.08,4.08c0.206,0.211,0.486,0.323,0.778,0.31h37.419c0.292,0.014,0.571-0.099,0.779-0.31
				l4.079-4.08h1.744c0.609,0,1.102-0.491,1.102-1.102C53.827,53.379,53.335,52.885,52.726,52.885z"/>
			<path fill="#E0E1E2" stroke="#000000" stroke-miterlimit="10" d="M7.604,50.672h39.619c0.011,0.003,0.019,0.003,0.023,0
				c0.607,0,1.1-0.492,1.1-1.101c0-9.359-7.459-16.666-17.339-18.37c0.506-0.716,0.809-1.585,0.809-2.529
				c0-2.424-1.976-4.402-4.401-4.402c-2.43,0-4.402,1.978-4.402,4.402c0,0.944,0.303,1.813,0.807,2.533
				c-9.69,1.669-17.316,8.787-17.316,18.366C6.502,50.18,6.995,50.672,7.604,50.672z M27.414,26.472c1.211,0,2.2,0.988,2.2,2.201
				c0,1.214-0.989,2.202-2.2,2.202c-1.216,0-2.202-0.988-2.202-2.202C25.212,27.46,26.198,26.472,27.414,26.472z M14.428,43.492
				c2.849-4.455,7.703-7.116,12.986-7.116c0.607,0,1.1,0.494,1.1,1.101c0,0.61-0.493,1.102-1.1,1.102
				c-4.527,0-8.689,2.282-11.131,6.099c-0.211,0.326-0.565,0.505-0.929,0.505c-0.205,0-0.409-0.058-0.593-0.173
				C14.25,44.684,14.102,43.998,14.428,43.492z"/>
		</g>
	</g>
</g>
<g>
	<g>
		<path fill="#DFD021" stroke="#A49A34" stroke-miterlimit="10" d="M62.816,35.318c0.259,0.304,0.136,0.835-0.275,1.18l-2.6,2.186
			c-0.412,0.347-0.953,0.375-1.213,0.067L45.506,23.016c-0.259-0.308-0.135-0.835,0.276-1.182l2.601-2.185
			c0.41-0.347,0.951-0.376,1.211-0.068L62.816,35.318z"/>
		<circle fill="#DFD021" stroke="#A49A34" stroke-miterlimit="10" cx="41.133" cy="14.293" r="12.818"/>
	</g>
	<path fill="#FFFFFF" stroke="#DFD021" stroke-miterlimit="10" d="M47.398,12.939c0.745,3.464-1.455,6.873-4.912,7.618
		c-3.462,0.746-6.87-1.452-7.618-4.912c-0.745-3.459,1.454-6.871,4.913-7.616C43.244,7.283,46.652,9.482,47.398,12.939z"/>
</g>
</svg>
