<?xml version="1.0" encoding="utf-8"?>
<!-- Generator: Adobe Illustrator 15.0.0, SVG Export Plug-In . SVG Version: 6.00 Build 0)  -->
<!DOCTYPE svg PUBLIC "-//W3C//DTD SVG 1.1//EN" "http://www.w3.org/Graphics/SVG/1.1/DTD/svg11.dtd">
<svg version="1.1" id="Layer_1" xmlns="http://www.w3.org/2000/svg" xmlns:xlink="http://www.w3.org/1999/xlink" x="0px" y="0px"
	 width="32px" height="32px" viewBox="0 0 32 32" enable-background="new 0 0 32 32" xml:space="preserve">
<path fill="none" stroke="#000000" stroke-miterlimit="10" d="M-113,47.2"/>
<rect x="4.651" y="3.179" fill="#FFFFFF" width="20.148" height="25.222"/>
<polygon fill="#878687" stroke="#000000" stroke-miterlimit="10" points="4.618,5.074 4.876,4.212 5.307,3.696 5.651,3.179 
	5.91,2.748 6.513,2.317 7.115,2.059 7.891,1.973 25.548,1.801 26.151,2.059 26.927,2.403 27.27,2.834 28.046,3.351 28.648,3.868 
	29.424,4.901 29.769,5.504 29.94,6.108 30.199,7.916 26.84,8.175 26.754,27.899 26.237,28.588 25.892,29.104 25.375,29.88 
	24.687,30.053 24.6,30.569 24.084,31.001 5.307,30.912 4.618,30.569 4.101,30.139 3.756,29.794 3.067,29.277 2.809,28.848 
	2.12,28.244 1.947,27.813 1.431,27.123 1.431,26.693 1,25.832 1.172,24.626 20.38,24.54 20.465,25.832 20.811,26.35 21.241,26.866 
	21.586,27.296 22.017,27.469 22.447,27.642 23.308,27.642 23.911,27.037 23.911,5.849 24.17,5.332 24.514,4.901 24.514,4.557 
	8.838,4.557 8.149,4.815 7.891,5.418 7.632,6.021 7.46,6.366 7.46,7.227 7.374,22.473 4.531,22.387 "/>
<line fill="none" stroke="#000000" stroke-width="2" stroke-miterlimit="10" x1="10" y1="7.4" x2="20.4" y2="7.4"/>
<line fill="none" stroke="#000000" stroke-width="2" stroke-miterlimit="10" x1="10" y1="12" x2="20.4" y2="12"/>
<line fill="none" stroke="#000000" stroke-width="2" stroke-miterlimit="10" x1="10" y1="16.2" x2="20.4" y2="16.2"/>
<line fill="none" stroke="#000000" stroke-width="2" stroke-miterlimit="10" x1="10" y1="20.4" x2="20.4" y2="20.4"/>
</svg>
