<?xml version="1.0" encoding="utf-8"?>
<!-- Generator: Adobe Illustrator 15.0.0, SVG Export Plug-In . SVG Version: 6.00 Build 0)  -->
<!DOCTYPE svg PUBLIC "-//W3C//DTD SVG 1.1//EN" "http://www.w3.org/Graphics/SVG/1.1/DTD/svg11.dtd">
<svg version="1.1" id="Layer_1" xmlns="http://www.w3.org/2000/svg" xmlns:xlink="http://www.w3.org/1999/xlink" x="0px" y="0px"
	 width="64px" height="64px" viewBox="0 0 64 64" enable-background="new 0 0 64 64" xml:space="preserve">
<path fill="#233A74" d="M61.289,27.104L52.804,8.842l4.058-1.64c0.662-0.267,0.982-1.022,0.715-1.684
	c-0.271-0.664-1.026-0.985-1.687-0.714l-19.493,7.885c-0.809-1.833-2.655-3.154-4.748-3.154c-3.4,0-6.193,3.505-4.809,7.02
	L6.439,24.81c-0.663,0.266-0.983,1.02-0.714,1.683c0.267,0.66,1.021,0.982,1.686,0.712l2.176-0.877L2.008,42.634
	c-0.081,0.17-0.121,0.359-0.121,0.545c0,5.9,4.45,10.354,10.352,10.354s10.352-4.453,10.352-10.354c0-0.186-0.04-0.375-0.121-0.545
	l-8.417-18.116l14.38-5.817c0.562,0.458,1.213,0.802,1.922,0.995v37.717H25.18c-0.716,0-1.295,0.578-1.295,1.294S24.464,60,25.18,60
	h12.937c0.716,0,1.296-0.578,1.296-1.294s-0.58-1.294-1.296-1.294h-5.175V19.695c2.003-0.54,3.551-2.274,3.817-4.363l11.746-4.749
	L40.83,27.104c-0.083,0.174-0.125,0.358-0.125,0.546c0,5.902,4.452,10.354,10.354,10.354s10.353-4.451,10.353-10.354
	C61.411,27.462,61.37,27.278,61.289,27.104z M5.21,41.885l7.029-15.132l7.029,15.132H5.21z M44.031,26.359l7.027-15.134
	l7.027,15.134H44.031z"/>
</svg>
