<?xml version="1.0" encoding="utf-8"?>
<!-- Generator: Adobe Illustrator 15.0.0, SVG Export Plug-In . SVG Version: 6.00 Build 0)  -->
<!DOCTYPE svg PUBLIC "-//W3C//DTD SVG 1.1//EN" "http://www.w3.org/Graphics/SVG/1.1/DTD/svg11.dtd">
<svg version="1.1" id="Layer_1" xmlns="http://www.w3.org/2000/svg" xmlns:xlink="http://www.w3.org/1999/xlink" x="0px" y="0px"
	 width="35px" height="35px" viewBox="0 0 35 35" enable-background="new 0 0 35 35" xml:space="preserve">
<path fill="#3D5272" d="M32.037,17.542c0.009-0.758-0.067-1.502-0.183-2.226L35,12.896c-0.811-2.908-2.369-5.516-4.481-7.618
	L26.76,6.651c-1.188-0.951-2.541-1.711-4.007-2.257l-0.597-3.83c-1.449-0.373-2.967-0.595-4.538-0.607
	c-1.57-0.01-3.091,0.195-4.549,0.548l-0.645,3.821c-1.47,0.533-2.836,1.272-4.035,2.209L4.646,5.119
	C2.51,7.194,0.915,9.781,0.064,12.682l3.115,2.457c-0.125,0.725-0.207,1.468-0.215,2.228c-0.006,0.766,0.07,1.505,0.188,2.234
	L0,22.019c0.815,2.906,2.375,5.519,4.487,7.616l3.758-1.368c1.188,0.945,2.543,1.706,4.009,2.256l0.591,3.828
	c1.453,0.374,2.97,0.596,4.54,0.606c1.571,0.007,3.089-0.195,4.547-0.547l0.649-3.827c1.469-0.531,2.833-1.271,4.036-2.201
	l3.736,1.413c2.139-2.078,3.729-4.663,4.583-7.563l-3.114-2.453C31.949,19.05,32.031,18.311,32.037,17.542z M17.452,24.704
	c-4.143-0.024-7.485-3.292-7.46-7.293c0.028-4.003,3.412-7.228,7.562-7.201c4.147,0.025,7.491,3.292,7.463,7.295
	C24.989,21.51,21.605,24.731,17.452,24.704z"/>
</svg>
