<?xml version="1.0" encoding="utf-8"?>
<!-- Generator: Adobe Illustrator 15.0.0, SVG Export Plug-In . SVG Version: 6.00 Build 0)  -->
<!DOCTYPE svg PUBLIC "-//W3C//DTD SVG 1.1//EN" "http://www.w3.org/Graphics/SVG/1.1/DTD/svg11.dtd">
<svg version="1.1" id="Layer_1" xmlns="http://www.w3.org/2000/svg" xmlns:xlink="http://www.w3.org/1999/xlink" x="0px" y="0px"
	 width="64px" height="64px" viewBox="0 0 64 64" enable-background="new 0 0 64 64" xml:space="preserve">
<path fill="#233A74" d="M60.813,27.75H54.03c-0.473-1.875-1.075-3.958-1.846-5.538l4.827-4.825c0.464-0.464,0.464-1.216,0-1.68
	l-6.72-6.715c-0.464-0.466-1.216-0.466-1.679,0l-4.829,4.824c-1.577-0.769-3.66-1.373-5.534-1.845V5.188
	C38.25,4.531,37.717,4,37.063,4h-7.125c-0.654,0-1.188,0.531-1.188,1.188v6.783c-1.874,0.472-3.956,1.076-5.536,1.845l-4.829-4.824
	c-0.463-0.466-1.215-0.466-1.68,0l-6.718,6.714c-0.464,0.463-0.464,1.215,0,1.68l4.829,4.829c-0.766,1.573-1.374,3.658-1.849,5.536
	H6.188C5.534,27.75,5,28.281,5,28.938v7.125c0,0.656,0.534,1.188,1.188,1.188h6.779c0.475,1.878,1.083,3.961,1.849,5.538
	l-4.829,4.829c-0.464,0.461-0.464,1.214,0,1.678l6.718,6.717c0.449,0.445,1.236,0.445,1.68,0l4.827-4.827
	c1.578,0.766,3.66,1.37,5.538,1.848v6.78c0,0.656,0.534,1.188,1.188,1.188h7.125c0.654,0,1.188-0.531,1.188-1.188v-6.78
	c1.878-0.478,3.961-1.082,5.534-1.848l4.831,4.827c0.463,0.464,1.216,0.464,1.68,0l6.717-6.717c0.464-0.464,0.464-1.217,0-1.678
	l-4.827-4.829c0.766-1.577,1.373-3.66,1.846-5.538h6.782c0.654,0,1.188-0.531,1.188-1.188v-7.125
	C62,28.281,61.467,27.75,60.813,27.75z M33.5,42c-5.237,0-9.5-4.264-9.5-9.5c0-5.237,4.263-9.5,9.5-9.5c5.236,0,9.5,4.263,9.5,9.5
	C43,37.736,38.736,42,33.5,42z"/>
</svg>
