<?xml version="1.0" encoding="utf-8"?>
<!-- Generator: Adobe Illustrator 15.0.0, SVG Export Plug-In . SVG Version: 6.00 Build 0)  -->
<!DOCTYPE svg PUBLIC "-//W3C//DTD SVG 1.1//EN" "http://www.w3.org/Graphics/SVG/1.1/DTD/svg11.dtd">
<svg version="1.1" id="Layer_1" xmlns="http://www.w3.org/2000/svg" xmlns:xlink="http://www.w3.org/1999/xlink" x="0px" y="0px"
	 width="48px" height="48px" viewBox="0 0 48 48" enable-background="new 0 0 48 48" xml:space="preserve">
<path d="M19.886,31.145c0,1.216-0.985,2.201-2.202,2.201H3.925c-1.216,0-2.202-0.985-2.202-2.201V17.568
	c0-1.216,0.986-2.202,2.202-2.202h13.759c1.216,0,2.202,0.986,2.202,2.202V31.145z"/>
<path stroke="#000000" stroke-miterlimit="10" d="M-76.667-32.667"/>
<polygon stroke="#000000" stroke-miterlimit="10" points="14.353,15.539 25.374,5.772 26.281,5.166 26.802,5.166 26.802,5.166 
	28.227,5.541 28.702,5.859 28.702,42.335 28.529,43.027 27.838,43.546 26.628,43.718 25.937,43.546 14.008,33.173 "/>
<path fill="none" stroke="#000000" stroke-width="2" stroke-miterlimit="10" d="M33.4,14.225c11.242,12.76,0,22.851,0,22.851"/>
<path fill="none" stroke="#000000" stroke-width="2" stroke-miterlimit="10" d="M37.628,6.031c19.465,20.663,0,37.005,0,37.005"/>
</svg>
