<?xml version="1.0" encoding="utf-8"?>
<!-- Generator: Adobe Illustrator 15.0.0, SVG Export Plug-In . SVG Version: 6.00 Build 0)  -->
<!DOCTYPE svg PUBLIC "-//W3C//DTD SVG 1.1//EN" "http://www.w3.org/Graphics/SVG/1.1/DTD/svg11.dtd">
<svg version="1.1" id="Layer_1" xmlns="http://www.w3.org/2000/svg" xmlns:xlink="http://www.w3.org/1999/xlink" x="0px" y="0px"
	 width="48px" height="48px" viewBox="0 0 48 48" enable-background="new 0 0 48 48" xml:space="preserve">
<g>
	
		<image overflow="visible" opacity="0.75" width="166" height="153" xlink:href="BFDA837B.png"  transform="matrix(0.24 0 0 0.24 7.7393 13.5859)">
	</image>
	<g>
		<path fill="#3C5EAB" d="M41.481,16.439c-0.682-0.554-1.675-0.443-2.224,0.235L20.599,39.812l-6.661-6.661
			c-0.616-0.618-1.619-0.618-2.236,0c-0.617,0.62-0.617,1.621,0,2.235l7.905,7.905c0.297,0.297,0.7,0.464,1.118,0.464
			c0.461,0,0.921-0.206,1.23-0.589L41.72,18.661C42.267,17.981,42.161,16.985,41.481,16.439z"/>
		<path fill="none" stroke="#3B5DAB" stroke-width="3" stroke-miterlimit="10" d="M41.481,16.439
			c-0.682-0.554-1.675-0.443-2.224,0.235L20.599,39.812l-6.661-6.661c-0.616-0.618-1.619-0.618-2.236,0
			c-0.617,0.62-0.617,1.621,0,2.235l7.905,7.905c0.297,0.297,0.7,0.464,1.118,0.464c0.461,0,0.921-0.206,1.23-0.589L41.72,18.661
			C42.267,17.981,42.161,16.985,41.481,16.439z"/>
	</g>
</g>
<text transform="matrix(1 0 0 1 2 16.0859)" font-family="'MyriadPro-Bold'" font-size="21">ABC</text>
</svg>
