<?xml version="1.0" encoding="utf-8"?>
<!-- Generator: Adobe Illustrator 15.0.0, SVG Export Plug-In . SVG Version: 6.00 Build 0)  -->
<!DOCTYPE svg PUBLIC "-//W3C//DTD SVG 1.1//EN" "http://www.w3.org/Graphics/SVG/1.1/DTD/svg11.dtd">
<svg version="1.1" id="Layer_1" xmlns="http://www.w3.org/2000/svg" xmlns:xlink="http://www.w3.org/1999/xlink" x="0px" y="0px"
	 width="48px" height="48px" viewBox="0 0 48 48" enable-background="new 0 0 48 48" xml:space="preserve">
<polygon fill="#FFFFFF" points="-307,133.5 -307.534,134.308 -308.067,135.116 -308.5,134.25 -308.933,133.384 -307.966,133.442 "/>
<rect x="-315.4" y="-113.4" fill="#999999" width="0.8" height="0.4"/>
<g>
	
		<image overflow="visible" opacity="0.77" width="169" height="215" xlink:href="AFFA6B41.png"  transform="matrix(0.24 0 0 0.24 3 -1.0557)">
	</image>
	<g>
		<linearGradient id="SVGID_1_" gradientUnits="userSpaceOnUse" x1="6.5" y1="23.7222" x2="39.916" y2="23.7222">
			<stop  offset="0.0242" style="stop-color:#F1F2F2"/>
			<stop  offset="0.0433" style="stop-color:#F3F1E5"/>
			<stop  offset="0.1541" style="stop-color:#FAF0AA"/>
			<stop  offset="0.252" style="stop-color:#FFF077"/>
			<stop  offset="0.3334" style="stop-color:#FFF042"/>
			<stop  offset="0.3952" style="stop-color:#FFF100"/>
			<stop  offset="0.4303" style="stop-color:#FFF200"/>
			<stop  offset="0.5135" style="stop-color:#FFDF0F"/>
			<stop  offset="0.6367" style="stop-color:#FFCB2E"/>
			<stop  offset="0.7598" style="stop-color:#FDBC39"/>
			<stop  offset="0.8814" style="stop-color:#FCB33E"/>
			<stop  offset="1" style="stop-color:#FBB040"/>
		</linearGradient>
		<path fill="url(#SVGID_1_)" d="M38.988,25.578c0.513,0,0.928-0.414,0.928-0.929v-5.568c0-0.513-0.415-0.929-0.928-0.929h-4.642
			v-5.568c0-6.143-4.995-11.14-11.139-11.14c-6.142,0-11.138,4.997-11.138,11.14v5.568H7.428c-0.512,0-0.928,0.416-0.928,0.929
			v25.991C6.5,45.585,6.916,46,7.428,46h31.561c0.513,0,0.928-0.415,0.928-0.928v-5.569c0-0.514-0.415-0.93-0.928-0.93h-8.354
			v-1.856h8.354c0.513,0,0.928-0.414,0.928-0.927c0-0.514-0.415-0.929-0.928-0.929h-8.354v-1.856h8.354
			c0.513,0,0.928-0.416,0.928-0.929c0-0.514-0.415-0.928-0.928-0.928h-8.354v-1.857h8.354c0.513,0,0.928-0.414,0.928-0.928
			c0-0.513-0.415-0.929-0.928-0.929h-8.354v-1.856H38.988z M13.926,12.584c0-5.119,4.164-9.283,9.282-9.283s9.282,4.165,9.282,9.283
			v5.568H13.926V12.584z"/>
		<path fill="none" stroke="#010101" stroke-miterlimit="10" d="M38.988,25.578c0.513,0,0.928-0.414,0.928-0.929v-5.568
			c0-0.513-0.415-0.929-0.928-0.929h-4.642v-5.568c0-6.143-4.995-11.14-11.139-11.14c-6.142,0-11.138,4.997-11.138,11.14v5.568
			H7.428c-0.512,0-0.928,0.416-0.928,0.929v25.991C6.5,45.585,6.916,46,7.428,46h31.561c0.513,0,0.928-0.415,0.928-0.928v-5.569
			c0-0.514-0.415-0.93-0.928-0.93h-8.354v-1.856h8.354c0.513,0,0.928-0.414,0.928-0.927c0-0.514-0.415-0.929-0.928-0.929h-8.354
			v-1.856h8.354c0.513,0,0.928-0.416,0.928-0.929c0-0.514-0.415-0.928-0.928-0.928h-8.354v-1.857h8.354
			c0.513,0,0.928-0.414,0.928-0.928c0-0.513-0.415-0.929-0.928-0.929h-8.354v-1.856H38.988z M13.926,12.584
			c0-5.119,4.164-9.283,9.282-9.283s9.282,4.165,9.282,9.283v5.568H13.926V12.584z"/>
	</g>
</g>
</svg>
