<?xml version="1.0" encoding="utf-8"?>
<!-- Generator: Adobe Illustrator 15.0.0, SVG Export Plug-In . SVG Version: 6.00 Build 0)  -->
<!DOCTYPE svg PUBLIC "-//W3C//DTD SVG 1.1//EN" "http://www.w3.org/Graphics/SVG/1.1/DTD/svg11.dtd">
<svg version="1.1" id="Layer_1" xmlns="http://www.w3.org/2000/svg" xmlns:xlink="http://www.w3.org/1999/xlink" x="0px" y="0px"
	 width="64px" height="64px" viewBox="0 0 64 64" enable-background="new 0 0 64 64" xml:space="preserve">
<g>
	<path fill="#233A74" d="M18.604,20.042c0.633,0,1.146-0.512,1.146-1.146v-3.438c0-5.054,4.111-9.167,9.167-9.167
		s9.166,4.113,9.166,9.167v3.438c0,0.633,0.513,1.146,1.146,1.146c0.633,0,1.146-0.512,1.146-1.146v-3.438
		C40.375,9.141,35.234,4,28.917,4c-6.318,0-11.459,5.141-11.459,11.458v3.438C17.458,19.529,17.971,20.042,18.604,20.042z"/>
	<path fill="#233A74" d="M28.917,41.813c0-0.634,0.512-1.146,1.146-1.146h21.771V23.479c0-0.633-0.512-1.146-1.146-1.146H7.146
		C6.513,22.333,6,22.846,6,23.479v34.375C6,58.487,6.513,59,7.146,59h21.771V41.813z"/>
	<g>
		<rect x="35.792" y="56.708" fill="#233A74" width="2.291" height="2.292"/>
	</g>
	<g>
		<rect x="40.375" y="56.708" fill="#233A74" width="2.292" height="2.292"/>
	</g>
	<g>
		<rect x="49.542" y="56.708" fill="#233A74" width="2.291" height="2.292"/>
	</g>
	<g>
		<rect x="54.125" y="56.708" fill="#233A74" width="2.292" height="2.292"/>
	</g>
	<g>
		<rect x="35.792" y="42.958" fill="#233A74" width="2.291" height="11.459"/>
	</g>
	<g>
		<rect x="31.208" y="42.958" fill="#233A74" width="2.292" height="16.042"/>
	</g>
	<g>
		<rect x="40.375" y="42.958" fill="#233A74" width="2.292" height="11.459"/>
	</g>
	<g>
		<rect x="44.958" y="42.958" fill="#233A74" width="2.292" height="16.042"/>
	</g>
	<g>
		<rect x="49.542" y="42.958" fill="#233A74" width="2.291" height="11.459"/>
	</g>
	<g>
		<rect x="54.125" y="42.958" fill="#233A74" width="2.292" height="11.459"/>
	</g>
	<g>
		<rect x="58.708" y="42.958" fill="#233A74" width="2.292" height="16.042"/>
	</g>
</g>
</svg>
