<?xml version="1.0" encoding="utf-8"?>
<!-- Generator: Adobe Illustrator 15.0.0, SVG Export Plug-In . SVG Version: 6.00 Build 0)  -->
<!DOCTYPE svg PUBLIC "-//W3C//DTD SVG 1.1//EN" "http://www.w3.org/Graphics/SVG/1.1/DTD/svg11.dtd">
<svg version="1.1" id="Layer_1" xmlns="http://www.w3.org/2000/svg" xmlns:xlink="http://www.w3.org/1999/xlink" x="0px" y="0px"
	 width="64px" height="64px" viewBox="0 0 64 64" enable-background="new 0 0 64 64" xml:space="preserve">
<g>
	<path fill="#233A74" d="M2.895,47.843C2.895,51.239,5.655,54,9.051,54h46.792C59.236,54,62,51.239,62,47.843V21.985H2.895V47.843z
		 M49.687,26.91h4.925v4.926h-4.925V26.91z M49.687,34.299h4.925v4.925h-4.925V34.299z M49.687,41.687h4.925v4.926h-4.925V41.687z
		 M39.835,26.91h4.926v4.926h-4.926V26.91z M39.835,34.299h4.926v4.925h-4.926V34.299z M39.835,41.687h4.926v4.926h-4.926V41.687z
		 M29.985,26.91h4.925v4.926h-4.925V26.91z M29.985,34.299h4.925v4.925h-4.925V34.299z M29.985,41.687h4.925v4.926h-4.925V41.687z
		 M20.133,26.91h4.925v4.926h-4.925V26.91z M20.133,34.299h4.925v4.925h-4.925V34.299z M20.133,41.687h4.925v4.926h-4.925V41.687z
		 M10.282,26.91h4.926v4.926h-4.926V26.91z M10.282,34.299h4.926v4.925h-4.926V34.299z M10.282,41.687h4.926v4.926h-4.926V41.687z"
		/>
	<path fill="#233A74" d="M55.843,7.208H9.051c-3.396,0-6.157,2.761-6.157,6.157v6.157H62v-6.157C62,9.969,59.236,7.208,55.843,7.208
		z M12.746,17.059c-1.359,0-2.463-1.104-2.463-2.462s1.104-2.463,2.463-2.463c1.356,0,2.463,1.104,2.463,2.463
		S14.102,17.059,12.746,17.059z M20.133,17.059c-1.359,0-2.462-1.104-2.462-2.462s1.104-2.463,2.462-2.463
		c1.357,0,2.463,1.104,2.463,2.463S21.49,17.059,20.133,17.059z M27.522,17.059c-1.359,0-2.463-1.104-2.463-2.462
		s1.104-2.463,2.463-2.463c1.356,0,2.463,1.104,2.463,2.463S28.878,17.059,27.522,17.059z"/>
</g>
</svg>
