<?xml version="1.0" encoding="utf-8"?>
<!-- Generator: Adobe Illustrator 15.0.0, SVG Export Plug-In . SVG Version: 6.00 Build 0)  -->
<!DOCTYPE svg PUBLIC "-//W3C//DTD SVG 1.1//EN" "http://www.w3.org/Graphics/SVG/1.1/DTD/svg11.dtd">
<svg version="1.1" id="Layer_1" xmlns="http://www.w3.org/2000/svg" xmlns:xlink="http://www.w3.org/1999/xlink" x="0px" y="0px"
	 width="64px" height="64px" viewBox="0 0 64 64" enable-background="new 0 0 64 64" xml:space="preserve">
<g>
	<path fill="#233A74" d="M15.702,20.836l10.631,4.399l11.9-5.176l-12.601-5.2c-0.298-0.121-0.634-0.121-0.932,0.002l-8.998,3.728
		c-0.454,0.188-0.75,0.63-0.75,1.122S15.248,20.649,15.702,20.836z"/>
	<path fill="#233A74" d="M59.805,20.083c-1.253-3.02-4.853-4.58-7.97-3.285l-32.756,14.25l-6.795-3.4
		c-0.315-0.158-0.691-0.169-1.023-0.029l-8.521,3.652c-0.373,0.159-0.639,0.492-0.717,0.888c-0.076,0.396,0.049,0.806,0.335,1.091
		l10.956,10.955c0.347,0.346,0.863,0.45,1.312,0.271l15.703-6.281l-6.335,16.898c-0.176,0.468-0.049,0.996,0.324,1.332
		c0.229,0.205,0.519,0.311,0.814,0.311c0.185,0,0.374-0.04,0.544-0.129l9.739-4.869c0.235-0.119,0.428-0.309,0.544-0.544
		l9.525-19.047l11.027-4.112C59.61,26.755,61.099,23.199,59.805,20.083z"/>
</g>
</svg>
