<?xml version="1.0" encoding="utf-8"?>
<!-- Generator: Adobe Illustrator 15.0.0, SVG Export Plug-In . SVG Version: 6.00 Build 0)  -->
<!DOCTYPE svg PUBLIC "-//W3C//DTD SVG 1.1//EN" "http://www.w3.org/Graphics/SVG/1.1/DTD/svg11.dtd">
<svg version="1.1" id="Layer_1" xmlns="http://www.w3.org/2000/svg" xmlns:xlink="http://www.w3.org/1999/xlink" x="0px" y="0px"
	 width="64px" height="64px" viewBox="0 0 64 64" enable-background="new 0 0 64 64" xml:space="preserve">
<g>
	<path fill="#233A74" d="M57.662,14.346L3.347,15.689l0.757,30.496l54.312-1.339L57.662,14.346z M10.386,26.423l-0.068-2.843
		l41.129-1.015l0.071,2.844L10.386,26.423z M47.917,40.985c-0.557,0.597-1.401,0.539-2.003,0.051
		c-1.118-0.916-1.837-2.514-2.63-3.674c-0.329,1.175-0.565,2.901-1.342,3.934c-0.478,0.625-1.481,0.528-2.002,0.049
		c-1.357-1.236-2.536-2.848-3.608-4.311c-0.529,1.132-1.871,3.55-2.202,4.775c-0.481,1.755-3.233,1.08-2.752-0.69
		c0.591-2.184,2.264-5.347,3.59-7.199c0.591-0.834,1.844-1.053,2.443-0.063c0.922,1.508,1.958,2.861,3.149,4.123
		c0.413-1.28,0.494-2.719,1.401-3.887c0.613-0.786,1.685-0.744,2.185-0.083c0.896,1.163,1.656,2.745,2.594,3.849
		c0.839-1.391,1.164-2.194,2.622-4.104c1.095-1.444,3.188,0.058,2.052,1.949C50.306,37.555,49.415,39.408,47.917,40.985z"/>
	<path fill="#233A74" d="M48.067,50.381l12.785-0.346c0.319-0.008,0.62,0.073,0.884,0.218l-0.027-0.958
		c-0.013-0.613-0.528-1.098-1.137-1.084l-16.211,0.44c-0.367,0.011-0.672,0.205-0.867,0.487l-12.603,0.343
		c-0.244,0.006-0.454,0.134-0.574,0.325l-4.903,2.577l5.029,2.312c0.142,0.18,0.356,0.306,0.601,0.297l12.599-0.34
		c0.206,0.271,0.53,0.454,0.893,0.439l1.888-0.05l-0.074-2.834C46.319,51.223,47.092,50.406,48.067,50.381z"/>
	<path fill="#233A74" d="M61.853,54.732l-0.078-2.945c-0.01-0.482-0.415-0.867-0.9-0.852l-12.779,0.35
		c-0.487,0.005-0.87,0.407-0.854,0.895l0.077,2.951c0.015,0.482,0.417,0.867,0.902,0.849l12.78-0.342
		C61.485,55.622,61.866,55.221,61.853,54.732z"/>
</g>
</svg>
