<?xml version="1.0" encoding="utf-8"?>
<!-- Generator: Adobe Illustrator 15.0.0, SVG Export Plug-In . SVG Version: 6.00 Build 0)  -->
<!DOCTYPE svg PUBLIC "-//W3C//DTD SVG 1.1//EN" "http://www.w3.org/Graphics/SVG/1.1/DTD/svg11.dtd">
<svg version="1.1" id="Layer_1" xmlns="http://www.w3.org/2000/svg" xmlns:xlink="http://www.w3.org/1999/xlink" x="0px" y="0px"
	 width="48px" height="48px" viewBox="0 0 48 48" enable-background="new 0 0 48 48" xml:space="preserve">
<rect x="12.406" y="11.308" fill="#D8B628" width="32.016" height="32.153"/>
<g>
	
		<linearGradient id="SVGID_1_" gradientUnits="userSpaceOnUse" x1="1.625" y1="27.6484" x2="46.374" y2="27.6484" gradientTransform="matrix(-1 0 0 1 48 0)">
		<stop  offset="0" style="stop-color:#FFFFFF"/>
		<stop  offset="0.0915" style="stop-color:#FFF9D5"/>
		<stop  offset="0.216" style="stop-color:#FFF2A3"/>
		<stop  offset="0.3434" style="stop-color:#FFEC78"/>
		<stop  offset="0.4714" style="stop-color:#FFE755"/>
		<stop  offset="0.6003" style="stop-color:#FFE33A"/>
		<stop  offset="0.7305" style="stop-color:#FFE026"/>
		<stop  offset="0.8626" style="stop-color:#FFDF1B"/>
		<stop  offset="1" style="stop-color:#FFDE17"/>
	</linearGradient>
	<path fill="url(#SVGID_1_)" stroke="#7E5321" stroke-miterlimit="10" d="M1.686,20.729l4.971,22.375
		c0.252,1.137,1.262,1.947,2.426,1.947h4.973h24.861h4.973c1.373,0,2.486-1.113,2.486-2.486V12.731c0-1.373-1.113-2.486-2.486-2.486
		H14.055c-1.373,0-2.486,1.113-2.486,2.486v2.486H9.083c-1.373,0-2.484,1.113-2.484,2.486H4.112c-0.754,0-1.469,0.343-1.939,0.931
		C1.7,19.222,1.52,19.993,1.686,20.729z M43.889,12.731v29.833H41.4c0-0.18-5.029-22.914-5.029-22.914
		c-0.254-1.138-1.262-1.947-2.428-1.947H19.028c0-1.373-1.113-2.486-2.486-2.486h-2.486v-2.486H43.889L43.889,12.731z"/>
</g>
<g>
	<line fill="none" stroke="#000000" stroke-width="3" stroke-miterlimit="10" x1="35.182" y1="41.469" x2="13.371" y2="41.469"/>
	<line fill="none" stroke="#000000" stroke-width="3" stroke-miterlimit="10" x1="14.255" y1="42.648" x2="14.255" y2="29.385"/>
	<polygon stroke="#000000" stroke-width="3" stroke-miterlimit="10" points="14.222,19.187 17.166,24.286 20.11,29.385 
		14.222,29.385 8.333,29.385 11.278,24.286 	"/>
</g>
</svg>
