<?xml version="1.0" encoding="utf-8"?>
<!-- Generator: Adobe Illustrator 15.0.0, SVG Export Plug-In . SVG Version: 6.00 Build 0)  -->
<!DOCTYPE svg PUBLIC "-//W3C//DTD SVG 1.1//EN" "http://www.w3.org/Graphics/SVG/1.1/DTD/svg11.dtd">
<svg version="1.1" id="Layer_1" xmlns="http://www.w3.org/2000/svg" xmlns:xlink="http://www.w3.org/1999/xlink" x="0px" y="0px"
	 width="48px" height="48px" viewBox="0 0 48 48" enable-background="new 0 0 48 48" xml:space="preserve">
<g>
	<rect x="11.933" y="12.855" fill="#D8B628" width="32.016" height="32.153"/>
	<g>
		
			<linearGradient id="SVGID_1_" gradientUnits="userSpaceOnUse" x1="1.626" y1="28.9316" x2="46.375" y2="28.9316" gradientTransform="matrix(-1 0 0 1 48 0)">
			<stop  offset="0" style="stop-color:#FFFFFF"/>
			<stop  offset="0.0915" style="stop-color:#FFF9D5"/>
			<stop  offset="0.216" style="stop-color:#FFF2A3"/>
			<stop  offset="0.3434" style="stop-color:#FFEC78"/>
			<stop  offset="0.4714" style="stop-color:#FFE755"/>
			<stop  offset="0.6003" style="stop-color:#FFE33A"/>
			<stop  offset="0.7305" style="stop-color:#FFE026"/>
			<stop  offset="0.8626" style="stop-color:#FFDF1B"/>
			<stop  offset="1" style="stop-color:#FFDE17"/>
		</linearGradient>
		<path fill="url(#SVGID_1_)" stroke="#7E5321" stroke-miterlimit="10" d="M1.686,22.012l4.971,22.375
			c0.252,1.138,1.262,1.947,2.426,1.947h4.973h24.861h4.972c1.374,0,2.486-1.113,2.486-2.486V14.015
			c0-1.373-1.112-2.486-2.486-2.486H14.055c-1.373,0-2.486,1.113-2.486,2.486v2.486H9.082c-1.373,0-2.484,1.113-2.484,2.486H4.111
			c-0.754,0-1.469,0.343-1.939,0.931C1.699,20.505,1.52,21.276,1.686,22.012z M43.888,14.015v29.833H41.4
			c0-0.179-5.03-22.914-5.03-22.914c-0.253-1.138-1.261-1.947-2.427-1.947H19.027c0-1.373-1.113-2.486-2.486-2.486h-2.486v-2.486
			H43.888L43.888,14.015z"/>
	</g>
</g>
<g>
	<g opacity="0.77">
		<path stroke="#000000" stroke-width="2" stroke-miterlimit="10" d="M7.786,22.369c3.525,3.788,8.509,5.887,13.679,5.766
			c9.503-0.227,17.125-7.786,17.618-17.125l1.957,2.771c0.604,0.857,1.795,1.067,2.655,0.456c0.858-0.606,1.062-1.793,0.455-2.655
			l-5.732-8.056c-0.763-0.727-1.966-0.698-2.694,0.064l-6.041,7.58c-0.653,0.823-0.518,2.02,0.307,2.675
			c0.823,0.657,2.017,0.52,2.675-0.305l2.633-3.312c-0.093,7.637-6.226,13.914-13.924,14.096c-4.082,0.097-8.015-1.561-10.797-4.552
			C9.858,19,8.653,18.962,7.884,19.679C7.112,20.393,7.07,21.597,7.786,22.369z"/>
	</g>
	<g>
		<g>
			<path fill="#4278BC" stroke="#4278BC" stroke-width="2" stroke-miterlimit="10" d="M6.786,21.369
				c3.525,3.788,8.509,5.887,13.679,5.766c9.503-0.227,17.125-7.786,17.618-17.125l1.957,2.771c0.604,0.857,1.795,1.067,2.655,0.456
				c0.858-0.606,1.062-1.793,0.455-2.655l-5.732-8.056c-0.763-0.727-1.966-0.698-2.694,0.064l-6.041,7.58
				c-0.653,0.823-0.518,2.02,0.307,2.675c0.823,0.657,2.017,0.52,2.675-0.305l2.633-3.312c-0.093,7.637-6.226,13.914-13.924,14.096
				c-4.082,0.097-8.015-1.561-10.797-4.552C8.858,18,7.653,17.962,6.884,18.679C6.112,19.393,6.07,20.597,6.786,21.369z"/>
		</g>
	</g>
</g>
</svg>
