<?xml version="1.0" encoding="utf-8"?>
<!-- Generator: Adobe Illustrator 15.0.0, SVG Export Plug-In . SVG Version: 6.00 Build 0)  -->
<!DOCTYPE svg PUBLIC "-//W3C//DTD SVG 1.1//EN" "http://www.w3.org/Graphics/SVG/1.1/DTD/svg11.dtd">
<svg version="1.1" id="Layer_1" xmlns="http://www.w3.org/2000/svg" xmlns:xlink="http://www.w3.org/1999/xlink" x="0px" y="0px"
	 width="48px" height="48px" viewBox="0 0 48 48" enable-background="new 0 0 48 48" xml:space="preserve">
<g>
	<g opacity="0.77">
		<path stroke="#000000" stroke-miterlimit="10" d="M20.335,16.591c0.208,3.38,1.917,4.972,2.845,5.592v3.563
			c-0.809,0.301-1.638,0.598-2.458,0.891c-4.923,1.764-9.174,3.285-9.958,5.654c-0.942,2.843-0.954,9.13-0.954,9.396
			c0,0.529,0.427,0.955,0.956,0.955h34.381c0.525,0,0.954-0.426,0.954-0.955c0-0.266-0.011-6.553-0.952-9.398
			c-0.79-2.368-4.734-3.781-9.733-5.571c-0.875-0.311-1.775-0.635-2.685-0.972v-3.562c0.928-0.62,2.638-2.212,2.845-5.592
			c0.698-0.439,1.139-1.387,1.139-2.599c0-1.065-0.339-1.927-0.897-2.418c0.467-1.214,1.229-3.34,0.703-5.452
			c-0.632-2.55-4.237-3.455-7.134-3.455c-2.563,0-5.683,0.711-6.804,2.644c-1.337-0.076-2.08,0.498-2.439,0.976
			c-0.991,1.318-0.529,3.386,0.004,5.243c-0.627,0.476-1.014,1.378-1.014,2.496C19.132,15.253,19.598,16.159,20.335,16.591z"/>
	</g>
	<g>
		<g>
			<path fill="#F8D6A7" stroke="#010101" stroke-miterlimit="10" d="M19.335,14.591c0.208,3.38,1.917,4.972,2.845,5.592v3.563
				c-0.809,0.3-1.638,0.598-2.458,0.891c-4.923,1.764-9.174,3.285-9.958,5.654c-0.942,2.843-0.954,9.13-0.954,9.396
				c0,0.529,0.427,0.955,0.956,0.955h34.381c0.525,0,0.954-0.426,0.954-0.955c0-0.266-0.011-6.553-0.952-9.398
				c-0.79-2.368-4.734-3.781-9.733-5.571c-0.875-0.311-1.775-0.634-2.685-0.972v-3.562c0.928-0.62,2.638-2.212,2.845-5.592
				c0.698-0.439,1.139-1.387,1.139-2.599c0-1.065-0.339-1.927-0.897-2.418c0.467-1.214,1.229-3.34,0.703-5.452
				c-0.632-2.55-4.237-3.455-7.134-3.455c-2.563,0-5.683,0.711-6.804,2.644c-1.337-0.076-2.08,0.498-2.439,0.976
				c-0.991,1.318-0.529,3.386,0.004,5.243c-0.627,0.476-1.014,1.378-1.014,2.496C18.132,13.253,18.598,14.159,19.335,14.591z"/>
		</g>
	</g>
</g>
<g>
	<g opacity="0.77">
		<path stroke="#000000" stroke-miterlimit="10" d="M15.069,21.857c0.208,3.379,1.916,4.973,2.845,5.591v3.563
			c-0.808,0.301-1.637,0.598-2.458,0.892c-4.923,1.764-9.175,3.284-9.958,5.653c-0.943,2.844-0.954,9.13-0.954,9.396
			c0,0.528,0.427,0.954,0.955,0.954H39.88c0.526,0,0.954-0.426,0.954-0.954c0-0.267-0.012-6.553-0.952-9.398
			c-0.79-2.368-4.735-3.781-9.732-5.572c-0.874-0.31-1.775-0.633-2.686-0.972v-3.562c0.927-0.618,2.637-2.212,2.844-5.591
			c0.699-0.44,1.14-1.388,1.14-2.599c0-1.066-0.339-1.928-0.898-2.418c0.468-1.214,1.23-3.339,0.704-5.451
			c-0.631-2.55-4.236-3.456-7.132-3.456c-2.563,0-5.686,0.711-6.806,2.643c-1.337-0.075-2.079,0.499-2.439,0.977
			c-0.991,1.317-0.53,3.386,0.004,5.242c-0.628,0.476-1.015,1.378-1.015,2.496C13.865,20.519,14.332,21.424,15.069,21.857z"/>
	</g>
	<g>
		<g>
			<path fill="#885E25" stroke="#010101" stroke-miterlimit="10" d="M14.069,19.857c0.208,3.38,1.916,4.973,2.845,5.591v3.563
				c-0.808,0.301-1.637,0.598-2.458,0.892c-4.923,1.764-9.175,3.284-9.958,5.653c-0.943,2.844-0.954,9.13-0.954,9.396
				c0,0.528,0.427,0.954,0.955,0.954H38.88c0.526,0,0.954-0.426,0.954-0.954c0-0.267-0.012-6.553-0.952-9.398
				c-0.79-2.368-4.735-3.781-9.732-5.572c-0.874-0.31-1.775-0.633-2.686-0.972v-3.562c0.927-0.619,2.637-2.211,2.844-5.591
				c0.699-0.44,1.14-1.388,1.14-2.599c0-1.066-0.339-1.928-0.898-2.418c0.468-1.214,1.23-3.339,0.704-5.451
				c-0.631-2.55-4.236-3.456-7.132-3.456c-2.563,0-5.686,0.711-6.806,2.643c-1.337-0.075-2.079,0.499-2.439,0.977
				c-0.991,1.317-0.53,3.386,0.004,5.242c-0.628,0.476-1.015,1.378-1.015,2.496C12.865,18.519,13.332,19.424,14.069,19.857z"/>
		</g>
	</g>
</g>
<path fill="none" stroke="#000000" stroke-width="2" stroke-miterlimit="10" d="M17.762,8.505"/>
<path fill="none" stroke="#000000" stroke-width="2" stroke-miterlimit="10" d="M32.092,22.938"/>
</svg>
