<?xml version="1.0" encoding="utf-8"?>
<!-- Generator: Adobe Illustrator 15.0.0, SVG Export Plug-In . SVG Version: 6.00 Build 0)  -->
<!DOCTYPE svg PUBLIC "-//W3C//DTD SVG 1.1//EN" "http://www.w3.org/Graphics/SVG/1.1/DTD/svg11.dtd">
<svg version="1.1" id="Layer_1" xmlns="http://www.w3.org/2000/svg" xmlns:xlink="http://www.w3.org/1999/xlink" x="0px" y="0px"
	 width="48px" height="48px" viewBox="0 0 48 48" enable-background="new 0 0 48 48" xml:space="preserve">
<g>
	<g opacity="0.77">
		<path stroke="#000000" stroke-miterlimit="10" d="M23.537,16.221c0.197,3.21,1.82,4.721,2.701,5.31v3.383
			c-0.768,0.285-1.555,0.567-2.334,0.846c-4.675,1.675-8.711,3.119-9.455,5.368c-0.895,2.699-0.905,8.668-0.905,8.921
			c0,0.502,0.405,0.906,0.907,0.906h32.643c0.5,0,0.906-0.404,0.906-0.906c0-0.253-0.011-6.222-0.904-8.924
			c-0.75-2.248-4.495-3.59-9.24-5.289c-0.831-0.295-1.687-0.603-2.55-0.923V21.53c0.881-0.589,2.504-2.1,2.701-5.31
			c0.663-0.417,1.081-1.317,1.081-2.468c0-1.012-0.322-1.83-0.853-2.296c0.443-1.152,1.167-3.171,0.668-5.176
			C38.304,3.86,34.88,3,32.131,3c-2.434,0-5.396,0.675-6.461,2.51c-1.27-0.072-1.975,0.473-2.316,0.927
			c-0.94,1.251-0.502,3.215,0.004,4.978c-0.596,0.452-0.963,1.308-0.963,2.37C22.395,14.95,22.837,15.811,23.537,16.221z"/>
	</g>
	<g>
		<g>
			<path fill="#F8D6A7" stroke="#010101" stroke-miterlimit="10" d="M22.537,14.221c0.197,3.209,1.82,4.721,2.701,5.31v3.383
				c-0.768,0.285-1.555,0.567-2.334,0.846c-4.675,1.675-8.711,3.119-9.455,5.368c-0.895,2.699-0.905,8.668-0.905,8.921
				c0,0.502,0.405,0.906,0.907,0.906h32.643c0.5,0,0.906-0.404,0.906-0.906c0-0.253-0.011-6.222-0.904-8.924
				c-0.75-2.248-4.495-3.59-9.24-5.289c-0.831-0.295-1.687-0.603-2.55-0.923V19.53c0.881-0.589,2.504-2.1,2.701-5.31
				c0.663-0.417,1.081-1.317,1.081-2.468c0-1.012-0.322-1.83-0.853-2.296c0.443-1.152,1.167-3.171,0.668-5.176
				C37.304,1.86,33.88,1,31.131,1c-2.434,0-5.396,0.675-6.461,2.51c-1.27-0.072-1.975,0.473-2.316,0.927
				c-0.94,1.251-0.502,3.215,0.004,4.978c-0.596,0.452-0.963,1.308-0.963,2.37C21.395,12.95,21.837,13.811,22.537,14.221z"/>
		</g>
	</g>
</g>
<g>
	<g opacity="0.77">
		<path stroke="#000000" stroke-miterlimit="10" d="M18.538,21.22c0.197,3.209,1.819,4.721,2.7,5.309v3.383
			c-0.768,0.285-1.554,0.567-2.333,0.847c-4.674,1.674-8.711,3.118-9.455,5.367c-0.895,2.699-0.905,8.668-0.905,8.921
			c0,0.502,0.406,0.906,0.907,0.906h32.643c0.5,0,0.906-0.404,0.906-0.906c0-0.253-0.011-6.222-0.904-8.923
			c-0.75-2.248-4.496-3.591-9.24-5.29c-0.83-0.295-1.686-0.602-2.55-0.923v-3.382c0.88-0.588,2.504-2.1,2.7-5.309
			c0.663-0.417,1.081-1.317,1.081-2.468c0-1.012-0.321-1.83-0.853-2.296c0.444-1.153,1.168-3.171,0.669-5.176
			C33.304,8.859,29.881,8,27.132,8c-2.434,0-5.398,0.675-6.463,2.509c-1.269-0.072-1.973,0.473-2.315,0.927
			c-0.941,1.251-0.503,3.215,0.003,4.978c-0.596,0.452-0.963,1.309-0.963,2.37C17.394,19.95,17.837,20.81,18.538,21.22z"/>
	</g>
	<g>
		<g>
			<path fill="#885E25" stroke="#010101" stroke-miterlimit="10" d="M17.538,19.22c0.197,3.209,1.819,4.721,2.701,5.31v3.382
				c-0.768,0.285-1.554,0.567-2.334,0.847c-4.674,1.674-8.711,3.118-9.455,5.367c-0.895,2.699-0.905,8.668-0.905,8.921
				c0,0.502,0.406,0.906,0.907,0.906h32.643c0.5,0,0.906-0.404,0.906-0.906c0-0.253-0.011-6.222-0.904-8.923
				c-0.75-2.248-4.496-3.591-9.24-5.29c-0.83-0.295-1.686-0.602-2.55-0.923V24.53c0.88-0.589,2.504-2.1,2.7-5.31
				c0.663-0.417,1.081-1.317,1.081-2.468c0-1.012-0.321-1.83-0.853-2.296c0.444-1.153,1.168-3.171,0.669-5.176
				C32.304,6.859,28.881,6,26.132,6c-2.434,0-5.398,0.675-6.462,2.509c-1.27-0.072-1.974,0.473-2.316,0.927
				c-0.941,1.251-0.503,3.215,0.003,4.978c-0.596,0.452-0.963,1.309-0.963,2.37C16.394,17.95,16.837,18.81,17.538,19.22z"/>
		</g>
	</g>
</g>
<path fill="none" stroke="#000000" stroke-width="2" stroke-miterlimit="10" d="M21.762,6.505"/>
<path fill="none" stroke="#000000" stroke-width="2" stroke-miterlimit="10" d="M34.648,22.146"/>
<path fill="none" stroke="#000000" stroke-width="2" stroke-miterlimit="10" d="M27-26.826"/>
<g>
	<g opacity="0.77">
		<path d="M27.745,47.318v-3.22c0-0.141-0.058-0.277-0.157-0.377L17.354,33.489c1.35-2.969,0.814-6.589-1.622-9.026
			c-3.138-3.138-8.242-3.138-11.38,0c-3.136,3.135-3.136,8.241,0,11.38c2.438,2.437,6.058,2.972,9.025,1.623l3.103,3.101v1.388
			c0,0.297,0.24,0.536,0.537,0.536h1.387l0.222,0.222v1.387c0,0.297,0.24,0.538,0.536,0.538h1.388l0.222,0.221v1.389
			c0,0.297,0.24,0.536,0.536,0.536h1.388l0.915,0.915c0.1,0.101,0.238,0.157,0.379,0.157h3.22
			C27.505,47.854,27.745,47.614,27.745,47.318z M6.379,26.49c0.838-0.838,2.196-0.838,3.035,0c0.837,0.838,0.837,2.198,0.001,3.035
			c-0.839,0.836-2.198,0.836-3.036,0C5.542,28.688,5.542,27.328,6.379,26.49z"/>
		<path fill="none" stroke="#000000" stroke-miterlimit="10" d="M27.745,47.318v-3.22c0-0.141-0.058-0.277-0.157-0.377
			L17.354,33.489c1.35-2.969,0.814-6.589-1.622-9.026c-3.138-3.138-8.242-3.138-11.38,0c-3.136,3.135-3.136,8.241,0,11.38
			c2.438,2.437,6.058,2.972,9.025,1.623l3.103,3.101v1.388c0,0.297,0.24,0.536,0.537,0.536h1.387l0.222,0.222v1.387
			c0,0.297,0.24,0.538,0.536,0.538h1.388l0.222,0.221v1.389c0,0.297,0.24,0.536,0.536,0.536h1.388l0.915,0.915
			c0.1,0.101,0.238,0.157,0.379,0.157h3.22C27.505,47.854,27.745,47.614,27.745,47.318z M6.379,26.49
			c0.838-0.838,2.196-0.838,3.035,0c0.837,0.838,0.837,2.198,0.001,3.035c-0.839,0.836-2.198,0.836-3.036,0
			C5.542,28.688,5.542,27.328,6.379,26.49z"/>
	</g>
	<g>
		<path fill="#F1D219" d="M26.745,45.318v-3.22c0-0.141-0.058-0.277-0.157-0.377L16.354,31.489c1.35-2.969,0.814-6.589-1.622-9.026
			c-3.138-3.138-8.242-3.138-11.38,0c-3.136,3.135-3.136,8.241,0,11.38c2.438,2.437,6.058,2.972,9.025,1.623l3.103,3.101v1.388
			c0,0.297,0.24,0.536,0.537,0.536h1.387l0.222,0.222v1.387c0,0.297,0.24,0.538,0.536,0.538h1.388l0.222,0.221v1.389
			c0,0.297,0.24,0.536,0.536,0.536h1.388l0.915,0.915c0.1,0.101,0.238,0.157,0.379,0.157h3.22
			C26.505,45.854,26.745,45.614,26.745,45.318z M5.379,24.49c0.838-0.838,2.196-0.838,3.035,0c0.837,0.838,0.837,2.198,0.001,3.035
			c-0.839,0.836-2.198,0.836-3.036,0C4.542,26.688,4.542,25.328,5.379,24.49z"/>
		<path fill="none" stroke="#010101" stroke-miterlimit="10" d="M26.745,45.318v-3.22c0-0.141-0.058-0.277-0.157-0.377
			L16.354,31.489c1.35-2.969,0.814-6.589-1.622-9.026c-3.138-3.138-8.242-3.138-11.38,0c-3.136,3.135-3.136,8.241,0,11.38
			c2.438,2.437,6.058,2.972,9.025,1.623l3.103,3.101v1.388c0,0.297,0.24,0.536,0.537,0.536h1.387l0.222,0.222v1.387
			c0,0.297,0.24,0.538,0.536,0.538h1.388l0.222,0.221v1.389c0,0.297,0.24,0.536,0.536,0.536h1.388l0.915,0.915
			c0.1,0.101,0.238,0.157,0.379,0.157h3.22C26.505,45.854,26.745,45.614,26.745,45.318z M5.379,24.49
			c0.838-0.838,2.196-0.838,3.035,0c0.837,0.838,0.837,2.198,0.001,3.035c-0.839,0.836-2.198,0.836-3.036,0
			C4.542,26.688,4.542,25.328,5.379,24.49z"/>
	</g>
</g>
</svg>
