<?xml version="1.0" encoding="utf-8"?>
<!-- Generator: Adobe Illustrator 15.0.0, SVG Export Plug-In . SVG Version: 6.00 Build 0)  -->
<!DOCTYPE svg PUBLIC "-//W3C//DTD SVG 1.1//EN" "http://www.w3.org/Graphics/SVG/1.1/DTD/svg11.dtd">
<svg version="1.1" id="Layer_1" xmlns="http://www.w3.org/2000/svg" xmlns:xlink="http://www.w3.org/1999/xlink" x="0px" y="0px"
	 width="64px" height="64px" viewBox="0 0 64 64" enable-background="new 0 0 64 64" xml:space="preserve">
<g>
	<g>
		<path fill="#233A74" d="M19.184,24.872l7.895,7.878l6.216-6.213l-7.908-7.91c1.201-3.55,0.305-7.454-2.374-10.132
			c-2.813-2.811-7.045-3.638-10.668-2.107c-0.325,0.136-0.565,0.423-0.643,0.767c-0.079,0.345,0.013,0.706,0.249,0.97l3.825,4.316
			v2.874h-2.86L8.7,11.408c-0.264-0.242-0.624-0.339-0.977-0.268c-0.349,0.078-0.641,0.317-0.78,0.646
			c-1.56,3.691-0.732,7.912,2.108,10.751C11.663,25.153,15.684,26.055,19.184,24.872z"/>
		<path fill="#233A74" d="M45.475,38.715l-7.526-7.527l-6.211,6.211l7.534,7.52c-1.198,3.548-0.305,7.457,2.373,10.135
			c1.862,1.859,4.34,2.884,6.974,2.884c1.336,0,2.634-0.261,3.859-0.782c0.334-0.139,0.576-0.435,0.649-0.79
			c0.07-0.352-0.034-0.721-0.285-0.981l-4.156-4.312v-2.849h2.862l4.411,4.072c0.262,0.242,0.621,0.341,0.975,0.269
			c0.35-0.073,0.642-0.317,0.78-0.647c1.574-3.722,0.748-7.975-2.108-10.829C52.978,38.462,48.965,37.54,45.475,38.715z"/>
	</g>
	<path fill="#233A74" d="M58.575,9.2l-3.292-3.291c-0.377-0.375-0.971-0.429-1.401-0.125l-7.769,5.395
		c-0.268,0.187-0.437,0.481-0.467,0.806c-0.028,0.323,0.088,0.643,0.316,0.873l2.057,2.054L26.145,36.788l-3.878-3.877
		c-0.429-0.43-1.123-0.43-1.551,0c-0.429,0.425-0.429,1.12,0,1.548l1.548,1.552L8.622,49.654c-0.829,0.832-1.285,1.933-1.285,3.103
		c0,1.174,0.457,2.278,1.283,3.103c0.828,0.831,1.929,1.285,3.103,1.285c1.175,0,2.276-0.454,3.105-1.285l13.64-13.645l1.551,1.552
		c0.214,0.214,0.495,0.321,0.776,0.321s0.561-0.107,0.775-0.321c0.429-0.429,0.429-1.122,0-1.552l-3.875-3.875l21.877-21.879
		l1.821,1.822c0.205,0.206,0.486,0.322,0.776,0.322c0.024,0,0.051,0,0.078-0.005c0.317-0.019,0.608-0.179,0.8-0.436l5.631-7.532
		C59.003,10.195,58.96,9.586,58.575,9.2z"/>
</g>
</svg>
