<?xml version="1.0" encoding="utf-8"?>
<!-- Generator: Adobe Illustrator 15.0.0, SVG Export Plug-In . SVG Version: 6.00 Build 0)  -->
<!DOCTYPE svg PUBLIC "-//W3C//DTD SVG 1.1//EN" "http://www.w3.org/Graphics/SVG/1.1/DTD/svg11.dtd">
<svg version="1.1" id="Layer_1" xmlns="http://www.w3.org/2000/svg" xmlns:xlink="http://www.w3.org/1999/xlink" x="0px" y="0px"
	 width="48px" height="48px" viewBox="0 0 48 48" enable-background="new 0 0 48 48" xml:space="preserve">
<rect x="12.576" y="15.162" fill="#63B5E5" width="20.346" height="19.421"/>
<g>
	<path fill="#010101" d="M262.211,848.739c0.737,0.926,18.278,22.755,40.45,22.755c22.169,0,39.709-21.829,40.444-22.755
		c0.492-0.62,0.492-1.493,0-2.11c-0.735-0.933-18.275-22.753-40.444-22.753c-22.172,0-39.713,21.82-40.45,22.753
		C261.719,847.246,261.719,848.119,262.211,848.739z M302.661,832.379c8.437,0,15.306,6.862,15.306,15.306
		c0,8.441-6.869,15.306-15.306,15.306c-8.44,0-15.306-6.864-15.306-15.306C287.355,839.241,294.221,832.379,302.661,832.379z"/>
	<path fill="#010101" d="M302.661,859.59c6.563,0,11.905-5.343,11.905-11.905c0-6.566-5.342-11.904-11.905-11.904
		c-3.034,0-1.407,5.994-3.584,8.09c-2.3,2.212-8.321,0.612-8.321,3.814C290.756,854.247,296.094,859.59,302.661,859.59z"/>
</g>
<g>
	<path fill="#FFFFFF" stroke="#010101" stroke-miterlimit="10" d="M1.712,25.766c0.414,0.519,10.257,12.768,22.699,12.768
		c12.441,0,22.283-12.249,22.694-12.768c0.277-0.35,0.277-0.839,0-1.185c-0.411-0.523-10.253-12.769-22.694-12.769
		c-12.442,0-22.285,12.245-22.699,12.769C1.436,24.927,1.436,25.416,1.712,25.766z M24.411,16.584c4.734,0,8.589,3.851,8.589,8.587
		c0,4.737-3.854,8.589-8.589,8.589c-4.736,0-8.589-3.852-8.589-8.589C15.822,20.435,19.675,16.584,24.411,16.584z"/>
	<path fill="#010101" d="M24.411,31.854c3.683,0,6.68-2.999,6.68-6.683c0-3.684-2.997-6.678-6.68-6.678
		c-1.703,0-0.789,3.362-2.011,4.539c-1.291,1.242-4.669,0.343-4.669,2.14C17.731,28.855,20.726,31.854,24.411,31.854z"/>
</g>
<circle fill="#FFFFFF" cx="22.923" cy="36.957" r="0.977"/>
<circle fill="#FFFFFF" cx="21.306" cy="21.142" r="2.234"/>
</svg>
